<?xml version="1.0" standalone="no"?>
<!DOCTYPE svg PUBLIC "-//W3C//DTD SVG 1.1//EN" "http://www.w3.org/Graphics/SVG/1.1/DTD/svg11.dtd" >
<svg xmlns="http://www.w3.org/2000/svg" xmlns:xlink="http://www.w3.org/1999/xlink" version="1.1">
<metadata>
Created by FontForge 20170731 at Fri Feb 17 18:52:27 1933
 By Aleksey,,,
Generated by Fontographer 3.5
</metadata>
<defs>
<font id="Mcs-Quran" horiz-adv-x="684" >
  <font-face 
    font-family="Mcs Quran"
    font-weight="400"
    font-stretch="normal"
    units-per-em="1000"
    panose-1="0 0 0 0 0 0 0 0 0 0"
    ascent="800"
    descent="-200"
    x-height="546"
    cap-height="800"
    bbox="50 -200 4368 800"
    underline-thickness="20"
    underline-position="-163"
    unicode-range="U+0020-007E"
  />
<missing-glyph horiz-adv-x="800" 
d="M50 0v800h700v-800h-700zM700 50v700h-600v-700h600z" />
    <glyph glyph-name=".notdef" horiz-adv-x="800" 
d="M50 0v800h700v-800h-700zM700 50v700h-600v-700h600z" />
    <glyph glyph-name=".null" horiz-adv-x="0" 
 />
    <glyph glyph-name="nonmarkingreturn" horiz-adv-x="500" 
 />
    <glyph glyph-name="space" unicode=" " horiz-adv-x="500" 
 />
    <glyph glyph-name="exclam" unicode="!" 
d="M621 546v-540h-474v132h168v264h108v-264h96v408h102z" />
    <glyph glyph-name="quotedbl" unicode="&#x22;" 
d="M621 546v-540h-474v132h168v264h108v-264h96v408h102z" />
    <glyph glyph-name="numbersign" unicode="#" 
d="M621 546v-540h-474v132h168v264h108v-264h96v408h102z" />
    <glyph glyph-name="dollar" unicode="$" 
d="M621 546v-540h-474v132h168v264h108v-264h96v408h102z" />
    <glyph glyph-name="percent" unicode="%" 
d="M621 546v-540h-474v132h168v264h108v-264h96v408h102z" />
    <glyph glyph-name="ampersand" unicode="&#x26;" 
d="M621 546v-540h-474v132h168v264h108v-264h96v408h102z" />
    <glyph glyph-name="quotesingle" unicode="'" 
d="M621 546v-540h-474v132h168v264h108v-264h96v408h102z" />
    <glyph glyph-name="parenleft" unicode="(" 
d="M621 546v-540h-474v132h168v264h108v-264h96v408h102z" />
    <glyph glyph-name="parenright" unicode=")" 
d="M621 546v-540h-474v132h168v264h108v-264h96v408h102z" />
    <glyph glyph-name="asterisk" unicode="*" 
d="M621 546v-540h-474v132h168v264h108v-264h96v408h102z" />
    <glyph glyph-name="plus" unicode="+" 
d="M621 546v-540h-474v132h168v264h108v-264h96v408h102z" />
    <glyph glyph-name="comma" unicode="," 
d="M621 546v-540h-474v132h168v264h108v-264h96v408h102z" />
    <glyph glyph-name="hyphen" unicode="-" 
d="M621 546v-540h-474v132h168v264h108v-264h96v408h102z" />
    <glyph glyph-name="period" unicode="." 
d="M621 546v-540h-474v132h168v264h108v-264h96v408h102z" />
    <glyph glyph-name="slash" unicode="/" 
d="M621 546v-540h-474v132h168v264h108v-264h96v408h102z" />
    <glyph glyph-name="zero" unicode="0" horiz-adv-x="1128" 
d="M638 699q0 -16 -8 -32.5t-16 -31.5q9 26 9 55q0 24 -5 48t-14 47q2 1 6 9.5t11 2.5q20 -31 20 -72q0 -14 -3 -26zM1067 109q10 -40 10 -87q0 -46 -10 -95t-26 -100q4 16 6 38.5t2 44.5q0 49 -10.5 116.5t-19.5 129.5l-96 516q0 14 5.5 29.5t25.5 52.5q38 -79 50 -110
q25 -62 30 -116q-19 20 -37 40q0 -72 18 -170q51 -275 52 -289zM679 509q-7 -12 -17 -12q-6 0 -19 5.5t-18 5.5q-13 0 -21 -22q-5 -3 -11 -3q-23 0 -30 22q0 25 4.5 43.5t16.5 34.5q1 -7 -1.5 -23t-2.5 -20q0 -18 15 -24q16 0 21 8t5 23v14q0 16 1.5 23t9.5 13q4 -8 4 -20
q-1 -16 -1 -24q0 -13 4.5 -19t19.5 -6q3 -2 6 0q3 4 4 5l-8 36q0 13 10 21q13 -14 13 -41q0 -13 -2 -23.5t-3 -16.5zM411 590q3 -9 3 -17q0 -13 -4.5 -24t-15.5 -27q-8 0 -25 5.5t-21 5.5q-69 -86 -135 -142q-81 -70 -162 -101q65 47 102 75q59 45 98 81q46 42 89 95
q-4 5 -20.5 10t-22.5 13q7 10 9 22t2 23q0 19 3 29t17 22q28 0 52 -23q17 -17 31 -47zM862 -71q-4 -19 -16 -35.5t-30 -23.5q-19 -10 -41 -10q-21 0 -41 8t-39 24q-12 10 -24 25q-4 5 -32 48q-17 -57 -45 -95q-37 -49 -87 -57q-18 -2 -28 -2q-40 0 -72 16.5t-55 52.5
q-10 22 -14.5 49t-4.5 58q0 37 4 73q7 48 9 69q-13 -25 -43 -178q-22 -110 -90 -149q-5 -2 -16 -2t-22 4t-20 11q-35 29 -50 70t-15 91q0 46 9.5 99t19.5 102q-6 -36 -10 -68.5t-4 -62.5q0 -55 14.5 -94t54.5 -63q13 -5 27 -5q16 0 23 8q48 43 93 235q21 91 67 134
q0 -28 -7 -70q-22 -129 -22 -134t-0.5 -13.5t-0.5 -11.5q0 -48 20.5 -81.5t72.5 -50.5q17 -6 32 -6q22 0 41 8t43 24q35 22 50 52t15 68q0 33 -11 82q-25 111 -25 133q4 40 22 80h4q15 -41 23 -162q13 -182 113 -229q12 -3 25 -3q49 0 73 39q-3 16 -77 210q-28 73 -28 129
l24 45q6 1 8.5 -4t5.5 -10l-2 2q6 -16 18.5 -39t26.5 -43l3 2q1 -2 12 -19q8 -12 9 -22q-11 0 -22 7q-13 11 -19 16q6 -26 29 -89q37 -103 37 -160q0 -40 -15 -82zM527 47q1 -3 1 -10q0 -22 -21 -36q-16 3 -27 24q-2 12 -2 18q0 23 9.5 46t24.5 40q0 -7 -13 -42
q-6 -16 -6 -26q0 -18 18 -29q3 1 6.5 9t9.5 6zM232 37q3 -8 3 -15q0 -20 -18 -36q-13 -3 -23 7q-6 6 -14 22q0 36 7.5 64t25.5 54q0 -9 -13 -49q-7 -22 -7 -32q0 -13 4.5 -20.5t19.5 -13.5q3 2 7 10.5t8 8.5zM392 557q0 10 -6 19.5t-11 18.5l-4 -28q2 -10 21 -10zM350 580
q-2 7 -4 11q-7 15 -19 9q-6 -6 -9 -8t1 -7z" />
    <glyph glyph-name="one" unicode="1" horiz-adv-x="1132" 
d="M601 800q1 -12 3 -23q-14 -146 -14 -147q0 -14 3 -14q4 4 5 7q5 9 7 20.5t2 23.5q0 17 -5.5 54.5t-5.5 48.5q0 15 5 30zM660 590q2 -8 2 -24q0 -27 -10 -46q-20 2 -39 -5q-51 -19 -57 -19q-9 0 -14 1q-11 8 -11 21q0 7 7 28q4 12 4 18h6l2 -30q8 -3 16 -3q15 0 24 12
q5 16 8.5 28t13.5 16q-1 -14 -1 -22q0 -17 15 -17q20 -4 21 17.5t13 24.5zM1080 395q0 -210 -81 -383q-42 -90 -125 -140q-71 -43 -175 -60q-74 -12 -191 -12q171 23 321 134q75 57 129.5 128t82.5 153q18 54 18 109q0 81 -33 166q-28 72 -81 150q-3 -27 -4 -67.5t-1 -45.5
q0 -50 2.5 -127.5t2.5 -92.5q-19 109 -19 227q0 119 21 221q66 -68 99.5 -162.5t33.5 -197.5zM375 539q0 -31 -3 -46.5t-17 -28.5q-17 0 -28 1.5t-19 7.5q-43 -67 -116 -131q-63 -55 -141 -103q82 74 123 112q74 69 111 124q-2 1 -19 7.5t-21 14.5q2 17 7.5 30.5t23.5 36.5
q-8 4 -8 11q0 5 6 15.5t6 13.5q4 1 11 1q24 0 48 -20t36 -46zM768 140q0 42 -9.5 75t-33.5 64q-21 -43 -21 -110q-6 24 -6 51q0 43 11 85.5t30 85.5q29 -33 42.5 -76.5t13.5 -93.5q0 -56 -12.5 -108t-36.5 -108q-33 -42 -77 -48q-24 0 -40.5 7.5t-30.5 26.5q-30 -51 -41 -64
q-30 -36 -66 -41q-44 0 -75 37q-12 9 -28.5 46.5t-41.5 37.5q-24 -20 -41 -71q-9 -25 -17 -51q-13 -35 -27 -50q-20 -21 -55 -21q-8 1 -13 1q-51 27 -77 78t-26 114q0 51 21 94.5t60 83.5q32 33 77 64q31 22 85 52q6 7 16.5 30t21.5 29q-5 -30 -25 -59q-15 -22 -48 -53
q-25 -23 -71 -61q-38 -32 -43 -36q-33 -32 -45 -49q-20 -28 -20 -53q-1 -9 -1 -13q0 -26 18 -55.5t54 -62.5q5 0 14 -3t14 -3q7 0 13 6l118 194q32 0 63.5 -61.5t68.5 -61.5q12 0 24 4q37 18 51 44t14 63q0 23 -5 54.5t-8 54.5t-3 42q0 26 6.5 47.5t21.5 39.5q6 -26 8 -139
t75 -145q32 0 62 26t41 60zM355 503q-9 26 -27 40l-6 -35q16 -8 23 -8q5 0 10 3zM304 515v5q-3 9 -8 14.5t-15 4.5q-10 -2 -10 -17z" />
    <glyph glyph-name="two" unicode="2" horiz-adv-x="4005" 
d="M3596 621q1 -3 1 -10q0 -10 -5 -20q-8 -12 -11 -18q-17 -13 -23 -15.5t-16 -2.5q-5 0 -13 3q-11 10 -11 24q0 13 11 33q15 26 17 34l3 -15l8 15q13 -4 23 -10.5t16 -17.5zM3489 678q0 -13 -5.5 -26.5t-15.5 -21.5q-7 -2 -13 2.5t-10 12.5q-1 6 -1 17q0 18 7 40
q4 14 16 37q0 -7 -5.5 -29t-5.5 -29q0 -17 12 -26q6 0 11 10.5t10 12.5zM3574 428l-2 -7q-30 4 -36 -38.5t-11 -49.5q-2 2 -32 50q-19 31 -46 27q3 17 4.5 25t6.5 13q24 -5 40 -33q13 -24 27 -47q7 32 11.5 54.5t24.5 30.5q15 -3 15 -16q0 -6 -2 -9zM3326 722l-4 -24
q-4 4 -16 4h-10q-10 -15 -12 -52.5t-10 -53.5q12 -8 24.5 -17t23.5 -21q0 -26 -42 -28.5t-53 -20.5q3 -22 8 -45q9 -40 18 -79q2 -10 3 -22.5t1 -24.5q0 -41 -19 -74q11 22 11 50t-14 76l-14 46q-3 11 -6 28t-3 26q0 26 14 43t52 27q-4 7 -15 7q-8 0 -14 -4l-10 -11
q-5 16 7 33q10 5 21 11q-5 8 -13 27q-13 32 -26 45q-1 -7 -6 -7q-6 0 -13.5 5.5t-13.5 10.5q-5 6 -5 18q0 14 9 27q18 6 36 -17q18 -29 36 -57q3 0 5 12.5t2 41.5q7 21 22 31q7 2 12.5 0t13.5 -11zM3808 -59q-9 -5 -20 -26.5t-20 -21.5q-6 0 -17 9q-4 6 -22 16.5t-18 19.5
q0 4 3 10q8 4 19.5 24t20.5 20q5 0 10 -4q21 -13 31 -20q20 -13 13 -27zM2849 702q-1 -2 -5.5 -15t-9.5 -19q3 8 3 15q0 14 -9.5 39.5t-9.5 34.5l10 25q21 -29 21 -80zM3710 -90q-21 -24 -58 -37q-23 -9 -33 -13q-20 -8 -31 -14q7 13 22 23.5t30.5 16.5t39.5 14zM3109 377
q6 -44 8.5 -71.5t2.5 -61.5q0 -43 -6 -84.5t-21 -80.5q1 13 4 50t3 51q0 26 -5 54l-77 492q0 20 7.5 38.5t21.5 35.5q5 -24 33 -81q24 -50 24 -83q-7 5 -16 15.5t-17 21.5q0 -63 12.5 -142.5t25.5 -153.5zM3631 5q5 -11 -2 -21.5t-14 -20.5q-7 -5 -26.5 -6.5t-27.5 -15.5
q-23 12 -41 12t-37 -10q-13 -7 -35 -25q-59 -46 -65 -50q-22 -12 -46 -12q30 8 71 43q20 19 43 38t40 27q23 11 46 11q14 0 20 -1.5t17 -6.5q9 18 19 35l3 -22q13 -4 20 6q14 18 15 19zM2877 545q-7 -5 -16 -5t-16 5l-9 15q0 -11 -7 -20t-19 -16q-5 -3 -9 -3t-8.5 2.5
t-11.5 6.5q-5 13 -5 25q0 11 3 21t14 36q3 -9 -1 -24.5t-4 -17.5q0 -10 9 -18q9 -3 16 1t15 13v29q2 19 10 26q1 -3 1 -10q-2 -16 -2 -23q0 -18 19 -18h11q0 6 -2.5 18t-2.5 14q0 11 6 16q11 -21 11 -46v-13q-2 -10 -2 -14zM3817 234q-5 -26 -9 -51q-9 -27 -33 -32.5
t-43 -5.5q-26 0 -46 8.5t-34 28.5q-15 -28 -23.5 -40t-22.5 -16q-12 -2 -19 -2q-24 0 -41 13l-17 28q-16 -20 -23 -29q-13 -16 -28 -23q-29 0 -42 2t-26 13q-18 10 -29 43q-20 60 -47 60q-5 0 -21 -4q-14 -6 -30 -17q-10 -7 -29 -23q6 -48 67 -86q73 -46 87 -70
q-6 -21 -13 -38.5t-17 -32.5q-50 71 -139 71q-68 0 -146 -42q-22 -12 -81 -49q-75 -47 -106 -63q-61 -31 -117 -40q-25 0 -44.5 10t-27 29t-7.5 37q0 23 10 51.5t19 53.5q-8 -1 -12 -1q-23 0 -43 10t-35 28q-22 20 -30 51t-8 70v31.5t1 30.5q0 12 -1 18q-18 -25 -26 -77
t-14 -100q-7 -39 -20 -58q-16 -23 -45 -23q-18 0 -46 11q-32 24 -45 62.5t-13 87.5q0 23 3 49.5t4 40.5q0 -80 20 -120q17 -35 51 -50q9 -3 19 -3q22 0 39 18q22 28 33 78q5 20 11.5 58.5t14.5 59.5q13 34 39 54q0 -22 -2 -43q-7 -72 -7 -80q0 -44 13.5 -73.5t52.5 -47.5
q14 -7 30 -7q13 0 33 6q42 17 60 48q15 25 15 65q0 19 -3 39l-12 110q0 24 3.5 39.5t14.5 32.5q7 -18 10 -47t3 -54q0 -16 -0.5 -32t-0.5 -32q4 -48 20 -74q20 -34 65 -44q17 0 29 3.5t21 13.5q-24 70 -36 106q-22 65 -22 109q0 40 16 73q5 -10 23 -34q30 -40 30 -62
q-20 -12 -20 -32q0 -13 18 -59q10 -25 10 -37q-2 -8 -2 -19v-17v-35q0 -32 -6 -48q-9 -23 -33 -33q-12 -4 -28 -4q-34 0 -63 21l-25 35q-4 -29 -79 -116q-33 -38 -33 -72q0 -12 1 -19t7 -21q20 -26 54 -26q13 0 28 5q48 18 102 51q16 10 98 64q59 39 99 59q55 28 108 38
q0 69 17 115q23 61 77 86q10 4 18.5 6.5t18.5 2.5t22 -5q22 -46 34 -69q22 -43 63 -43q24 0 47 28q31 38 39 43q0 -5 -3.5 -16t-3.5 -16q0 -7 4 -12q17 -17 40 -17q8 0 23 3.5t25.5 30.5t20.5 33q-4 -7 -4 -14q0 -12 11.5 -19.5t25 -9t22.5 -2t14 -0.5q15 0 31 3t29 20
q-64 126 -127 253q0 17 7 34.5t14 34.5q19 -14 36 -35q26 -34 53 -68q-8 -5 -21 5q-8 6 -9 6q-5 0 -7 -11q7 -23 46 -91q32 -56 32 -96q0 -19 -6 -40zM3311 -36q-3 -16 -23 -25q-11 -4 -21 -9q-32 -11 -88 -36q-72 -32 -88 -39q1 8 8 16t15 11q38 19 93 41.5t104 40.5z
M2696 580q-4 -17 -7 -27.5t-14 -13.5q-11 -4 -24 1.5t-24 11.5q-28 -42 -76 -81q-28 -22 -88 -62q4 -32 4 -73q0 -50 -6.5 -100t-18.5 -105q0 81 -11.5 187t-23 212.5t-11.5 186.5q-5 8 -5 20q0 14 11 34q5 9 20 29l64 -164q-8 0 -15 6q-11 10 -21 21q-5 -3 -8.5 -9.5
t-5.5 -15.5q0 -48 9 -112q14 -99 15 -111q54 44 80 66q43 36 76 72l-28 22q0 20 20.5 44.5t20.5 42.5q24 -9 42.5 -32.5t24.5 -49.5zM2754 227q0 -16 -3.5 -25.5t-15.5 -16.5q-8 -3 -15.5 1t-10.5 17q0 17 3.5 32.5t19.5 55.5q1 -11 -5 -31t-6 -27q0 -11 7 -21q8 -2 16 6
t10 9zM2158 552q-15 -3 -17 -3q-12 0 -17 9q-5 -9 -11.5 -18.5t-17.5 -9.5q-19 -3 -27 15q-1 5 -1 16q0 34 16 60q2 -6 2 -10q0 -6 -2.5 -18.5t-2.5 -15.5q0 -19 24 -19q13 8 13 37t11 37q-2 -18 -2 -27q0 -12 3.5 -19t13.5 -11h7q0 5 -2.5 18.5t-2.5 18.5q0 13 9 18
q6 -14 8.5 -25.5t2.5 -24.5q0 -17 -7 -28zM2169 759q-9 -19 -32.5 -27.5t-44.5 -15.5q-79 -26 -142.5 -50.5t-130.5 -55.5q32 35 100 60q104 39 112 43zM1947 585q-8 -20 -27 -33t-39 -13q3 7 18.5 13.5t19.5 11.5q-6 2 -18 5t-19 3q-4 0 -12 -2q-1 6 7.5 13.5t9.5 8.5
q7 1 21 1q24 0 39 -8zM1750 617l-29 -57q17 29 17 69q0 47 -23 82q1 14 13 24q26 -30 26 -81q0 -10 -1.5 -20.5t-2.5 -16.5zM2551 -29q-17 -19 -42 -37q-18 -13 -51 -29.5t-50 -24.5q-28 -14 -51 -28q14 20 37 36.5t52 30.5q52 26 105 52zM2304 330q5 -38 5 -69
q0 -46 -11.5 -86t-40.5 -76q-108 -52 -215 -103q-60 -33 -102 -62q-53 -36 -96 -79q-15 -6 -35 -11.5t-35 -5.5q-17 0 -29 4.5t-24 16.5q-19 20 -23 43q-7 -1 -21.5 -6t-22.5 -5q29 3 41 25l28 78l38 90l-46 -156q40 17 63 33q37 26 37 57q7 13 12.5 22t14.5 13q11 3 21 -7
q7 -7 12 -19q3 -11 -2 -20q-9 -11 -12 -16q-6 -3 -10 -3q-3 0 -14 3.5t-18 0.5q-7 -22 -33 -40q-62 -43 -65 -48q21 -26 52 -26q41 12 85 42q22 15 75 60t79 64q43 31 83 45q16 9 96 37q59 21 91 54q0 84 -14 184q-10 75 -30.5 172t-38.5 186q4 23 11.5 41t20.5 31
q38 -85 72 -173q-12 -4 -22 10q-13 19 -20 22q-6 -8 -6 -22q0 -11 2 -21q7 -34 7 -37q0 -47 22 -150q15 -69 18 -93zM1704 463q5 -24 -13 -47q-8 -4 -16.5 1.5t-10.5 12.5t-2 15q0 16 5 29.5t9 23.5q-2 -21 -2 -33q0 -21 17 -23q4 2 6 11t7 10zM2213 -81q0 -14 -5.5 -27.5
t-16.5 -19.5q-23 0 -26 21q1 15 9 34t12 29q3 -6 -5 -24q-4 -10 -4 -17q0 -11 14 -17q7 0 14 12q4 7 8 9zM1578 595l-32 54q-3 -17 -3 -33q0 -25 14 -103q7 -39 7 -65q6 -54 6 -109q0 -124 -32 -237q11 59 11 130q0 70 -10 149q-5 38 -22.5 147t-22.5 150q-7 10 -7 22
q0 13 11 32q18 30 18 31q20 -40 40 -79q22 -50 22 -89zM1683 297q-3 -5 -16 -39q-9 -24 -23 -26l-44 28l35 64q8 -3 19.5 -9t28.5 -18zM2246 362q0 -72 -72 -96q-62 -18 -124 -35q-38 -10 -54 -15.5t-31 -15.5q0 -27 -3 -45.5t-19 -73.5q-25 8 -37 13q-21 9 -25.5 22.5
t-4.5 18.5q0 6 4 19.5t3 21.5q-145 -41 -288 -130q-125 -78 -262 -202q-31 -20 -56 -30q-33 -14 -62 -14q-14 0 -25 2t-24 9q-24 16 -36.5 41.5t-12.5 56.5q5 37 17 75q-28 -9 -67 -41q-15 -13 -66 -61q-27 -25 -50 -39.5t-41 -14.5q-13 0 -23 7q-14 5 -21.5 22.5
t-10.5 26.5q0 33 13 71q18 43 26 63q0 -15 -12.5 -51.5t-12.5 -52.5t6.5 -27.5t23.5 -21.5q54 -5 131 88q53 64 76 82q48 39 126 69q69 25 139 51q24 6 33 20.5t9 37.5q0 13 -3 28t-4 23q-11 48 -30 148q-14 75 -29 154t-29 143q10 26 15.5 38t13.5 19q34 -84 68 -167
l-33 39q-1 -10 -1 -31q0 -44 12 -105t24 -117q10 -37 15.5 -70t5.5 -69q0 -50 -14 -89.5t-48 -67.5q-30 -17 -85 -37q-118 -43 -146 -58q-7 -22 -10 -35.5t-3 -30.5q0 -20 5.5 -34t20.5 -27q27 -14 57 -14q44 0 95 33q30 19 85 68q97 92 214 162q99 59 235 115
q-10 10 -47 33q-59 36 -59 73q0 10 5 25q16 44 31 64q25 33 62 33q107 -10 259 -53q101 -30 151 -44zM1285 519q-5 15 -5 29q0 13 5 22q10 -20 10 -43t-12 -38q-12 2 -18.5 4.5t-7.5 10.5q-6 -3 -12.5 -14t-13.5 -14q-25 0 -28 22q2 25 3.5 41t9.5 27q2 -6 2 -11
q0 -6 -1 -14l-2 -16q0 -21 21 -21q13 7 13 22q-3 18 -3 26q0 11 8 18q3 -6 3 -28.5t18 -26.5q7 0 10 4zM1298 711l-26 -24l-326 -124q35 28 76 47.5t98 38.5t88 29q56 18 90 33zM903 668q3 -11 -1.5 -21.5t-14.5 -21.5q-6 -1 -11 4q-5 8 -7 11q-1 8 -1 12q0 22 5 40
q2 8 14 36q2 -8 -3 -26.5t-5 -23.5q0 -17 14 -25q5 7 10 15zM1084 465q0 -22 -2 -32t-13 -20q-20 5 -22 15q6 32 9.5 49t12.5 33q3 -8 0 -18q-6 -16 -11 -32q0 -11 13 -18q4 3 6 12.5t7 10.5zM1619 -59q0 -9 -7.5 -17.5t-13.5 -9.5l-207 -83q5 19 21 28q103 41 207 82z
M875 471l-6 -21q-3 0 -8 2q-13 5 -17 5q-8 0 -12 -9q0 -26 -3 -49.5t-12 -43.5q-8 6 -28 45q-15 30 -39 27q-6 6 -6 14q0 7 4.5 16l8.5 17q19 -7 30 -25l30 -60q3 25 6 51q5 28 20 45q20 3 32 -14zM603 713l-2 -21q-5 -2 -12 0l-14 4q-11 -16 -15 -54.5t-11 -53.5
q-5 5 -25 42q-14 27 -27 21q-6 -1 -11.5 5.5t-7.5 14.5l4 38q22 -2 39 -30q13 -24 26 -47q4 10 8 44t22 48q6 1 13 -2.5t13 -8.5zM605 525l-5 -21q-15 3 -27 5t-22 2q-17 0 -34 -9q-4 -15 -4 -32q0 -19 5.5 -42t13 -50t10 -40.5t2.5 -35.5t-8 -48l-8 -23q5 18 5 41
q0 25 -6 52q-10 35 -14.5 53.5t-9.5 43t-5 42.5q0 29 10 56q10 8 23.5 13t28.5 9q-6 7 -12 10t-14 3q-3 0 -9 -2l-8 -11q-4 3 -2 12t6 17q7 10 21 10q10 0 18 -5q13 -6 24 -21t21 -29zM1344 278q-2 -15 -13 -39t-16 -36q-64 0 -117.5 -12t-112 -36t-118 -47.5t-112.5 -23.5
q-46 0 -87 40q-12 12 -61 77q-18 0 -34 -12q-11 -9 -25 -28q8 -49 101 -91q48 -21 58 -55l-23 -57q-45 44 -121 44q-18 0 -34.5 -3t-227.5 -111q-78 -40 -145 -40q-16 0 -24 1q-50 28 -50 83q0 60 50 118q45 50 91 100q-9 -16 -72 -90q-48 -56 -48 -98q0 -14 2 -24t10 -23.5
t22 -20t47 -6.5q59 15 132 60q167 102 215 115q-9 26 -9 53q0 40 16 75.5t45 64.5q11 11 22 16.5t25 5.5q6 -7 34 -51q38 -58 79 -66q20 -3 37 -3q51 0 111 24.5t116 48.5q-53 15 -105 30q-19 0 -34 -12q-9 -3 -23.5 -4t-15.5 -1q-12 0 -34 2t-32 2q-9 0 -14 -1q0 43 28 67
t71 24q59 0 135 -19q173 -43 224 -43h23q10 2 14 2zM391 247q-8 -44 -10 -52q-9 -29 -31 -43q-14 -3 -27 9q-7 6 -20 24q-9 33 -9 64q0 47 18 99q9 25 73 152q0 -26 -42 -123q-20 -46 -20 -76q0 -21 7.5 -38.5t26.5 -35.5q10 -1 17.5 13t9.5 14q3 0 7 -7zM765 -98
q-7 -10 -22.5 -27.5t-23.5 -26.5q-16 3 -31.5 13.5t-30.5 20.5q-6 -5 -15.5 -19.5t-18.5 -18.5q-21 5 -35 13q-19 11 -22 25l50 44l53 -24l38 39zM539 -91q-15 -27 -61 -50q-38 -18 -75 -37h-5q9 18 24.5 29t40 22t37.5 16q27 12 39 20zM3577 595q0 9 -21 22q-11 7 -10 17
q0 -6 -6 -18t-6 -18q0 -7 4 -12q6 -3 11 -3q7 0 15.5 5t12.5 7zM2677 570l-26 37q-7 -10 -7 -18t4 -12q6 -9 19 -9q4 0 10 2zM2629 586l-8 20q-15 -4 -14 -11q13 -9 22 -9zM2128 318l-247 60q-4 1 -21.5 3.5t-32.5 2.5t-25 -2.5t-20 -9.5q71 -57 143 -114zM1848 18
q-2 7 -9 7q-9 0 -9 -5z" />
    <glyph glyph-name="three" unicode="3" horiz-adv-x="3523" 
d="M3363 168q-13 -25 -19 -37q-12 -23 -26 -21l-42 21q6 16 14 34.5t20 30.5q6 -4 25 -11t28 -17zM3325 399q-18 -33 -58 -64q-24 -18 -73 -47q-5 5 -12 5q-5 0 -25 -10q-12 -6 -18 -6q-5 0 -10 3q-4 -1 -30 -13q-20 -9 -32 -9q-8 0 -17 3q-6 4 -18 24.5t-23 20.5
q-7 0 -17 -7q-32 -23 -43 -32q-22 -19 -36 -42q13 -2 37 7.5t35 9.5q10 0 18 -4l-24 -70q-6 -16 -15 -26t-25 -18q-18 -16 -41 -29q-7 -4 -78 -35q-36 -16 -58 -31q-29 -20 -47 -48q15 -51 86 -120q61 -59 63 -61q-44 21 -84 58q-36 33 -68 78q-3 12 -6 31.5t-3 33.5
q0 19 4 35t14 29q20 23 57 43q95 50 102 56q0 60 37 114q34 55 92 90q9 3 16.5 5t12.5 2q8 0 15 -5q6 -14 10.5 -23t13.5 -15q33 5 56 16q29 15 38 41q3 -3 1 -15t1 -16q15 4 30 23q15 22 21 29l-4 -40q36 21 57 37q29 22 48 50q0 20 -8.5 44t-16.5 46l-21 -36q7 33 16 67.5
t27 57.5q28 -59 28 -127q0 -61 -25 -110zM2451 686h-4q4 11 4 22q0 15 -7 39t-7 27l4 26q21 -26 21 -67q0 -27 -11 -47zM2491 649q2 -6 2 -17q0 -8 -1 -14t-7 -20q-12 0 -29 -8t-24 -8q-4 0 -10 2q-9 6 -9 19q0 9 2.5 16.5l4.5 13.5h4v-15q2 -7 9 -10q15 0 18 19t11 22
q-1 -13 -1 -18q0 -10 7 -12q12 -2 15.5 13t7.5 17zM2767 500q0 -73 -11.5 -140t-36.5 -122q-30 -87 -119 -129q-60 -28 -173 -44q-21 -6 -41 -9.5t-40 -3.5q65 19 115 40q61 26 112 59q55 36 94 81q43 50 65 109q16 44 16 92q0 53 -17.5 108t-47.5 105q-5 -18 -7 -45.5
t-2 -53.5v-45q0 -35 -1.5 -52.5t-8.5 -39.5q-6 63 -6 130q0 62 4 108t16 99q41 -48 65 -113.5t24 -133.5zM2327 663q1 -11 -2 -20t-9 -20q-6 -3 -10 -3q-5 0 -16 6.5t-17 1.5q-26 -52 -77 -96q-46 -39 -103 -64q52 34 93 71q48 44 76 90q-3 6 -15.5 8t-14.5 12q7 11 10 40.5
t22 40.5q21 -6 38.5 -25.5t24.5 -41.5zM2597 375q0 -36 -7.5 -73t-20.5 -70q-4 -14 -19 -25t-29 -20q-8 -3 -14 -3q-10 0 -22 6q-4 2 -19 12l-21 25q-6 -45 -20.5 -65.5t-36.5 -30.5q-9 -1 -14 -1q-18 0 -30 3.5t-23 14.5q-13 7 -27.5 36.5t-31.5 27.5q-16 -11 -25 -38
q-9 -33 -14.5 -51.5t-15.5 -30t-30 -11.5q-10 0 -22 4q-26 7 -46.5 30.5t-31.5 52.5q-7 29 -7 63q0 51 18.5 93.5t59.5 71.5q10 7 28 16q25 13 51 26q21 12 35.5 26.5t22.5 36.5q-6 -20 -21.5 -39t-38.5 -38q-16 -13 -32 -25q-52 -39 -55 -41q-47 -37 -55 -73q-2 -12 -2 -18
q0 -20 8 -39t30 -45q10 -12 28 -19q11 -4 32 -8q24 15 44.5 71.5t55.5 67.5l34 -58q24 -33 56 -33q22 0 41 22q16 18 23 43q0 23 -10 83q-6 36 -6 50q1 9 1 14q2 15 5.5 28t10.5 25q6 -21 8.5 -66.5t5 -66t15.5 -42.5t43 -33q24 0 44 24q10 12 27 45q2 12 2 18
q0 20 -8.5 37.5t-24.5 37.5q-5 -6 -9 -27t-10 -29q-7 18 -7 41t8 51q5 19 18 48q26 -23 38.5 -57.5t12.5 -74.5zM2664 -4q-6 -11 -15 -18.5t-19.5 -11.5t-22.5 -7t-27 -7l-1 3l-2 3l44 22q4 2 20 8t23 8zM1707 534q2 -4 2 -15q0 -7 -2 -16t-4 -15q-9 -2 -34 -16
q-20 -11 -36 -11q-7 5 -7 16q0 7 2 14.5t4 15.5q2 -1 3 -9.5t7 -11.5q15 0 23 15q5 13 11 27l2 -23q7 -5 21 4zM2056 446q0 -164 -86 -286q-49 -71 -138 -79q-32 4 -57.5 23.5t-36.5 49t-11 66.5q0 27 4 50t21 80q-36 -14 -56 -50q-8 -15 -28 -73q-15 -46 -32 -69
q-25 -33 -70.5 -42.5t-87 -11t-124.5 -1.5q106 28 121 33q32 11 72 32q49 25 80 60q35 40 47 94q0 41 32 70q14 12 67 45q32 20 47 37q21 24 21 55q0 16 -6 37q-9 42 -13 63q-8 37 -20 61q-14 -41 -26 -100.5t-23 -113.5q0 75 16.5 155.5t45.5 153.5q20 -50 32.5 -108.5
t12.5 -111.5q0 -43 -8 -82.5t-27 -74.5l-52 -43q-30 -44 -30 -104q0 -49 38 -81q23 -20 59 -20q17 0 29 4q39 14 69 40t50 60.5t32.5 75t16.5 79.5q-7 71 -18 114q-14 56 -42 105q-12 -46 -17 -119q-9 -122 -9 -123h-6q0 164 6.5 223.5t26.5 114.5q39 -56 58.5 -132
t19.5 -156zM2093 81q-4 -14 -16 -24t-33 -19q-18 -6 -33 -10q-4 -1 -24 -5l53 29zM1383 718q21 -28 21 -72q0 -23 -7 -47.5t-18 -43.5q14 28 14 63q0 45 -21 78zM1732 764q-4 -49 -31 -92q-22 -36 -66 -75q-27 -23 -82.5 -62.5t-78.5 -58.5q-2 -3 -2 -10q0 -19 16 -16
q8 -1 11 -1q11 0 22 1t23 2q13 0 19 -2q-2 -18 -9.5 -38.5t-17.5 -32.5q-35 -4 -118 -48q-45 -24 -73 -30q-6 -62 -14 -92.5t-21 -60.5q-17 -41 -40 -65q-27 -29 -68 -41q-13 -4 -30 -4q-22 0 -42.5 7.5t-39.5 21.5q-35 24 -50 61.5t-15 83.5q0 36 9.5 74.5t37.5 68.5
q21 22 57 46q48 32 61 43q33 27 47 59q-6 -22 -20.5 -41.5t-37.5 -40.5l-82 -70q-21 -18 -35 -37t-18 -35t-4 -27q0 -35 32 -80q21 -27 47 -43t55 -16q8 0 28 4q39 11 71 45.5t47 75.5q0 29 -16.5 52.5t-32.5 47.5q4 20 8.5 38t11.5 26q17 -25 19 -27q14 -16 28 -16
q7 0 17 5q17 6 35.5 13.5t32.5 19.5q3 20 6.5 41t10 41t16.5 35.5t28 30.5q-9 8 -13.5 18.5t-7.5 26.5q13 60 46 104q39 52 94 63q67 19 73 20q21 4 48 4zM1233 288q-4 -19 -10.5 -35.5t-18.5 -29.5l-54 19q0 18 8 36q3 7 19 34q13 1 29 -9q21 -14 27 -15zM711 537
q3 -9 3 -19q0 -18 -9 -32q-4 0 -26 -13q-10 -6 -17 -6q-10 0 -15 12q-2 10 -2 15q0 10 6 28q2 -11 2.5 -18t9.5 -10q15 6 17 13q-1 6 1.5 14t2.5 11q6 0 6 -9v-12q2 -6 9 -4q7 4 8.5 15.5t3.5 14.5zM998 549q0 -34 1.5 -88t1.5 -55v-12q0 -42 -6 -83q-9 -65 -29 -114
q-23 -58 -63.5 -95.5t-93.5 -37.5q-22 0 -42 7q-48 21 -68 76q-15 41 -15 108q0 14 10 57q5 21 5 33q-21 -16 -33 -43q-7 -15 -16.5 -55t-12.5 -50q-10 -28 -28 -48q-31 -34 -75 -47t-98 -13q-30 0 -57 3q75 36 150 73q41 25 66 51q30 32 42 73.5t24 82.5q18 45 59 58
q45 22 66 35q39 24 44 59q0 90 -38 166q-10 -36 -22 -102q-16 -85 -19 -100q0 74 14 147t39 140q42 -74 42 -167q0 -94 -23 -174q-12 -27 -50 -49l-56 -32q-16 -16 -16 -41q-1 -6 -1 -14v-12q0 -47 17.5 -84.5t56.5 -56.5q18 -5 34 -5q24 0 47.5 10.5t42.5 28.5
q45 52 70.5 110t25.5 120q0 42 -13 81q-19 64 -21 71q-13 38 -30 68q-6 -34 -8.5 -76.5t-2.5 -90.5v-56q-9 54 -9 122q0 102 20 191q20 -22 36 -59t32 -111zM1017 79q-4 -13 -13 -22t-21 -15t-25 -11.5t-25 -9.5q15 18 41 34q8 6 23 13.5t20 10.5zM541 286q3 -5 3 -12
q0 -10 -4 -21q-7 -19 -14 -37q-42 -7 -84 -13q-9 0 -13 1q0 46 36 64q18 9 76 18zM707 667q-2 -29 -4.5 -47.5t-16.5 -28.5q-28 -14 -50 -36q-17 -17 -41 -49l-36 -48q-21 -28 -41 -48l-2 -60q-5 6 -7 22.5t-6 24.5q-19 -12 -41.5 -18t-50.5 -9q-3 15 -18 15q-8 0 -14 -6
l-58 -70q11 0 32.5 8.5t28.5 8.5t12 -4l-14 -75q-10 -25 -27 -45t-43 -34q-4 -3 -61 -44q-68 -48 -68 -101q14 -25 36 -48q18 -19 45 -40l92 -72q-42 25 -63 38q-36 22 -63 45q-33 28 -49 56q-19 33 -19 73q0 32 16 58q13 22 40 44q33 25 48 37q29 22 39 38q-1 6 -1 18
q0 53 29 105q33 57 88 86q2 -3 2 -9q0 -3 -2 -11t-2 -11q23 -3 51 14q20 13 29 19q0 15 -0.5 30.5t-0.5 31.5q0 46 7 69q11 35 40 55q14 3 26 3q17 0 30.5 -2.5t24.5 -4t25 -1.5q19 0 31.5 4.5t26.5 18.5zM307 95q-1 -15 -9 -25.5t-22 -20.5l-51 -33q5 11 14 20.5t24 21
t22 17.5q15 12 22 20zM2308 650l-8 14l-9 14q-4 -5 -4 -10t8.5 -10.5t12.5 -7.5zM2273 663q2 12 -12 18q-4 3 -8 0t-4 -12q3 -5 10.5 -6t13.5 0zM1690 707q-53 0 -99 -15t-82 -48q-6 -6 -6 -12q0 -15 17 -21q14 -7 29 -7q32 0 74 38q33 32 67 65zM596 574q-4 0 -16.5 1
t-19.5 1q-16 0 -26 -4t-16 -17q-2 -12 -4 -26t-2 -25q0 -15 4 -26q18 17 42 47q19 24 38 49z" />
    <glyph glyph-name="four" unicode="4" horiz-adv-x="4038" 
d="M3854 800q3 -14 -8 -23q-7 -6 -23 -13q-83 -31 -124 -46q-105 -39 -206 -79q15 32 58 51l76 28q56 21 113 42q42 16 114 40zM3772 577q-7 -7 -21.5 -30.5t-28.5 -31.5q-32 21 -64 43l-44 -52l-39 15q-24 10 -28 22q11 15 23 31t24 28q19 -3 45 -18q10 -6 26 -16l55 58z
M3686 429q3 -12 -3 -26.5t-15 -23.5q-19 8 -23 18t-4 20q0 13 6 28q3 7 13 25q0 -4 -2.5 -17t-2.5 -18q0 -16 13 -23q7 -2 10.5 4.5t7.5 12.5zM3509 427q-15 -56 -52 -106q29 59 30 63q7 20 7 42q0 16 -6 34q-9 24 -18 49q0 11 18 21q10 -22 17 -41.5t7 -38.5q0 -11 -3 -23z
M3797 68q-23 -78 -100 -126q-65 -41 -154 -53q-38 0 -68.5 18t-49 50.5t-26.5 85.5q-2 10 -11 92l-22 495q-9 19 -9 45q0 23 9.5 46.5t25.5 45.5h5l11 -101l18 -516q6 -60 21 -96q21 -49 64 -73q29 -10 58 -10q37 0 75 15q45 18 109 67q-22 36 -123.5 40.5t-112.5 74.5
q9 46 31 85t60 64q12 3 24 3q29 0 60 -19.5t68 -73.5q19 -33 29.5 -63t10.5 -62q0 -16 -3 -34zM3126 789q-2 -14 -11 -23t-24 -17l-208 -92q20 28 50 48q23 15 62 31q45 16 67 24q39 15 64 29zM3065 527q1 -9 -10 -28q-4 0 -11 2t-11 2q-8 0 -12 -9q-6 -61 -12 -121
q-7 7 -34 57q-20 38 -47 40q-7 7 -7 17q0 6 3.5 16t8.5 22q23 -9 41 -40q14 -27 29 -53q4 29 6 45q7 55 36 55q7 0 20 -5zM3252 563q-11 5 -23 17q-8 8 -20 23q0 -61 11.5 -146t22.5 -163q4 -28 6 -53.5t2 -55.5q0 -57 -9.5 -101.5t-35.5 -89.5q-52 -45 -93 -74
q-53 -38 -101 -61q-31 -15 -67 -23.5t-69 -8.5q-25 0 -45 3t-44 12q-38 20 -61 53t-23 73q-2 18 -2 27q0 55 35 133l34 74q-15 -40 -23 -68q-11 -41 -11 -76q0 -26 6 -47.5t21 -42.5q12 -15 22.5 -25.5t23.5 -17.5q7 64 7 138q0 98 -14 214q-6 52 -30.5 203t-32.5 220
q-8 13 -8 25q0 13 7 29q4 10 25 42q23 -49 47 -97q25 -57 25 -102l-33 36q0 -75 12.5 -169.5t25.5 -183.5q3 -29 6 -72t3 -71q0 -57 -7.5 -108t-25.5 -101q41 -20 88 -20q42 0 81.5 12.5t86.5 35.5q78 38 146 103v76l-65 527q-7 18 -7 38q0 21 8 42.5t23 46.5
q24 -44 43 -113q25 -92 32 -113zM2652 654q1 -4 1 -11q0 -28 -18 -44q-13 0 -18 11q-5 16 -6.5 21.5t-1.5 15.5q0 35 15 53q-2 -18 -2 -29q0 -28 14 -41zM3028 211q0 -17 -5 -32t-19 -23q-9 -1 -15 4q-9 8 -13 25q5 30 7 37q8 33 24 59q-9 -32 -17 -64q0 -17 14 -30
q8 0 15 10t9 14zM3347 -115q0 -2 1 -6t1 -8q0 -12 -4.5 -22t-14.5 -18q-29 5 -34 34q0 56 29 91q0 -8 -6 -30t-6 -32q0 -21 19 -29q4 3 8.5 10.5t6.5 9.5zM2488 676q-9 -25 -18 -49q5 35 6.5 46t1.5 24q0 20 -4 35t-16 27q-3 7 0.5 14.5t11.5 17.5q12 -13 17.5 -31.5
t5.5 -41.5q0 -20 -5 -42zM2517 515q-4 -14 -23 -14q-7 0 -17 2q-4 -1 -23 -12.5t-33 -8.5q-9 4 -13 13.5t-4 20.5q0 14 5 27q3 3 5 14t9 11q1 -6 -1.5 -18.5t-2.5 -14.5q0 -15 14 -20q19 0 32 17q-3 14 -3 24q0 16 8 35q4 -5 5.5 -32.5t19.5 -27.5q6 0 10 1q1 4 1 11
q0 8 -1 16t-2 17q0 12 7 23q11 -21 11 -53q0 -18 -4 -31zM2094 690q2 -11 -1.5 -22t-11.5 -26q-12 -7 -20 -7q-7 0 -11 4q-14 18 -14 44q0 21 6.5 38.5t19.5 32.5q0 -7 -5.5 -29t-5.5 -29q0 -17 14 -27q11 -4 18 8t11 13zM2280 623q-8 2 -10 2q-14 0 -27 -18
q-41 -57 -42 -58q-93 -96 -196 -160q26 27 84 77q71 61 89 80q45 47 71 93q-14 7 -29 16t-23 21q4 21 17 38.5t33 23.5q20 0 26 -20q3 -18 7 -36q-5 -6 -5 -13q0 -5 10 -19q5 -7 5 -12q0 -7 -10 -15zM2308 499q8 -11 8 -25q0 -9 -5.5 -26t-6.5 -24q-2 -4 -7.5 -7t-14.5 -3
q-6 0 -16 2l-15 11q-94 -89 -125 -113q-41 -31 -85 -49q98 76 191 169q-19 8 -19 25q0 7 2 11q9 8 23 47q11 29 33 29zM2648 -164q-4 -14 -21 -14q-8 0 -12 2q-8 18 -8 35q0 20 11 47q8 20 22 42q0 -11 -8 -34t-8 -36q0 -14 8 -25q4 -1 7.5 3t8.5 9q5 -4 5 -9
q0 -4 -2.5 -11.5t-2.5 -8.5zM2331 159q-7 -29 -8 -32q-6 -18 -19 -27q-9 -2 -15 3.5t-8 12.5t-2 17q0 35 18 61q-6 -18 -6 -34q0 -19 11 -30q13 -3 17.5 12t11.5 17zM2642 146q7 -22 10.5 -42.5t3.5 -40.5q0 -18 -3 -37t-18 -45q-10 -16 -28.5 -25.5t-39.5 -9.5
q-72 0 -105 62q-10 17 -18 47q-11 40 -14 49q-22 -78 -35 -102q-29 -56 -81 -72q-11 -4 -22.5 -6t-24.5 -2q-49 0 -78 29q-22 22 -30.5 48.5t-8.5 60.5q0 31 8.5 83.5t9.5 58.5q-31 -34 -60 -167q-24 -111 -96 -139q-20 0 -36.5 11t-26.5 30q-24 62 -24 141q0 38 6 73t20 66
q0 -16 -2 -57.5t-2 -46.5q0 -50 12.5 -84.5t47.5 -51.5q60 22 86 88l34 124q23 75 70 106q-13 -83 -25 -165q0 -37 12 -65.5t43 -49.5q23 -10 50 -10q40 0 77 24q26 17 43 40t20 49q5 16 5 38q0 26 -8 58q-19 77 -19 91q0 22 6.5 38t24.5 33q13 -35 23 -151
q15 -171 118 -196q20 0 35.5 6.5t26.5 21.5l-88 238q-19 10 -19 27q0 8 6 21q15 32 16 36l9 14q24 -26 47.5 -51.5t39.5 -53.5q-10 -4 -16 -4q-7 0 -13 5t-13 11q4 -29 19 -75q22 -66 25 -79zM1904 791l-29 -32q-33 -11 -144 -42q-93 -26 -144 -43q-77 -25 -140 -55
q-6 13 11 27q14 10 29 20q91 32 207 66q38 11 210 59zM1882 591q-21 -26 -41 -52l-69 47q-10 -6 -21 -27t-21 -29q-22 10 -39.5 18.5t-28.5 17.5q3 19 23 45q16 21 20 26l69 -38l46 55q29 -17 42 -25q25 -16 20 -38zM1566 796q-26 -31 -86 -51q-87 -29 -100 -36
q-17 -7 -95 -34q-103 -36 -154 -72q-5 7 0 18q2 4 10 18q102 45 207 84t218 73zM1624 416q-3 -16 -5 -22q-8 -22 -24 -34q-7 0 -12 8.5t-6.5 13t-1.5 18.5q0 19 5.5 37t16.5 35q0 -9 -3.5 -27.5t-3.5 -24.5q0 -20 14 -29q4 4 9.5 13.5t10.5 11.5zM1432 506q-5 -12 -9 -24
l-21 5q-12 -56 -24 -111q-15 11 -27 42t-21 42q-11 -9 -14 -9t-10 5q-10 9 -10 19q0 8 8.5 23.5t8.5 16.5q25 -9 39 -38q11 -27 23 -53q5 25 11.5 51.5t20.5 44.5q12 -3 16 -5t9 -9zM1873 297l-27 13q-3 -12 -3 -24q0 -19 9 -47q20 -63 20 -82q0 -17 -4 -32q0 -52 -49 -96
q-33 -30 -96 -59q-32 -13 -64.5 -20.5t-63.5 -7.5q-33 0 -63 9.5t-54 29.5l-57 47q-88 -40 -122 -53q-74 -27 -131 -27q-32 0 -58 6t-55 23q-69 66 -77.5 213t-9.5 153v92q0 85 -5 147t-20 120q8 25 15.5 42.5t21.5 31.5q21 -88 23 -213.5t3 -239.5q6 -129 36 -221
q24 -45 73 -61q36 -12 97 -12q41 9 85 20t74 31q-24 32 -47 48q-30 22 -61 22q-7 -1 -18 -9.5t-16 -10.5q2 5 9 46t37 53q32 16 72.5 24.5t80.5 8.5q62 0 139 -18q56 -13 131 -38q-3 -23 -10 -42.5t-21 -33.5q-71 -8 -114 -23q-31 -11 -61 -32q49 -49 120 -49q22 0 45 6
q56 13 98 33t82 55q-7 25 -26 78q-31 86 -31 130q0 20 4 36q5 13 9 20t10 14q27 -24 44.5 -48t25.5 -53zM1166 412q-23 -50 -45 -99q14 29 24 62.5t10 64.5q0 50 -29 85l12 26q15 -20 25.5 -45.5t10.5 -50.5q0 -15 -1 -22.5t-7 -20.5zM1554 -92q-13 -24 -30.5 -43.5
t-39.5 -33.5q-42 -29 -100 -29q-27 0 -45 25q-1 4 -1 11q0 18 12 36q8 12 28 31q-16 13 -17 14q-9 9 -9 18q0 10 12 19q8 9 17 16q13 10 20 10q11 0 17 -14q-1 -6 -8 -13t-8 -11q-3 -1 -8.5 5.5t-9.5 6.5q-3 0 -6 -5l-3 -3q18 -18 37 -18q7 0 11 2q9 6 19 10q15 4 21 6
q-3 -12 -71 -50q-30 -17 -30 -33q0 -14 20 -31q15 -3 28 -3q31 0 68 16q41 21 76 61zM616 659q0 -29 -18 -50q-11 -1 -15.5 3.5t-11.5 17.5q0 30 2.5 50.5t14.5 37.5l-2 -14q-4 -21 -4 -28q0 -24 16 -39q7 1 10 11.5t8 10.5zM466 553q-8 -20 -16.5 -39.5t-21.5 -38.5
q16 31 26 64.5t10 67.5q0 43 -19 73q0 12 -15 34t-15 31q0 12 18 22q23 -51 31 -73q15 -43 15 -79q0 -33 -13 -62zM853 108q-25 -97 -133 -172q-34 -23 -197 -107q-58 -24 -121 -24q-78 0 -134 37q-40 24 -62 64.5t-22 89.5t26 111q23 51 46 103q1 2 5.5 -0.5t6.5 -5.5
l-48 -162q0 -18 5.5 -35t18.5 -33q28 -44 73.5 -64t101.5 -20q33 0 66 6q86 21 163.5 65.5t148.5 109.5q-26 17 -64.5 23t-80.5 6h-20q5 41 21 78q39 7 65 19t50 38q0 69 -15.5 158.5t-31 179.5t-15.5 160q3 4 11 27.5t19 30.5q6 -21 37 -88q24 -52 24 -92l-32 33
q-3 -23 -3 -45q0 -40 12 -102q26 -134 26 -173q0 -30 -6 -62l-26 -86l52 -22q30 -17 33 -46zM547 379l-4 -29l-31 14q-9 -17 -11 -62.5t-21 -60.5q-5 5 -26 56q-14 34 -45 34q-10 6 -10 17q0 7 3.5 17t3.5 14q4 8 11 8q4 0 9 -2.5l7 -3.5q11 -13 22 -36l30 -64q4 15 7 56
t20 61q10 0 18 -4.5t17 -14.5zM899 -73q0 -38 -16.5 -69.5t-47.5 -57.5q4 13 26 42.5t22 47.5q0 14 -10 28q-7 2 -14 -4q-2 -3 -10 -13q-2 5 0 12t12 24q6 9 17 9q8 0 14.5 -5.5t6.5 -13.5zM356 333q0 -37 -16.5 -68.5t-48.5 -50.5q-39 0 -56 36q-6 17 -9 38.5t-3 38.5
q0 51 20 107q6 18 80 165q2 -16 -8 -43q-14 -35 -16 -46l-24 -64q-15 -43 -15 -72q0 -25 8.5 -42.5t32.5 -31.5q15 -2 31 29q8 15 13 15q4 0 11 -11zM436 108q-3 -32 -8.5 -44t-18.5 -17q-13 -3 -22.5 6t-12 18.5t-2.5 21.5q0 24 9 49q4 12 12 26q-3 -15 -5 -27.5t-2 -22.5
q0 -15 3.5 -24t14.5 -17q11 0 15.5 5t10.5 26h6zM3696 176q-39 39 -50 46q-20 13 -40 13q-8 0 -12 -1q-10 -7 -13 -11q-6 -8 -4 -17q17 -17 39.5 -25t47.5 -8q17 0 32 3zM2256 678q-2 14 -12 22q-4 4 -9 4q-7 0 -12 -9q8 -6 17.5 -12t15.5 -5zM2297 449q2 10 -3 18
q-10 13 -19 27q-4 -18 -7 -36q13 -12 29 -9zM2253 467v5q0 10 -7 10q-6 0 -11 -7q3 -3 10 -5.5t8 -2.5zM1521 163q-17 7 -44.5 10t-50.5 3h-32q9 -16 23 -32q11 -13 28 -28z" />
    <glyph glyph-name="five" unicode="5" horiz-adv-x="2829" 
d="M2647 788q-13 -13 -31 -24q-13 -8 -33.5 -17t-38.5 -16q-18 -9 -35 -22q4 19 20.5 34t40.5 26t45 16t32 3zM2665 645q-5 -32 -8 -49q-6 -31 -16 -50q-28 0 -77.5 -12.5t-65.5 -14.5q-2 25 6 51q4 13 21 48q64 13 129 27h11zM2141 770q-12 -22 -29.5 -37.5t-41.5 -29.5
q-44 -25 -88 -49q8 21 28 38q15 13 42 27q44 25 89 51zM2701 244q0 -58 -4.5 -104.5t-19.5 -93.5t-41 -78q-31 -36 -79 -50q-9 -3 -18 -3q-13 0 -23.5 4.5t-42.5 25.5q-53 75 -73 216q-29 203 -37 232l-74 -47q6 -56 8.5 -94.5t2.5 -85.5q0 -56 -7 -102q-12 -76 -41 -127
q-34 -59 -96 -97q-16 -5 -39.5 -10t-40.5 -5t-24.5 1.5t-21.5 7.5q-52 26 -84 76.5t-39 109.5q0 94 23 157q30 81 100 121q16 13 52.5 24.5t49.5 20.5q-6 52 -8.5 92t-2.5 87q0 45 4 89.5t13 83.5q58 -64 95 -148q32 -73 51 -168q22 -2 49 17q19 15 27 21l-3 93l30 85
q12 -57 19 -135t15.5 -156t23.5 -132q20 -69 56 -125q11 -10 25 -14.5t30 -4.5q9 0 14 1q31 8 57 34t38 58q2 12 2 17q0 28 -20 55q-5 -2 -15 -14.5t-15.5 -14.5t-13.5 -2q-35 0 -46 27q0 60 9 94q13 51 49 75q42 -7 66 -61q14 -38 20 -53zM1462 585q8 -9 8 -21
q0 -11 -4 -21q-13 -33 -13 -35q-16 0 -50 -17q-18 -9 -30 -9q-7 0 -11 1q-11 8 -11 22q0 10 5.5 22.5t10.5 24.5l2 3q-1 -10 -1 -18q0 -14 10 -18q25 0 33.5 30t14.5 36l3 -44q8 -3 12 -3q10 0 12.5 21t8.5 26zM1817 378q4 -18 6 -41.5t2 -45.5q0 -61 -12 -116.5
t-37.5 -125.5t-73.5 -113q-41 -37 -103 -58t-123.5 -26t-154.5 -5q77 16 151 46q80 33 144 79q70 51 116 114q50 69 65 149q0 77 -29 154q-25 67 -73 133q0 -37 3.5 -115.5t3.5 -107.5q0 -78 -12 -133q-14 102 -21 212.5t-7 221.5q0 1 3 34t16 45q52 -65 86.5 -141
t49.5 -160zM1109 664q-7 -52 -27 -97q-27 0 -62 -10.5t-67 -19.5q8 35 16 71q14 40 51 40q44 8 89 16zM1308 384q-12 -43 -48 -80t-82 -60q43 49 87 99q-14 9 -21 13q-13 9 -15 20q6 27 25 46t46 22q15 -8 15 -31q0 -15 -7 -29zM983 720q-8 -20 -25 -35q-12 -11 -39 -25
q-21 -11 -43 -23t-37 -28h-6q5 22 20.5 37t41.5 28zM1603 203q0 -49 -9.5 -95t-27.5 -91q-13 -21 -28 -34.5t-35 -16.5q-26 0 -47 14t-35 40q-5 12 -9 24q-7 -57 -20 -85q-20 -45 -63 -57q-8 -3 -16 -3t-16 2.5t-32 13.5q-11 8 -23.5 31.5t-25.5 29.5q-37 -6 -63.5 -35.5
t-37.5 -67.5q-3 14 -3 28q0 74 51 131q20 21 42.5 32.5t47.5 9.5q10 -28 16 -38q12 -21 31 -29q4 -1 7 -1h4q16 0 29 6.5t29 19.5q11 17 16.5 38t5.5 42q0 20 -2.5 37.5t-8.5 46.5t-8.5 47.5t-2.5 41.5t4 42t16 40h7q6 -25 10.5 -82t12 -96.5t24.5 -66.5q22 -34 64 -48
q27 7 46 31t22 52q0 27 -12 53q-7 14 -27 45q-4 -11 -6.5 -43.5t-11.5 -45.5q-2 10 -3 23t-1 24q0 30 5 57.5t26 105.5q29 -33 43.5 -78.5t14.5 -94.5zM1115 227q-5 -50 -21.5 -95.5t-44.5 -87.5q-21 -21 -42 -32t-45 -11q-12 0 -29 5q-25 -44 -57 -70q-38 -31 -80 -31
q-11 0 -16 1q-40 12 -63 53q-18 32 -26 82q-12 68 -23 178q-4 40 -13.5 164t-19.5 199q10 28 14 42q9 25 22 35q10 -62 16.5 -144.5t12.5 -159.5q0 -77 12 -146.5t37 -149.5q18 -25 33 -36q21 -15 46 -12q31 4 57.5 23.5t47.5 50.5q-19 24 -26 30q-17 15 -35 15q10 41 20 83
q11 25 35 31q8 0 26.5 2t19.5 2q12 0 21 -3.5t16 -12.5q0 -18 -20 -77q-10 -29 -10 -49q29 -4 56 14.5t46 48.5q0 27 -8.5 63t-16.5 69q-2 9 -3 17t-1 19q0 26 8.5 46t29.5 40q27 -68 27 -144q0 -26 -3 -52zM285 582q-8 -19 -15 -37q-9 -19 -28 -44q7 15 9.5 37.5t2.5 29.5
q0 14 -1.5 34t-2.5 45q0 18 3 34t12 28q11 -29 17 -51.5t6 -45.5q0 -15 -3 -30zM569 199q0 -90 -8 -139t-24 -88q-22 -57 -57 -96q-39 -43 -97 -66q-26 -10 -52 -10q-38 0 -77 20q-30 15 -68 47q-29 38 -43.5 85.5t-14.5 100.5q0 42 9 86t38 91q13 21 62 85q38 47 58 82
q25 42 38 90q0 -32 -19 -72q-5 -10 -39 -71q-42 -74 -84 -147q-15 -33 -22.5 -60t-7.5 -56v-13q2 -9 2 -13q6 -37 30.5 -68.5t73.5 -59.5q34 -20 74 -20q33 0 63 14q56 33 91 79q41 53 41 106q-11 11 -75 31q-48 15 -48 54q0 4 2 18q0 56 43.5 155t43.5 149q0 23 -5 45.5
t-18 46.5q-4 8 -8 18.5t-6.5 18.5t-7 16t-11.5 13q-16 -127 -31 -254q-5 19 -7 41.5t-2 46.5q0 38 2 69q7 109 7 119q9 40 19 81q9 24 26 26q32 -40 51 -90t25 -105q3 -27 3 -54q0 -44 -7 -80.5t-25 -73.5q-3 -13 -18 -41t-21 -43.5t-6 -30.5q0 -28 26 -47q24 -3 48 -5
q26 -6 33 -31zM2243 363q-17 56 -40 106t-56 92q0 -41 0.5 -90t8.5 -125zM2252 327l-87 -23q-4 -11 -4 -28q1 -17 1 -25q0 -20 -6 -31q-16 7 -18 30t-3 45q-59 -8 -117 -48q-74 -51 -84 -120q0 -56 26 -103.5t72 -81.5q21 -7 45 -7q33 0 64 14.5t57 40.5q39 43 60 99t21 117
q0 68 -27 121zM1288 376v12q4 17 -8 17q-11 0 -22 -8q3 -7 18 -13q7 -3 12 -8z" />
    <glyph glyph-name="six" unicode="6" horiz-adv-x="2679" 
d="M2557 754q-1 -10 -5 -17t-13 -10l-251 -101q-1 12 11 22q11 7 22 15zM2542 555l-38 -66q-13 2 -31 12t-34 19q4 17 15 35.5t25 34.5zM2427 520q-5 -12 -17 -30q-17 -26 -19 -29q-18 0 -37 8q-24 12 -35 17q0 22 18 47q10 13 20 27q28 -9 41 -15q24 -11 29 -25zM2286 388
q-9 -25 -15.5 -37t-15.5 -17q19 26 19 65q0 21 -9 63.5t-10 50.5l10 12q26 -41 26 -94q0 -20 -5 -43zM2551 123q-7 -63 -56 -111q-42 -41 -108 -66q-32 -10 -66 -10q-23 0 -42 5.5t-33 18.5q-54 71 -60.5 197.5t-11.5 242.5q-14 145 -36 284q14 33 22.5 48t20.5 22
q19 -184 20 -197q11 -119 16.5 -209t5.5 -193q6 -44 17 -71q16 -36 48 -55q26 -11 58 -11q40 0 87 22q31 15 78 48q-11 24 -29.5 32t-48.5 8q-13 0 -23.5 -0.5t-18.5 -0.5q-41 0 -58.5 12t-27.5 35q-3 14 -3 28q0 37 21 74q18 31 49 60q12 4 26 4q23 0 43.5 -11.5
t39.5 -32.5q34 -42 50 -74q21 -42 21 -84q-1 -10 -1 -15zM1844 672q-13 -44 -40 -73q-4 1 -43 26q-16 10 -28 10q-5 -21 -15 -30t-25 -9q-13 0 -27 5.5t-31 15.5q3 14 9 27q3 6 27 43q4 1 13 1q33 0 58 -25l50 49q23 -15 36.5 -24t15.5 -16zM1940 268q-3 -19 -9 -33.5
t-19 -22.5q-8 2 -14 10t-8 15.5t-2 11.5v6q0 14 4.5 26t14.5 25q-1 -5 -3 -14t-2 -16q0 -20 13 -28q9 -5 13.5 7.5t11.5 12.5zM1767 800q-1 -10 -8 -16t-30 -18l-618 -215l-69 -34q2 12 12 24.5t23 18.5q341 131 690 240zM1559 494q7 -33 -23 -54q-10 -2 -18 6q-3 4 -12 17
q0 33 21 76q10 21 21 43q0 -10 -14 -39t-14 -43q0 -21 23 -30q5 2 8 12t8 12zM1220 699q-3 -30 -20 -50q-13 -5 -21.5 3.5t-11.5 22.5q6 29 8 38q6 20 15 34q0 -6 -4.5 -21.5t-4.5 -21.5q0 -16 12 -24q10 -5 13.5 3t7.5 16h6zM1344 503l-10 -23q-4 0 -12 4.5t-14 1.5
q-6 -34 -9 -50q-6 -30 -19 -45l-37 78q-4 -6 -12 -6q-6 0 -11 3q-4 5 -4 13q0 7 5.5 17.5t10.5 20.5q19 -9 32 -36q10 -23 21 -46q6 30 10.5 50t19.5 32q18 0 29 -14zM2027 316q8 -62 8 -116q0 -53 -9.5 -102t-30.5 -96q-84 -72 -99 -84q-57 -45 -108 -71
q-38 -19 -72.5 -28.5t-72.5 -9.5q-49 0 -97 19q-29 21 -46 43q-20 26 -25 55q-10 26 -10 54t9 54.5t26 53.5l-27 30q-98 -62 -175 -94q-103 -43 -193 -43q-69 0 -129.5 24.5t-88.5 86.5q-23 51 -23 122q-24 240 -47 480q13 35 33 67q23 -76 30 -205q4 -108 9 -216
q10 -122 43 -204q33 -37 82.5 -55t106.5 -18q45 0 85.5 8.5t80.5 25.5q74 28 140 70q-32 40 -54 58q-34 28 -69 28q-9 0 -13 -1l-25 -19q0 36 8 58q12 34 42.5 45t60 15t66.5 4q66 0 147 -17q22 -5 141 -35q0 -15 -10 -38q-13 -29 -15 -39q-53 -4 -93 -19.5t-60 -48.5
q36 -20 77 -20q47 0 100 27q42 22 86 61q-8 24 -27 71q-33 81 -33 124q0 16 3 33q5 15 9 24t11 18q26 -33 37 -50q22 -31 24 -55h-26q16 -31 24.5 -64t8.5 -70q0 -34 -9.5 -64t-29.5 -54q-51 -40 -88 -59q-53 -27 -102 -27q-23 0 -49 6l-45 19q-9 -14 -12.5 -30.5
t-3.5 -40.5q6 -37 30 -67t59 -43q30 -6 58 -6q63 0 129 28q53 22 116 69q40 29 107 88q0 95 -16 209.5t-32 233t-16 205.5q11 23 17.5 34.5t13.5 18.5q29 -66 33 -78q16 -44 16 -82l-26 36l-10 -13q0 -72 21 -201q16 -99 19 -123zM991 610l-12 -28q8 26 8 54q0 66 -36 111
l9 30q20 -19 30.5 -47t10.5 -61q0 -29 -10 -59zM1076 318l-8 -30q-6 -16 -19 -24q-10 -1 -19.5 6.5t-10.5 16.5q-2 25 6 48q4 10 20 42q0 -7 -6 -26t-6 -29q0 -18 15 -28q12 -3 16.5 10.5t11.5 13.5zM1461 -132q-36 -65 -105 -65q-20 0 -35 6.5t-22 23.5q0 18 11.5 35
t23.5 32q-1 1 -11 7.5t-13 13.5q2 17 17 33t33 22q5 -3 11 -6.5t5 -9.5q-5 -15 -16 -23l-8 8q-6 6 -10 6q-3 0 -8 -5l-2 -2q4 -10 15 -15.5t22 -5.5l42 14q-3 -12 -61 -46q-27 -16 -27 -29q0 -14 23 -29q14 -2 20 -2q25 0 50 11q11 5 45 26zM531 675l-4 -30q-4 -16 -15 -24
q-14 0 -25 3.5t-15 12.5q-2 14 -2 22q0 33 13 65q10 24 31 53q-11 -27 -16 -42q-11 -29 -11 -45q0 -24 20 -38q10 -3 13.5 9.5t10.5 13.5zM318 522q15 43 15 88q0 33 -8.5 64t-25.5 55q1 6 4 12.5t8 12.5q19 -22 28 -51.5t9 -61.5q0 -31 -8 -61.5t-22 -57.5zM424 431
q-9 -15 -13 -52t-12 -54q-11 6 -24.5 45.5t-44.5 36.5q-8 7 -8 16q0 6 2.5 16.5t2.5 12.5q3 12 17 12q7 0 12 -5q9 -14 21 -43.5t18 -41.5q5 9 10.5 44.5t28.5 47.5q13 -6 18 -9.5t5 -11.5q0 -6 -4 -11t-10 -5q-2 0 -9 2t-10 0zM791 146q1 -5 1 -10v-10q0 -68 -57 -129
q-21 -22 -204 -143q-50 -24 -103 -39t-104 -15q-34 0 -61.5 6t-57.5 22q-42 27 -62.5 68.5t-20.5 91.5q0 47 23 102q19 45 46 79q-16 -71 -32 -141q0 -22 6 -40.5t22 -36.5q23 -36 59.5 -51t82.5 -15q28 0 51.5 3t60.5 12q168 49 306 181q-31 22 -71.5 29.5t-95.5 7.5
q4 41 21 80q29 8 46 16q25 11 41 29q-25 232 -85 463q7 19 14 39q10 22 23 32q9 -21 36 -63q43 -68 43 -112l-39 38l-7 -12q0 -46 13 -104.5t26 -113.5q4 -22 7 -50.5t3 -51.5q0 -61 -20 -115q33 -11 49 -17q28 -11 40 -30zM817 -84q1 -4 1 -11q0 -13 -6.5 -25t-15.5 -23
q-14 -2 -22.5 6.5t-10 18t-1.5 20.5q0 29 13 58q7 17 30 52q-11 -26 -17 -40q-11 -27 -11 -46q0 -11 3.5 -20.5t12.5 -17.5q10 -1 14.5 12t9.5 16zM285 569q-5 -14 -53 -101q-38 -68 -38 -111q0 -21 8 -41.5t27 -39.5q15 -2 26 22q6 14 16 15q0 -37 -10 -68.5t-32 -53.5
q-4 -1 -12 -1q-22 0 -33 15q-25 43 -25 94q0 64 44 157q21 42 42 85q9 -3 20.5 12t19.5 16zM402 143q-4 -24 -7 -33q-7 -20 -23 -29q-17 -5 -25 16q0 28 10 58q4 11 22 55q0 -9 -5 -24q-12 -36 -12 -46q0 -20 17 -29q7 4 12 16.5t11 15.5zM2450 207q-10 16 -26 28
q-9 7 -33 20q-10 4 -20 4q-19 0 -22 -15q12 -21 34.5 -29.5t48.5 -8.5q12 0 18 1zM1566 255l-102 14q-15 0 -22 -1l52 -61q17 12 36 25.5t36 22.5z" />
    <glyph glyph-name="seven" unicode="7" horiz-adv-x="2551" 
d="M2431 701q-11 -25 -39 -43q-15 -10 -32 -18q-31 -13 -46 -19q-28 -12 -44 -22q9 19 28 34q15 11 42 24q24 10 35 15q37 16 56 29zM2425 549q2 -20 -5.5 -45.5t-14.5 -48.5l-123 -32q0 46 21 91q26 13 74 24q30 7 48 11zM1958 800q-12 -17 -27.5 -28.5t-35.5 -20.5
t-39.5 -18t-35.5 -21q6 19 20.5 31.5t38.5 24.5q14 7 41 17t38 15zM2429 236q6 -41 6 -82q0 -79 -23 -137q-27 -68 -86 -108q-13 -4 -32 -4q-22 0 -41 10q-50 59 -78 152q-15 49 -34 165.5t-40 176.5q-28 -15 -38.5 -34t-10.5 -45q0 -17 5 -42q12 -59 12 -76q0 -9 -1 -14
q0 -135 -28 -218q-37 -110 -131 -162q-20 -6 -39 -6q-25 0 -50.5 8.5t-54.5 23.5q-54 44 -84 96q-33 57 -33 118q0 17 3 35q12 63 29 99q24 50 68 79q26 17 63 32q8 3 68 24q0 37 -8 118t-8 121q0 35 4.5 65t14.5 58q53 -67 95 -150q37 -74 66 -163q31 20 58 50q0 31 8.5 60
t26.5 44q13 -54 32.5 -167.5t31.5 -164.5q21 -90 53 -158q23 -29 61 -29q9 0 20 3q21 16 42 33q23 22 23 46q-5 36 -7 40q-5 12 -16 16q-4 -4 -12.5 -18t-16.5 -18q-3 -1 -6.5 -1h-4.5q-17 0 -28.5 10.5t-16.5 26.5q0 47 14.5 89t47.5 69q4 1 12 1q22 0 39 -27
q12 -23 25 -45zM1628 634q-5 -26 -11 -48.5t-16 -42.5q-32 -5 -68 -14q-12 -3 -66 -19q-3 21 7 44.5t20 46.5q25 16 69 23t65 10zM1237 519q4 -13 -7.5 -27.5t-27.5 -18.5q-94 -50 -187 -99q12 29 36.5 49.5t58.5 36.5q63 29 127 59zM1601 -119q-22 -32 -64 -47
q-35 -12 -82 -12q-11 0 -21.5 5.5t-13.5 16.5q0 24 19 52l20 28l-34 17q13 48 57 73q7 2 16 -2t10 -15q-5 -8 -9.5 -14.5t-10.5 -12.5q-3 -1 -12.5 5t-13.5 -2l-3 -3q12 -9 22.5 -12.5t26.5 -1.5q20 17 41 17q-4 -11 -66 -56q-28 -20 -28 -36q0 -12 12 -24q12 -3 25 -3
q22 0 56 11q44 14 53 16zM1608 441q18 -26 27.5 -59t9.5 -66q0 -42 -11.5 -80.5t-34.5 -74.5q-34 -36 -52 -50q-32 -25 -62 -25q-11 0 -26 5q-60 -67 -131 -119.5t-147 -83.5q-59 -25 -115 -38.5t-116 -13.5q-49 0 -99 12q-72 18 -116 69q-38 45 -56.5 110.5t-32.5 153.5
q-8 52 -20 154.5t-19 143.5t-7 71q0 33 7.5 56.5t28.5 47.5q10 -58 21.5 -177t15.5 -150q13 -97 29 -159q21 -81 59 -148q38 -42 93.5 -62t119.5 -20q45 0 91 9.5t89 25.5q78 27 147 69.5t128 103.5q-2 17 -30 23t-28 19q0 5 5 17q15 39 22 58q14 36 42 44q16 2 24 2
q24 0 42 -12q4 -9 4 -21q0 -9 -6 -30t-6 -32q0 -16 8 -28q62 16 98 68q-3 6 -7.5 32.5t-16.5 34.5q-5 -5 -7 -7.5t-7 -3.5q-2 16 -2 24q0 33 12.5 64t31.5 43zM186 651q16 -16 23 -34.5t7 -40.5q0 -35 -21 -91l-20 -50q8 35 12 54q8 37 8 59q0 21 -5 39t-19 34zM511 170v-50
q0 -47 -2.5 -80.5t-11.5 -65.5q-13 -47 -37 -84q-27 -41 -70 -68q-34 -22 -78 -22q-60 0 -107.5 36.5t-68 90.5t-20.5 121q0 38 6 77q9 48 44 101q9 14 40 55q36 45 52 72q25 41 32 79q0 -28 -12 -58q-8 -19 -28 -56l-67 -108q-22 -35 -30 -55q-13 -30 -13 -57q-1 -6 -1 -18
q0 -27 9 -51.5t32 -51.5q29 -35 63 -54t74 -19h12q8 2 12 2q52 16 94.5 61.5t52.5 98.5q-6 26 -62 38.5t-56 58.5q0 45 13 88q9 30 33.5 80.5t32.5 77.5t8 52v20q-3 10 -4 14q-11 59 -52 97q-4 -13 -6 -39t-2 -47v-41q0 -40 -2.5 -60.5t-14.5 -33.5q0 56 -1 91t-2 66
q0 60 5.5 106t22.5 84q47 -38 70 -96q20 -51 20 -119q0 -29 -4 -61.5t-14 -59.5q-6 -16 -25 -54l-24 -48q-12 -27 -17 -53q11 -18 54.5 -23t49.5 -34zM1995 361q-14 49 -42 99q-22 40 -59 89l20 -210q29 6 43 8q26 5 38 14zM2019 60q12 22 18 48t6 53q0 42 -8.5 78.5
t-26.5 81.5q-14 -7 -31.5 -13t-33.5 -11q-17 -3 -23.5 -13t-6.5 -24q0 -10 1 -20l2 -20q0 -11 -2.5 -19t-9.5 -15q-12 11 -15.5 38.5t-6.5 52.5q-74 -20 -106 -36q-55 -28 -84 -78q-3 -10 -4 -27t-1 -19q0 -45 19 -86q31 -46 67 -74q44 -34 90 -34q11 0 16 1q46 8 86 51
q32 35 54 85z" />
    <glyph glyph-name="eight" unicode="8" horiz-adv-x="4048" 
d="M3864 766q-2 -21 -26 -31l-40 -14q-65 -19 -97 -28q-108 -31 -163 -44q2 10 9.5 20.5t18.5 13.5q53 13 150 41q119 34 148 42zM3798 535l-38 -57l-80 32l-45 -42l-63 22q0 14 12 32t24 35q14 0 38 -11.5t35 -11.5q5 0 13 3l35 40zM3807 151q14 -29 14 -63
q0 -33 -13.5 -66t-34.5 -62q-39 -40 -87.5 -64t-98.5 -24q-29 0 -59 9q-44 20 -63 73q-6 18 -20 100q-14 160 -27 321q-16 174 -39 318q7 17 15.5 35.5t21.5 28.5q15 -91 26 -246q8 -125 18.5 -259t31.5 -236q14 -29 40.5 -48t57.5 -19q54 0 102 21.5t88 60.5
q4 14 -3.5 28.5t-23.5 16.5q-12 0 -40 -2t-44 -2q-39 0 -62 9q-31 12 -46 42q0 51 20 96t60 69q5 1 14 1q50 0 93 -48q29 -32 59 -90zM3533 442q13 -16 19 -37t6 -43q0 -54 -26 -98q3 14 6 35.5t3 38.5q0 24 -5 44t-19 36zM3141 763q5 -9 -6 -20q-2 -2 -12 -9l-224 -81
q-1 5 3 11q12 18 12 19zM3115 591l-7 -24q-5 -3 -15.5 3t-13.5 6q-6 0 -10 -9q-5 -30 -8 -51t-10 -35q-16 29 -24 43q-15 26 -31 39l-4 -10q-7 2 -12 4t-6 7q2 17 5 26t11 15q25 -11 43 -43l18 -34q6 29 11.5 48t22.5 29q8 0 15.5 -3.5t14.5 -10.5zM2897 757
q-21 -20 -57 -35l-114 -42l-135 -50l15 28q12 4 108 40q117 43 183 59zM2811 560q0 -25 -2 -34.5t-16 -15.5q-13 2 -23 25q-1 6 -1 16q0 25 11 56q5 15 13 32q3 -12 -3.5 -34.5t-6.5 -31.5q0 -16 10 -27q5 1 8 8.5t10 5.5zM2546 732q7 -13 7 -29q0 -10 -2 -19.5t-7 -25.5
q-12 4 -25 -2q-35 -16 -38 -16q-2 0 -10 2q-13 11 -13 30q0 5 2 13q2 2 7.5 15.5t12.5 16.5q0 -4 -3.5 -15t-3.5 -17t3 -11.5t10 -5.5t12 3q10 8 10 25q0 23 9 29q4 -4 4 -13q-2 -14 -2 -20q0 -13 18 -9q1 6 0.5 13.5t-0.5 14.5q0 15 9 21zM2584 800q-6 -10 -13 -20t-18 -10
q-142 -44 -283 -87q3 10 13 20t21 14q93 27 140 40q88 25 140 43zM3278 304q6 -45 8.5 -71.5t2.5 -58.5q0 -53 -10.5 -102.5t-34.5 -97.5q-75 -73 -137 -109q-81 -47 -163 -47q-28 0 -58 6q-33 15 -60 43.5t-33 60.5q0 42 4.5 73t18.5 62q-149 -40 -233 -70
q-71 -26 -134 -58q-27 -15 -87 -61q-96 -74 -153 -74q-17 0 -31 3t-30 12q-21 15 -27 37.5t-6 55.5v14q17 55 44.5 104.5t65.5 92.5q-6 -15 -50 -91q-34 -58 -34 -96q0 -17 4.5 -31t14.5 -30q9 -10 22.5 -15.5t29.5 -8.5q35 13 74 36q28 17 115 81q55 41 93 63q50 28 102 42
q25 6 50 13q45 13 82 32q-42 35 -65 73q-26 43 -26 89v11q2 8 2 12q28 66 91.5 104.5t139.5 38.5q92 0 148 -61q-43 13 -89 13q-63 0 -133 -23q-52 -17 -121 -53q12 -53 48 -96q40 -48 90 -56q66 0 132 24q73 27 190 107q0 -20 -7 -44q-3 -11 -16 -44q-41 -27 -103 -57
l-178 -86q0 -11 -2.5 -34.5t-2.5 -29.5q0 -16 4.5 -29.5t15.5 -23.5q21 -30 50.5 -42.5t67.5 -12.5q27 0 47 4q69 15 132 53t119 96l-2 121l-77 530q-7 11 -7 25q0 16 10 36q5 9 19 30q4 -10 29 -66q32 -72 32 -113q-6 4 -14.5 16t-16.5 16q0 -70 14.5 -161.5t28.5 -176.5z
M2571 459q-19 -29 -38 -57l-64 36q6 18 15.5 33t23.5 33q28 -10 39 -17q21 -13 24 -28zM2222 594q2 -7 -1.5 -15.5t-3.5 -11.5q-10 6 -19 9.5t-17 1.5q-14 -56 -27 -111q-9 8 -19 27q-26 48 -29 52q-1 -8 -7 -8l-20 8q-5 6 -5 15q0 8 4 15.5t8 14.5q23 -3 36 -23
q17 -34 34 -67q5 28 11.5 58t20.5 51q6 -1 16.5 -3.5t17.5 -12.5zM2788 -126q-17 -23 -48.5 -34.5t-66.5 -11.5h-13q-7 0 -21 2q-8 6 -11 8q-6 5 -5 11q-4 13 14.5 32.5t18.5 27.5q0 9 -17 19q1 13 14.5 26.5t28.5 21.5q21 4 21 -11q1 -7 -3 -13.5t-11 -7.5q-10 1 -13.5 1
t-2.5 -5q6 -9 17 -9q8 0 22 5.5t15 5.5q3 0 3 -4.5t-4 -13.5q-5 -4 -43 -25q-27 -15 -37 -35q18 -13 47 -13q25 0 55 10t40 13zM2004 750q-6 -29 -29 -59.5t-55 -53.5q-19 0 -53.5 -12.5t-49.5 -12.5q63 36 126 73q-17 3 -40 5.5t-32 2.5q-28 0 -48.5 -5.5t-39.5 -21.5
q6 30 24.5 56.5t45 31.5t56.5 5t46.5 -1.5t48.5 -7.5zM2342 47q2 2 3.5 3t2.5 2q-46 -39 -69 -58q-71 -59 -81 -59q1 5 2 9q18 29 66 56q61 34 76 47zM1873 350q-11 -29 -17 -42q-11 -24 -30 -24q-23 12 -34 17q-22 11 -31 19q3 17 14 36q6 11 24 35q6 -5 47 -23
q17 -7 27 -18zM1719 497l-2 -23q-6 2 -16 2q-13 0 -20 2q-15 -50 -30 -99q-18 39 -28 58t-22 33q-2 -2 -1.5 -7.5t0.5 -8.5q-8 -2 -13.5 0.5t-14.5 15.5q-3 31 13 46q23 -9 36 -29q17 -35 35 -69q8 45 14.5 67t21.5 31q9 0 17 -5t10 -14zM1527 766q-15 -30 -65 -47
q-43 -14 -85 -28q-98 -36 -195 -71q-1 7 6.5 16.5t14.5 18.5q162 55 324 111zM2336 372q21 -25 21 -61q0 -23 -8 -50t-16 -52q-27 -35 -69 -53t-90 -18h-16q-7 1 -10 1q-16 -67 -26 -98q-19 -56 -61 -79q-57 -44 -104 -72q-56 -34 -115 -54q-34 -12 -72 -20t-75 -8
q-27 0 -53 4t-52 14q-51 18 -89 57q-44 45 -44 93q-1 9 -1.5 18.5t-0.5 15.5q0 63 33 145l34 82q-17 -49 -25 -78q-13 -50 -13 -88q0 -36 11 -65.5t36 -52.5q32 -32 78 -48t96 -16q48 0 97.5 11.5t93.5 30.5q63 30 111 61q54 35 103 81q-16 68 -31 136q3 5 9 25t15 27
q4 -18 13.5 -29.5t27 -15t36.5 -3.5q24 0 37 6q7 49 14 99q15 54 60 74q12 1 22.5 -4t22.5 -16zM1413 519q-13 -24 -20 -36q-13 -22 -27 -29q-12 12 -28.5 20.5t-32.5 17.5q5 16 17.5 32t25.5 32q22 -8 25 -9q23 -10 40 -28zM1719 58q-12 -17 -33 -14q-15 19 -15 44
q0 23 12 52q16 33 22 46q3 -16 -7.5 -44t-10.5 -38q0 -17 16 -28l16 27q7 -6 7 -16q0 -7 -1 -11q-5 -13 -6 -18zM1298 506q-18 -40 -19 -41q-14 -23 -34 -23q-4 2 -24 17q-15 11 -27 13q4 18 20.5 39.5t19.5 25.5q19 -2 41 -16q11 -8 23 -15zM1140 413q-8 -5 -9 -5
q3 16 5 32t2 33q0 28 -6.5 51.5t-21.5 42.5q2 3 3.5 13t10.5 10q15 -18 21.5 -41.5t6.5 -53.5q0 -43 -12 -82zM1371 202q14 -18 21.5 -40t7.5 -45q0 -32 -11 -71q-3 -11 -23 -68q-76 -68 -121.5 -90.5t-87.5 -22.5h-12q-8 2 -12 2q-75 52 -85 195l-8 138q0 74 -12 187
q-26 244 -26 309q11 20 16 30q10 18 20 26q19 -172 28.5 -327t9.5 -318q9 -44 18 -87q15 -48 53 -71q16 -5 38 -5q44 0 96 33q14 9 87 65q0 11 -11 17q-19 10 -21 12q-47 2 -93 5q-56 7 -79 45q0 52 21 98.5t63 70.5q37 5 73 -25q27 -22 50 -63zM972 567q-11 -30 -47 -54
q-55 -35 -109 -69q-1 10 8.5 23t18.5 25q-15 8 -24 15q-15 13 -17 26q11 32 28 54q22 28 49 37q10 2 19 -1t17 -18q-8 -20 -12 -27t-15 -21q-7 21 -30 21q-10 0 -17 -7q-4 -4 7 -15q18 -15 45 -15q25 0 48 10q5 5 13.5 9t17.5 7zM571 311q-3 -10 -12 -14q-30 -4 -34 23
q-1 11 -1 17q0 29 7.5 59t20.5 55q2 -12 -2 -30q-10 -50 -10 -54q0 -13 3 -22t13 -16l13 27q7 -6 7 -21q0 -14 -5 -24zM930 112q-21 -26 -54 -39q-24 -9 -65 -14q-21 0 -38.5 10.5t-28.5 28.5q-24 -50 -40 -74q-28 -41 -63 -64q-68 -49 -128 -75q-75 -33 -142 -33
q-49 0 -96 19q-43 20 -67 61t-24 87q7 61 21.5 108t44.5 84q-16 -33 -25 -66t-9 -67q0 -45 21 -79q24 -35 64.5 -51t88.5 -16q23 0 46 3q77 12 152 57q62 37 133 104q-6 61 -20.5 195t-22.5 193q-11 85 -28 193q8 25 12 37q8 23 20 32q13 -67 27 -186q11 -95 24.5 -196.5
t30.5 -178.5l18 -26q13 -15 28 -15q38 0 55 4q28 7 43 27q-5 11 -13 34t-10 37l20 68q19 -31 29.5 -64.5t10.5 -69.5q0 -19 -3.5 -35.5t-11.5 -32.5zM465 718q2 -12 2 -14q0 -13 -13 -13q-16 2 -23 2q-10 0 -15 -5t-5 -20q3 -12 -3.5 -39.5t-6.5 -36.5q0 -14 7.5 -23.5
t27.5 -12.5q9 -9 14.5 -16t5.5 -16q0 -6 -5 -16q-14 3 -28 3q-52 0 -81 -35q0 -33 11 -76t21 -82q6 -28 8.5 -45.5t2.5 -39.5q0 -39 -13 -78q4 20 4.5 29t0.5 14q0 28 -6 58q-2 12 -26 98q-10 33 -14 53.5t-4 42.5q0 40 23 62l59 27q-6 7 -15 7q-7 0 -13.5 -2.5t-12.5 -4.5
q-7 -5 -10 -4q0 15 9.5 26t24.5 14q-14 29 -20 43q-12 27 -25 42q0 -5 -6 -5q-8 2 -10 3q-8 4 -12 5q-9 4 -13 10q3 24 4 31.5t10 16.5q29 -11 51 -53q10 -21 21 -42l15 60q11 38 35 38q9 0 23 -6zM961 -31q2 -5 -1 -11.5t-17 -17.5l-211 -88q-2 5 0 10.5t12 15.5
q36 16 104 45.5t113 45.5zM3719 157q-26 37 -68 50q-17 3 -26 3q-16 0 -21 -12q-5 -9 2.5 -17.5t15.5 -16.5q10 -5 28 -8t33 -3q21 0 36 4zM2323 268q-8 19 -19 29q-14 14 -32 14q-24 -8 -31 -36q-3 -36 -5 -52q25 3 45 14t42 31zM1316 152q-20 26 -38 40q-25 19 -55 19
q-5 0 -9.5 -6.5t-6.5 -15.5q14 -23 42.5 -30t66.5 -7z" />
    <glyph glyph-name="nine" unicode="9" horiz-adv-x="3617" 
d="M3423 741q-11 -17 -31 -31q-15 -11 -39 -22q-46 -19 -49 -21q-14 -7 -29 -19q8 20 24 34t40 25zM3432 598l-26 -89q-65 -13 -129 -25q-2 10 -2 16q0 18 10.5 38.5t21.5 39.5q12 2 57 11t68 9zM2904 800q-12 -17 -29 -31q-13 -10 -38 -23l-80 -38q9 18 26 32t39 24z
M3451 216v-23v-20q0 -54 -3.5 -80.5t-12.5 -52.5q-15 -44 -39 -75q-28 -35 -70 -53q-9 -4 -22 -4q-15 0 -32.5 7t-35.5 17q-35 38 -54.5 94.5t-30.5 129.5l-30 270q-15 -16 -39 -28q-62 -30 -71 -38q3 -34 5 -70t2 -71q0 -74 -11 -133q-15 -73 -43 -123q-33 -60 -89 -98
q-15 -10 -32 -14.5t-38 -4.5q-27 0 -53 7.5t-48 22.5q-58 38 -88.5 99t-30.5 134q0 21 3 44q17 58 44 99q34 51 83 72q24 13 70 24t63 18q-6 55 -10 97.5t-4 81.5q0 40 5.5 77t16.5 69q56 -48 93 -134q16 -37 54 -158l62 16q36 11 56 32q0 31 8 57.5t23 46.5
q5 -40 11.5 -128t13.5 -151.5t19.5 -120t36.5 -98.5q17 -19 35.5 -30t39.5 -11q15 0 29 7q23 11 45 33.5t39 47.5q1 4 1 12q0 29 -24 44q-6 -10 -13 -20.5t-18 -10.5q-5 -1 -15 -1q-18 0 -32 7.5t-19 24.5q0 61 6 87q11 47 46 70q34 0 63 -34q22 -25 35 -63zM2564 761
q-14 -20 -36 -35q-16 -11 -43 -23q-31 -12 -46 -18q-23 -10 -44 -23q10 22 31 37q15 11 44 23q33 12 49 18q29 11 45 21zM2204 719q9 -8 9 -20q0 -8 -4.5 -22.5t-5.5 -19.5q-22 -10 -32 -14q-19 -8 -32 -8t-27 9q-1 3 -1 6.5v4.5q0 29 19 42q-1 -11 -1 -16q0 -8 6 -14
q17 0 22 23.5t14 26.5l6 -37q15 -6 19.5 15t7.5 24zM2182 517q-4 -21 -12.5 -39.5t-20.5 -38.5q-4 -1 -12 -1q-12 0 -25 5q-38 15 -42 15q0 25 18 60q14 26 16 33q34 -6 43 -9q24 -8 35 -25zM2524 8q-16 -33 -49 -49t-74 -16q-33 5 -37 7q-10 5 -16 18q0 20 13.5 40t27.5 39
q-15 8 -22 22q0 18 17 37q12 14 34 28q3 -2 11 -5t10 -6q-1 -10 -6 -17.5t-15 -17.5q-4 12 -9 14q-14 0 -17 -5q2 -8 11 -15q6 -4 17 -10q9 -1 24.5 7.5t24.5 8.5q-9 -20 -49 -44.5t-47 -49.5q24 -17 56 -17q24 0 47.5 8t47.5 23zM2684 500q0 -18 -10 -45q-16 -44 -17 -47
l-138 -86l-33 -169q0 27 2.5 85t2.5 67q-35 -22 -103 -55q-54 -26 -64 -32q-60 -31 -78 -42q-38 -24 -64 -59q-9 -36 -18 -62q-12 -33 -26 -60t-32.5 -48.5t-43.5 -39.5q-143 -35 -294 -48q81 28 110 39q69 27 116 54q63 36 101 78q45 49 65 114q9 75 107 131l92 52
q-39 16 -57 25q-32 16 -49 39q8 64 11 77q11 42 42 60q25 9 58.5 16.5t60.5 7.5q33 0 58 -10t41 -33l-2 -98q47 22 81 40q41 22 81 49zM1933 125q-11 -22 -28 -38.5t-45 -34.5q-19 -12 -48 -29q-24 -14 -48 -27q8 23 28 43q16 15 44 32q42 21 62 32t35 22zM1952 478l-16 -93
q-6 1 -17 1q-30 0 -59 -19q-20 -13 -48 -42q-36 -40 -51 -51q-32 -25 -66 -25q0 -72 -6 -122t-25.5 -102t-51.5 -90q-35 -42 -87 -67q-26 -13 -55 -13q-24 0 -53.5 10t-74.5 39q-48 44 -74 92q-29 54 -29 110q0 37 13 72q10 48 46 89q22 25 76 66q58 44 77 63q38 38 51 82
q0 -32 -13 -58.5t-38 -55.5q-20 -21 -47.5 -45.5t-53.5 -46.5q-21 -18 -34 -33q-28 -31 -38 -63q-4 -12 -4 -29q0 -22 9 -45.5t30 -51.5q32 -43 77 -66t95 -23q65 11 116 75q44 55 60 125q-2 25 -30 69q-40 64 -42 67l17 81q7 -12 25 -29q12 -11 30 -25q45 0 88 31
q8 6 45 39l14 84q20 -3 40 -3q15 0 49.5 2t36.5 2q12 0 18 -1zM1140 739q-6 -20 -23 -36t-40 -28q-42 -21 -83 -42q9 19 27 35q13 11 38 25q34 16 41 20q25 13 40 26zM1539 201q-9 -26 -17 -51q-14 -33 -37 -33l-64 27q13 36 17 46q9 22 24 45q43 -4 77 -34zM1142 584
q-3 -19 -13 -44q-4 -10 -21 -45q-23 -9 -62 -17t-72 -14q0 22 18 56q6 11 19 34q65 15 131 30zM1152 175q3 -26 3 -52q0 -56 -13.5 -102t-34.5 -78t-57 -55q-14 -10 -34 -10q-25 0 -47 15q-39 30 -60 82q-6 15 -35 167l-54 400q4 7 15 43q8 26 21 34q12 -67 24 -181
q7 -68 12 -111q10 -91 20.5 -152.5t28.5 -133.5q9 -13 13 -19q9 -12 16.5 -20.5t17 -14t20.5 -5.5q35 0 66 26q23 19 46 56q3 33 -17 55q-20 -25 -50 -25q-11 0 -22 6q-23 15 -23 41q0 7 3 15q17 56 22 67q17 37 45 51q33 -3 51 -37q1 -1 23 -62zM725 540q4 -27 -13 -49
q-9 -12 -68 -55q-15 2 -17 6q5 8 40 34q27 21 27 41q-6 5 -31 7t-25 18q0 25 15 47t38 35q17 0 23 -9q2 -14 -13 -26t-16 -19l-1 8q-6 2 -8.5 -4t-5.5 -7q4 -9 26.5 -11t28.5 -16zM314 540q-3 -2 -3 -12q-5 -2 -14 0.5t-11 2.5q-7 0 -9 -11v-24t1 -24q0 -18 -2 -32t-8 -27
q-11 8 -21 26q-25 46 -32 53q1 -12 -11 -12q-2 0 -9.5 2t-9.5 2q-6 9 -6 22q0 8 1 13q6 17 7 23q6 9 13 9q5 0 11.5 -4.5t9.5 -6.5l37 -62q4 24 9.5 49.5t17.5 39.5q16 0 24.5 -4.5t8.5 -11.5q0 -6 -4 -11zM795 -6q-4 -23 -22 -42q-13 -14 -40 -31q-23 -12 -48 -26.5
t-41 -29.5q5 22 20.5 39.5t40.5 34.5q45 28 90 55zM723 371q6 -24 6 -49q0 -39 -15 -73.5t-44 -55.5q-8 -6 -17.5 -8t-21.5 -2q-15 0 -29 3l-32 -202q-14 -53 -38 -91q-29 -45 -75 -73q-23 -14 -49 -17t-70 -3q-55 15 -101 61t-63 101q-4 16 -7 34.5t-3 35.5q0 50 18.5 92.5
t57.5 73.5q26 23 63 39q26 11 69 23q86 26 87 26q20 8 48 27q-17 -31 -55 -53q-14 -8 -131 -54q-56 -23 -82 -47q-37 -34 -37 -84q0 -7 1 -16t3 -18q12 -54 59 -95t104 -48q51 0 98 33q41 29 70 77q10 24 15 55.5t5 57.5q0 61 -20 134q-7 30 -26 91q-30 99 -30 154l12 45
q8 27 20 39q18 -95 27 -141q16 -84 31 -138q30 -23 64 -23q11 0 22 3q26 7 41 39q20 42 25 47zM2956 385q-22 65 -36 96q-23 51 -54 86q-4 -20 -4 -43q0 -27 7.5 -77.5t7.5 -72.5q13 0 41.5 5.5t37.5 5.5zM2989 268q-5 32 -9 48q-8 29 -21 39l-76 -23v-131q-11 16 -18 43
q-2 6 -14 86q-15 -6 -36.5 -12.5t-44.5 -13.5t-40 -13.5t-35 -16.5q-36 -22 -57.5 -56t-21.5 -74q0 -47 28 -93q24 -39 68 -74q41 -26 91 -26q34 0 57 15q35 22 63.5 57t45.5 73q24 56 24 120v31q-3 15 -4 21zM2494 406v7q-11 22 -29.5 33.5t-40.5 11.5q-19 0 -41.5 -3.5
t-40.5 -9.5q41 -19 77 -29t75 -10z" />
    <glyph glyph-name="colon" unicode=":" 
d="M621 546v-540h-474v132h168v264h108v-264h96v408h102z" />
    <glyph glyph-name="semicolon" unicode=";" 
d="M621 546v-540h-474v132h168v264h108v-264h96v408h102z" />
    <glyph glyph-name="less" unicode="&#x3c;" 
d="M621 546v-540h-474v132h168v264h108v-264h96v408h102z" />
    <glyph glyph-name="equal" unicode="=" 
d="M621 546v-540h-474v132h168v264h108v-264h96v408h102z" />
    <glyph glyph-name="greater" unicode="&#x3e;" 
d="M621 546v-540h-474v132h168v264h108v-264h96v408h102z" />
    <glyph glyph-name="question" unicode="?" 
d="M621 546v-540h-474v132h168v264h108v-264h96v408h102z" />
    <glyph glyph-name="at" unicode="@" 
d="M621 546v-540h-474v132h168v264h108v-264h96v408h102z" />
    <glyph glyph-name="A" unicode="A" horiz-adv-x="3325" 
d="M3174 169q0 -55 -8.5 -98.5t-30.5 -81.5q15 40 15 98q0 20 -1 32t-4 35l-67 483q-11 10 -11 23q0 11 8 24q24 39 24 40q4 -8 31 -61q35 -68 40 -113q-11 7 -26 28q-8 10 -15 21l-7 -9zM2724 702q-2 -10 -2 -15q0 -7 3 -19t3 -18q0 -11 -8 -22l-14 12q-16 -27 -51 -52
q-31 -21 -61 -42q27 23 53.5 46.5t48.5 52.5q-1 1 -16 10.5t-15 18.5q0 6 2 9q12 27 43 35q6 0 9.5 -6.5t4.5 -9.5zM2785 515q-4 -18 -14 -32.5t-26 -28.5q-3 4 -26 17.5t-23 21.5q0 4 5 9l39 38zM2690 500q0 -17 -9 -31.5t-26 -26.5q-18 5 -35 10q-21 8 -17 25q17 28 35 48
q10 -3 21 -6q20 -7 31 -19zM2576 789q-16 -65 -68 -103q0 14 28 51q14 19 14 29q0 5 -3 11q-151 -31 -302 -61q11 -11 17 -23.5t6 -26.5q0 -8 -4 -20t-6 -16q-6 -12 -13 -14q3 9 4.5 18.5t1.5 18.5q0 5 -2 15q-15 20 -31 34.5t-36 24.5q3 23 20 23q7 0 24 -4.5t23 -4.5
q8 0 12 2q48 0 191 38q71 19 117 19zM2615 336q-4 -39 -38 -56q-6 -2 -11 -2q-18 0 -24 15q0 53 35 80q12 -6 23 -15.5t15 -21.5zM2435 537q0 12 -10.5 21.5t-20.5 19.5q0 -67 26 -206t26 -209q0 -45 -6 -81.5t-23 -76.5q3 13 4 33t1 23q0 13 -1 40t-1 41l-78 465
q-9 15 -9 36q0 19 8.5 38.5t21.5 34.5q25 -31 41 -88q2 -7 21 -91zM2221 450q-6 -24 -6 -25q-5 -14 -14 -21q-10 -2 -15.5 5t-7.5 15.5t-2 20.5q0 42 16 74q2 -11 0 -25t-3 -27q0 -14 3.5 -22.5t14.5 -13.5q4 8 6 14t8 5zM2701 -80q0 -34 -26 -49q-7 -1 -13 5t-9 15
q0 23 8 42.5t24 42.5q2 -9 -3 -21q-15 -34 -15 -37q0 -12 15 -19q5 2 9 11.5t10 9.5zM2106 683q-3 -35 -3.5 -54t-9.5 -39l-12 11q-34 -38 -79 -71q-41 -30 -89 -55q15 13 60 48q66 52 97 86q-3 4 -19.5 12t-17.5 22q3 15 13 28.5t24 17.5q5 4 15 4q15 0 21 -10zM2964 306
q4 -25 7 -55t3 -55q0 -45 -8.5 -86t-27.5 -80q-26 -18 -55.5 -29.5t-59.5 -11.5h-20q-10 3 -14 4q-58 19 -93 71q-45 -15 -91 -39.5t-90 -56t-80 -63.5t-78 -76q-15 -8 -31.5 -17t-29.5 -9q-7 0 -16 3q-30 11 -43 45q-9 25 -9 66q7 30 15 61.5t22 55.5q-64 -49 -110 -79
q-64 -43 -119 -66q-38 -16 -72 -23.5t-73 -7.5q-33 0 -59.5 5.5t-58.5 18.5q-48 20 -77 66t-29 102q0 50 17 99t45 89q-21 -62 -26.5 -85.5t-5.5 -50.5q0 -39 17 -72q27 -51 80 -77q47 -23 110 -23h15q9 0 25 2q49 6 93.5 21t90 41t84.5 55q29 22 78 66q0 29 -35 128
q-16 45 -16 74q0 19 5 34.5t19 32.5q21 -25 30 -37q18 -23 21 -42q-11 1 -16 1q-8 0 -10 -7q13 -24 19 -52t6 -57q0 -34 -6.5 -66.5t-19.5 -69.5q-6 -19 -15 -39q-12 -25 -17 -37q-10 -22 -10 -47q0 -36 20 -56q14 -10 31 -10q21 0 51 18q19 14 28 19q29 34 64.5 66.5
t73.5 61.5q75 55 156 89q-3 11 -4 23.5t-1 28.5q0 97 60 165q8 3 16 3t18 -3.5t19 -9.5q19 -23 30.5 -52.5t11.5 -59.5q0 -25 -9 -49q-4 -23 -18.5 -42.5t-35.5 -30.5q35 -32 82 -32q22 0 42 8.5t40 16.5q21 11 32 30q-15 135 -39 264t-59 270q5 18 10 37q8 21 22 30
q25 -55 37 -82q21 -47 29 -86q-9 3 -20 14q-2 2 -17 20q0 -51 19 -136q27 -119 30 -140zM2037 419q-4 -4 -17 -38q-9 -24 -27 -21q-4 4 -22 12q-27 13 -24 29l31 53q15 -8 30 -15.5t29 -19.5zM2062 255q1 -3 1 -6v-5q0 -13 -18 -13q-15 0 -21 -2t-8.5 -13.5t-7.5 -46
t-17 -48.5q-6 6 -17.5 40t-31.5 34q-6 0 -10 -1q-9 3 -12 12q3 30 5 34t11 11q25 -11 42 -51l16 -38q9 39 14 59q10 38 35 38q10 0 19 -4zM1847 131q0 -9 1 -19t1 -16q0 -33 -5.5 -69t-10.5 -72q0 60 -6 117l-92 566q-3 8 -3 17q0 15 8.5 31t19.5 27q46 -101 52 -115
q14 -35 24 -73q-11 5 -20.5 16t-17.5 22q-6 -1 -8 -9t-5 -10zM1116 760q-21 -17 -49 -29t-64.5 -22t-56.5 -15q-38 -10 -59 -20q17 31 66.5 44t95.5 25q33 8 67 17zM1405 362q-2 -2 -19 -4t-17 -17q-4 -46 -10 -61t-21 -23q-2 2 -27 51q-16 31 -46 27q-9 2 -11 10
q0 16 3.5 25.5t15.5 16.5q22 -10 40 -42q14 -27 29 -54q14 47 23 72.5t19 25.5t21 -27zM1187 465q0 -10 -3.5 -20t-8 -17.5t-11.5 -7.5q-5 0 -13 2q-13 13 -13 31q0 11 4.5 26.5t8.5 29.5q3 -6 3 -15q-1 -15 -1 -22q0 -20 15 -26q7 1 10.5 9.5t8.5 9.5zM732 626q1 -8 1 -12
q0 -16 -4 -24t-12 -14q-8 0 -14.5 5.5t-9 12t-2.5 15.5q0 15 7.5 34t11.5 29q2 -6 -2 -22t-4 -23q0 -17 16 -22q2 2 5 10.5t7 10.5zM1579 130q0 -53 -8 -79q-12 -40 -49 -58q-21 -10 -43 -16.5t-44 -6.5q-26 0 -49 12q-53 31 -124 102q-101 100 -119 116q0 -53 -4 -75
q-8 -42 -33 -68q-40 -24 -108 -58q-55 -27 -109 -55q-63 -32 -107 -59q-56 -34 -102 -74q-19 -11 -43 -11q-33 0 -62 21q-33 33 -33 83q0 31 15 66q19 39 33 60q20 31 48 56q-48 -14 -98 -49q-30 -21 -90.5 -75.5t-86.5 -74.5q-51 -40 -96 -58q-14 -2 -23 -2q-31 0 -57 15
q-19 19 -27.5 44t-8.5 54q0 24 5 51q11 41 36 83q10 16 92 124q-8 -15 -51 -80q-60 -91 -60 -145q0 -22 7.5 -42t23.5 -40q20 -10 39 -10q34 0 81 34l44 34q97 88 107 97q33 28 70 54q48 34 99.5 56t106.5 27l-50 230q0 23 5 44t18 41q14 -29 28.5 -59.5t21.5 -58.5
q-7 0 -13.5 7t-11.5 14l12 -104q16 -62 66 -86q7 -4 39 -21q43 -23 63 -40q-3 -6 -9.5 -30.5t-13.5 -36.5q-41 9 -81 19q-47 10 -84 10q-23 0 -41.5 -3t-38.5 -12q-65 -77 -78 -98q-21 -36 -21 -68q0 -30 15 -56q22 -24 54 -27q46 18 104 60q49 37 99 74q58 40 106 57
q88 47 176 95q-31 61 -78 125q-32 43 -95 117l-100 116q-3 12 -3 23q0 19 6.5 41t13.5 43q76 48 208 75l222 42q17 0 50 5.5t45 5.5q29 0 47 -14q0 -71 -71 -149q-98 -108 -111 -133q18 56 83 132q33 37 66 75q2 6 2 12q0 19 -15 19q-86 -15 -173 -31t-170 -38t-160 -52
q65 -57 174 -170q130 -134 171 -174q98 -94 184 -154q15 -4 34 -4q31 0 58.5 13t49.5 38q-7 38 -28.5 178.5t-29.5 183.5q-17 94 -39 178q9 36 30 66q6 -14 30 -67q32 -70 40 -117q-8 3 -16.5 13.5t-15.5 20.5l-7 -16zM1209 -83q2 -3 2 -10q0 -8 -4.5 -16.5t-8.5 -17.5
q-11 -13 -23 -13q-4 0 -9 3q-7 18 -7 38q0 26 12 60q16 38 22 55q0 -15 -13 -63q-7 -26 -7 -39t5 -26q11 0 19 13.5t12 15.5zM562 653q3 -4 2.5 -10t-6.5 -15l-24 8q-8 0 -11.5 -10.5t-8.5 -49t-15 -55.5q36 -9 58 -39q-5 -26 -45 -27t-54 -18q0 -26 10 -69q14 -61 17.5 -81
t3.5 -42q0 -23 -5 -42.5t-18 -37.5q11 28 11 59q0 22 -4.5 44t-13.5 54.5t-12 50t-3 33.5q0 30 14 57q25 20 58 20q-5 3 -14.5 7t-15.5 4q-3 0 -9 -2q-10 -8 -11 -13q-2 6 -2 10q0 12 8 22q13 9 23 8q-21 47 -24 53q-10 18 -21 33q-3 -7 -8 -7q-4 0 -9.5 4t-11.5 9t-8 11
q1 3 3 17t7 20q26 -9 46 -40q1 -2 29 -56q3 6 10.5 52t30.5 46q11 0 23 -8zM617 293q-3 -14 -4 -21q-6 -23 -20 -30q-7 -3 -13 3.5t-8 9.5q-1 8 -1 12q0 30 16 71q12 27 17 39q0 -12 -13 -49q-7 -20 -7 -30q0 -17 15 -28q5 2 8.5 12.5t9.5 10.5zM805 18q-9 -6 -15 -16
q-16 -26 -22 -30q-10 2 -27 14.5t-28 12.5q-5 -4 -12 -16q-13 -22 -23 -22q-5 0 -11 3q-22 8 -29.5 13.5t-3.5 15.5q19 25 39 50q9 -1 25 -11.5t21 -10.5q7 0 13 9l26 32l32 -18q19 -13 15 -26zM351 308q2 -14 2 -21q0 -26 -10.5 -50.5t-31.5 -36.5q-16 -2 -28 7.5t-34 45.5
q-4 24 -4 53q0 56 18 113q14 45 45 102q-16 -77 -31 -154q0 -28 7.5 -49.5t28.5 -41.5q14 -4 24 8q10 18 14 24zM325 47q1 -8 1 -12q0 -28 -15 -40q-21 -5 -23.5 7.5t-2.5 23.5q0 19 4.5 37.5t12.5 38.5l-8 -48q0 -20 11 -32q10 -2 13.5 7t6.5 18zM2707 672v8q0 11 -12 11
q-6 0 -9 -5q13 -10 21 -14zM2780 171q-4 42 -31 80q-12 12 -18 15t-15 3q-4 0 -10 -2q-9 -20 -9 -44q0 -21 5.5 -41t15.5 -40zM2596 320q-7 10 -14 16.5t-17 6.5q-3 -7 -5 -13t-2 -11t3 -10q4 -2 11 -2q16 0 24 13zM2087 638q2 4 2 10q0 11 -8 14q-13 7 -26 -7
q6 -6 14.5 -10t17.5 -7z" />
    <glyph glyph-name="B" unicode="B" horiz-adv-x="2290" 
d="M2176 373q10 -47 10 -99q0 -82 -28 -157q-27 -98 -135 -130q-22 -7 -200 -29l-13 4q58 9 106 26q56 20 106 51t85 73q39 47 54 102q1 8 1 16.5v13.5q0 66 -23.5 128t-66.5 124q-4 -18 -5.5 -40.5t-1.5 -32.5q0 -13 1 -41.5t1 -43.5q0 -25 -1 -40t-7 -33h-5
q-11 66 -11 147q0 94 18 181q87 -92 115 -220zM1763 576q-11 -44 -13 -48q-6 -16 -15 -26l-82 -11q-2 16 5.5 34t14.5 35zM1582 737q4 -9 -3.5 -19t-13.5 -19q-23 -26 -95 -28t-90 -41q4 13 14 31t20 35q25 -5 45 -5q36 0 68.5 11.5t54.5 34.5zM1936 501q3 -18 5 -34.5
t2 -35.5q0 -62 -22 -118q-27 -55 -76.5 -91t-106.5 -36q-32 -6 -56 -20.5t-44 -37.5q-34 -42 -40 -104q-15 -39 -53 -54q-28 -11 -78 -11q-15 0 -30 0.5t-29 0.5h-17q-10 -2 -15 -2q116 41 122 44q67 32 97 89q15 41 30 83q11 22 27.5 36t46.5 21q10 93 11 96q12 54 49 84
q8 2 12 2q28 0 39 -27q9 -15 9 -38q0 -11 -3 -34t-3 -34q34 7 66 42q28 31 44 68q-15 79 -21 98q-15 50 -43 88q-10 -47 -14 -97.5t-4 -105.5h-6q0 17 -1 55.5t-1 59.5q0 79 6 114.5t20 68.5q59 -76 77 -170zM1536 417q6 -38 6 -75q0 -76 -26 -148q-35 -89 -69 -134
q-54 -72 -126 -79q-44 -7 -84.5 -12.5t-74.5 -5.5q-23 0 -47 3q67 16 107 29q58 18 103 42q55 29 90 64q40 40 63 95q38 51 38 120q0 50 -17 100t-46 95l-28 -252q-9 63 -9 128q0 118 29 225q36 -39 59 -88.5t32 -106.5zM1330 208q-8 -41 -24.5 -77t-42.5 -68
q-18 -24 -46.5 -37.5t-59.5 -13.5q-31 4 -59.5 29.5t-40.5 56.5q-16 42 -16 84q0 21 5.5 47t20 56t31 55.5t38.5 55.5q19 26 39 53.5t36 54.5t27 53q-5 -22 -14 -43q-13 -28 -43 -74q-38 -60 -76 -119q-15 -27 -24.5 -54t-9.5 -51q1 -7 1 -11q3 -31 21.5 -58t57.5 -53
q12 -3 24 -3q32 0 60.5 20.5t51.5 53.5q12 23 16 31q8 19 8 36q0 5 -2 15q-6 16 -19 32t-30.5 23.5t-36.5 7.5q-16 0 -28.5 -5t-26 -21t-21.5 -19q0 36 11.5 65.5t38.5 44.5q8 5 21 8t24 3q40 0 67 -22q26 -45 26 -103q0 -16 -1 -25t-4 -28zM957 800q-13 -56 -33.5 -107.5
t-50.5 -99.5q2 11 12 38.5t12 39.5q-50 -65 -140 -98q-80 -26 -160 -51q54 21 100 45q55 28 100 60q53 38 90 77q42 44 70 96zM1250 237q-5 -17 -14.5 -33t-18.5 -32q-4 4 -26.5 10.5t-22.5 16.5q0 5 4 12q3 3 16 30q10 20 22 20q6 0 13 -4q2 -3 18 -11q6 -3 9 -9zM1000 335
q0 -69 -16 -134t-45 -123q-27 -68 -92 -90q-39 -13 -127 -13q-27 0 -54 -0.5t-49 -4.5q105 29 121 35q34 12 74 33q51 26 85 61q39 40 56 93q14 23 21 52t7 57q0 49 -15 96t-43 91l-26 -272q0 31 -0.5 63.5t-0.5 66.5q0 81 5 132.5t22 105.5q40 -49 58.5 -112.5t18.5 -136.5
zM834 364q0 -40 -11.5 -84t-28.5 -86q-7 -11 -19.5 -18.5t-25.5 -9.5q-30 3 -45 34q-14 40 -20 57q-9 -19 -27 -37q-3 -3 -62 -49q-17 -45 -33 -90q-22 -50 -57 -76q-41 -21 -93.5 -30t-107.5 -9q99 34 143 60q79 46 107 115q8 49 43 91q23 27 77 70q1 6 1 18q0 21 -5 49
q-12 67 -12 84q0 21 3.5 35t15.5 31q5 -23 12 -126.5t55 -148.5q31 0 49 24q26 26 26 71q0 20 -6 45t-23 60l-2 3q-7 -19 -12 -49q-13 -82 -14 -85q0 56 8 108t24 107q24 -31 32 -69.5t8 -94.5zM220 455l-6 -13l-20 7q-11 -45 -22 -89q-12 3 -22 28t-21 25q-8 0 -19 -8
q-6 6 -6 16q0 8 4.5 17t8 15.5t7.5 6.5q3 0 5.5 -1.5t5.5 -3.5q9 -8 16 -21q19 -37 21 -39q5 27 9.5 47t15.5 35q9 -2 19 -4q7 -3 7 -9q0 -4 -3 -9zM492 405q0 -22 -8.5 -42t-26.5 -30q0 17 -20 17q-6 0 -12 -3q-28 -17 -52 -45q-18 -20 -41 -55q7 0 20 4q29 9 38 9
q14 0 22 -9l-29 -78q-26 -37 -157 -111q-64 -36 -94 -72q3 -20 16 -44t45 -56t41 -42q23 -25 33 -48q-64 39 -93 65q-52 46 -64 94q-1 7 -1.5 15.5t-0.5 13.5q0 40 14.5 69.5t49.5 48.5l112 72q11 38 30.5 81t40.5 71q26 32 52 54.5t60 38.5q8 -2 17 -4q10 -4 8 -14z
M505 -83l-23 -69l-100 -13q0 16 8.5 38t12.5 33q40 7 81 14q10 0 21 -3zM1793 304q-4 12 -14.5 21.5t-21.5 9.5t-19 -11q-4 -7 -8 -14.5t-4 -14.5q0 -12 12 -21q8 -8 17 -8q7 0 17 6.5t17 11t7 10.5q0 3 -1.5 6t-1.5 4z" />
    <glyph glyph-name="C" unicode="C" horiz-adv-x="2093" 
d="M1937 704q-7 -10 -7 -19q0 -7 4.5 -18t4.5 -15q0 -11 -14 -20l-11 10q-25 -31 -61 -57q-31 -23 -67 -40q59 51 118 103q-1 2 -24 15q-14 8 -9 21q6 12 17 22q6 6 23 15q10 4 17 -3q6 -10 9 -14zM1978 503q-12 -19 -18 -28q-11 -16 -23 -27l-64 39q-7 -4 -19 -23.5
t-21 -19.5q-6 0 -11 4l-45 28q10 17 20 35q14 20 30 20l48 -30q5 3 17 23t23 20q4 0 10 -3q14 -9 21 -13q22 -14 32 -25zM1687 800q5 -8 -6 -19l-11 -11q-35 -19 -79.5 -28.5t-93.5 -9.5q2 -12 2 -18q0 -26 -18 -41q6 8 6 18q0 8 -3 15.5t-7 14t-16 14.5t-12 12q0 6 7 13
q30 -3 40.5 -3.5t33.5 -0.5q51 0 88.5 9t68.5 35zM1762 384q-4 -20 -16 -36t-31 -21q-21 -3 -31 14q-2 20 11 45q3 5 16 26q1 -6 -6.5 -21t-7.5 -22q0 -12 14 -18q10 0 15 2t18 10q0 11 -15.5 21.5t-15.5 15.5q0 6 11 16q11 0 22 -11q6 -6 16 -21zM1599 262q3 -38 3 -74
q0 -53 -8 -99.5t-28 -90.5q11 61 11 131q0 108 -40 306q-27 132 -34 181q9 26 14.5 40t12.5 21q5 -9 30 -53q35 -60 35 -93q0 -9 -1 -14q-5 2 -12.5 14.5t-15.5 15.5l-9 -16q6 -33 17 -97q20 -109 25 -172zM1145 758q1 -8 -6 -15q-2 -2 -14 -11q-64 -15 -136 -37.5
t-141 -44.5q0 13 12 22q5 4 24 12q130 37 261 74zM1193 440q3 -6 3 -11t-4 -12.5t-7 -14.5q-11 -13 -22 -10q-10 15 -10 38q0 20 8 42q5 14 18 39q0 -10 -9 -41q-5 -17 -5 -26q0 -15 10 -28q5 3 10 12.5t8 11.5zM1325 246q-6 -23 -16 -36q-13 -17 -30 -17q-3 4 -30 19
q-18 10 -14 24l35 49q22 -11 30 -16q15 -10 25 -23zM755 602q2 -5 2 -16q0 -12 -5.5 -21.5t-16.5 -12.5q-11 0 -19.5 8t-11.5 20q0 26 10 53q4 11 21 45q1 -11 -8 -36t-9 -34q0 -20 23 -28q2 2 4.5 11.5t9.5 10.5zM1996 129q-10 -51 -44 -83q-28 -26 -83.5 -43.5
t-85.5 -25.5q-55 -16 -84 -34q-17 -5 -161 -104q-57 -39 -102 -39q-21 0 -42 7q-16 12 -23.5 30.5t-7.5 40.5q3 22 11 44.5t16 43.5q-130 -87 -221 -120q-79 -29 -148 -29q-46 0 -84.5 10.5t-78.5 36.5q-22 16 -35 45q-8 17 -18 54q-21 -14 -49 -38q-69 -59 -89 -73
t-43.5 -23.5t-46.5 -9.5q-32 0 -64 19q-17 16 -23 39t-9 54q3 36 21 71q12 25 40 64q-55 -16 -120 -79q-44 -45 -66 -67q-48 -48 -83 -70q-48 -30 -96 -30h-11q-8 2 -12 2q-24 11 -40 30q-19 22 -19 47q0 63 54 137q45 62 91 125q-16 22 -24.5 48.5t-8.5 52.5q0 55 33 130
q28 61 56 123q-7 -23 -26 -72q-33 -84 -33 -126q0 -26 6.5 -46t23.5 -42q5 -3 9 -3q14 0 14 14q3 2 6 12t10 10q-8 -41 -13 -62q-9 -38 -37 -41q-14 -28 -38.5 -59.5t-47.5 -60.5q-26 -34 -38 -61q-16 -35 -16 -69q5 -13 18.5 -25t27.5 -18q45 0 82 19.5t75 56.5
q68 65 136 131q86 69 193 99l-52 216q4 16 9.5 34t15.5 31q1 -1 36 -61q23 -39 29 -67q-7 2 -15 15t-13 17q-5 -18 -5 -33q0 -23 8 -49t21 -51q14 -17 70 -53q26 -17 41 -34q-6 -35 -20 -68q-25 14 -60 24t-66 10q-45 0 -77 -18l-46 -68q-25 -41 -25 -75q0 -13 3 -27
q11 -37 47 -53q5 -1 15 -1q33 0 65 17.5t63 47.5l122 118q14 70 21 92q16 52 43 77l-44 -150q153 76 307 153q-32 41 -91 91q-51 42 -101 85q-59 52 -91 97q6 35 13 70q10 40 41 53q123 35 251.5 53.5t260.5 18.5q18 -6 18 -26q-9 -38 -35 -76q-20 -30 -56 -66l-63 -63
q-36 -38 -56 -69q17 46 71 106q46 51 93 102q4 9 0 16.5t-13 11.5q-260 0 -482 -80l46 -30l-14 -20q8 -9 152 -128q54 -44 82 -86q2 -18 2 -27q0 -32 -9.5 -59t-30.5 -49q-42 -30 -180 -91q-65 -29 -109 -57q23 -51 75 -79t115 -28q111 0 220 54q94 47 189 136
q-10 46 -32 111q-29 86 -35 109q7 29 11 38q9 21 25 29q13 -18 29 -48q13 -26 27 -51q-6 -1 -15 5.5t-16 12.5q1 -5 24 -108q10 -44 10 -70q0 -29 -7.5 -51.5t-26.5 -43.5q-27 -22 -39.5 -53.5t-12.5 -68.5v-13q2 -10 2 -14q8 -12 20 -18t27 -8q54 9 118 58q147 114 187 124
q112 42 225 85q-18 16 -107.5 26t-89.5 68q0 11 1 17q15 34 31 68q22 39 58 39t69 -27q28 -23 48 -60q10 -26 21 -52q7 -20 7 -33q0 -6 -2 -18zM1228 75q1 -2 -0.5 -9t-5.5 -14q-4 -1 -16 5t-18 2q-5 -35 -7 -52q-5 -31 -16 -48q-6 6 -22 46q-11 29 -36 27q-4 5 -4 12
q0 6 10 26q9 7 16 3q12 -16 26 -51q8 -19 14 -33q4 35 7.5 59t18.5 39q9 2 17 -3t16 -9zM872 307q5 -27 -16 -48q-12 -3 -20 4.5t-11.5 17.5t-3.5 18q0 13 7.5 27.5t11.5 22.5q1 -8 -1.5 -21.5t-2.5 -16.5q0 -17 14 -26q6 -1 9.5 7t6.5 15h6zM502 493q-1 -10 -9 -23
q-14 6 -27 6t-27.5 -5t-28.5 -13q0 -32 14 -78q7 -24 15 -48q5 -16 8.5 -31t3.5 -38q0 -33 -14 -64q4 16 4 36q0 24 -6 47.5t-16.5 55t-14.5 47.5q-7 28 -7 50q0 6 0.5 12t4.5 23q8 13 24 20t31 13q-8 8 -21 8q-6 0 -9 -1q-2 -5 -13 -9q-4 6 -0.5 13l6.5 13l23 13
q-4 6 -16.5 33t-24.5 39q-1 -6 -7 -6q-11 5 -15 6q-10 5 -10 16q0 6 2 12l4.5 13.5t9.5 7.5t19 -11.5t22.5 -32t15.5 -31.5q6 9 13.5 40.5t21.5 42.5q13 -4 17.5 -8t4.5 -11q0 -4 -3 -9t-7 -5q-11 3 -16 3q-7 0 -7 -12q0 -18 -5.5 -42t-10.5 -45q28 -18 51 -47zM704 22
l-34 -49q-15 9 -22 13q-13 7 -24 7q-12 -16 -19 -24t-12 -11q-10 0 -22.5 7t-23.5 13q6 20 18 37t26 21q10 -6 22 -12.5t21 -5.5l30 41q19 -10 28 -15q17 -9 12 -22zM380 123q2 -4 2 -10q0 -7 -2.5 -13.5t-7.5 -14.5q-10 -16 -26 -9q-11 17 -11 37q0 21 9 45q13 29 18 41
q1 -9 -3 -25q-11 -41 -11 -47q0 -19 16 -24q4 3 7 11.5t9 8.5zM1917 684q-2 11 -13 11q-7 0 -11 -7l22 -11zM1914 195q-21 27 -43 41q-27 17 -57 17q-1 -1 -9 -7.5t-5 -13.5q15 -26 51 -33q19 -4 63 -4z" />
    <glyph glyph-name="D" unicode="D" horiz-adv-x="1626" 
d="M1537 680q-9 -6 -9 -18v-15q-2 -6 -17 -6q-20 -23 -52 -43q-26 -16 -57 -30q9 8 38 27q46 30 62 53q-17 6 -24 20q0 10 5 18q9 11 13 16q11 9 26 9q19 0 19 -16q0 -7 -4 -15zM1552 572l-26 -70q-19 -4 -51 -7.5t-42 -5.5q3 26 7 40t15 29q16 4 35 6q58 7 62 8zM1290 717
q4 -15 -11 -27t-27 -21t-25 -12.5t-28 -3.5h-15.5t-14.5 1q-25 0 -35 -5.5t-19 -19.5q2 12 11.5 25.5t23.5 25.5q22 -5 38 -5q17 0 37 5q37 9 65 37zM1532 414q8 -13 12 -29t4 -32q0 -20 -3.5 -35.5t-22.5 -78.5q-15 -20 -48 -40q-68 -41 -83 -60q-18 -51 -35 -102
q-25 -58 -69 -80q-33 0 -124 -13q-49 -7 -75 -7q16 6 68.5 23.5t81.5 31.5q39 20 65 44q30 28 49 69q8 16 21 56q20 61 55 83q24 11 49.5 24t42.5 32q-2 11 -4.5 17.5t-8.5 12.5q-2 -1 -12 -16.5t-21 -13.5q-13 -1 -22 10q-2 3 -11 22q5 25 10 41q9 27 20 46q7 12 13 17
t15 5q7 0 16 -7t17 -20zM1247 367q0 -73 -7.5 -133t-27.5 -118t-53 -103q-39 -53 -91 -76q-46 -7 -97.5 -12.5t-95.5 -5.5q-30 0 -60 3q69 11 105 20q55 14 103 36q53 25 89 57q41 37 66 91q26 34 38.5 76.5t12.5 89.5q0 53 -15 103.5t-42 93.5q-3 -21 -4.5 -49.5
t-1.5 -62.5v-37v-13q0 -51 -7 -90q0 34 -4 109t-4 114q0 55 2 75.5t10 57.5q84 -90 84 -226zM970 209q-1 -10 -7 -24q-11 -22 -21 -44l-52 24q11 38 32 70q12 -5 25 -9q14 -6 23 -17zM1041 177q-8 -35 -23.5 -70t-34.5 -67q-29 -50 -86 -50q-14 0 -21 2q-29 10 -54.5 34
t-36.5 53q-5 13 -8 32t-3 33q0 71 50 162q31 54 63 109q-6 -19 -52 -110q-36 -72 -36 -115q0 -27 10.5 -50.5t35.5 -45.5q26 -18 37 -22.5t25 -4.5q8 0 19 3q33 9 61 42q21 26 37 64q0 19 -6.5 35t-19.5 33q-28 26 -67 26q-8 0 -17 -1.5t-19 -5.5t-17 -13q-18 -24 -22 -26
q0 39 12.5 68.5t43.5 46.5q18 6 38 6q44 0 72 -25q13 -21 19.5 -43t6.5 -47q0 -10 -1.5 -21.5t-5.5 -31.5zM957 800q-25 -90 -44 -140q-27 -73 -62 -132q0 22 12 54q16 43 18 53q-31 -35 -80 -59q-21 -11 -90 -37q39 -75 39 -175q0 -47 -10 -92.5t-31 -81.5q-12 -13 -61 -42
q-39 -23 -52 -50q-10 -49 -27 -83q-22 -43 -60 -65q-137 -24 -150 -26q-46 -6 -92 -6q59 13 106 30q59 21 104 50q51 33 81 75q34 47 42 106q16 22 63.5 49t62.5 53q0 56 -8 102.5t-31 84.5q-7 -24 -16 -121q-4 -44 -12 -73q-3 27 -3 56q0 40 3 69.5t16 122.5q-10 6 -23 6
q-9 0 -24 -2.5t-18 -2.5q-9 0 -18 3q85 29 141 57q82 41 131 86q60 56 86 131h7zM492 100l-25 -74l-85 -12q5 41 13 57t24 23zM499 364q-7 -20 -13 -39q-9 -21 -21 -29q-3 7 -5 15q-3 5 -9 6q-41 0 -85 -48q-21 -24 -42 -47q8 -1 16 1q25 5 30 5q11 0 19 -4q1 -11 -1 -22.5
t-6 -24.5q-5 -11 -8.5 -21.5t-6.5 -25.5q-137 -76 -273 -151q5 -21 17.5 -42t46.5 -52q21 -20 44 -41.5t36 -43.5q-56 41 -112 81q-24 22 -38 48.5t-14 57.5q0 12 1 18q9 59 76 91l116 48q0 37 20 76q17 32 49 68q29 32 60 55.5t71 44.5q32 4 32 -24zM1520 680q-1 7 -9 7
h-11q-1 -7 5.5 -9.5t11.5 -3.5z" />
    <glyph glyph-name="E" unicode="E" horiz-adv-x="2469" 
d="M1953 735q-14 -18 -35.5 -31t-51 -23.5t-45.5 -15.5q-30 -11 -48 -21q12 20 32 33t48 22q42 14 64 21.5t36 14.5zM2355 640q-17 -61 -79 -118q-171 -158 -178 -170q18 46 60 90q13 14 85 78q56 50 81 83q0 9 -7.5 15t-16.5 9q-153 -19 -284 -51t-260 -85q0 -11 23 -18
t23 -12q0 -6 -17 -19q35 -42 98 -93q53 -42 107 -84q64 -52 100 -95q10 -24 10 -55q0 -23 -4.5 -45.5t-12.5 -45.5q-28 -32 -64.5 -51t-75.5 -19q-23 0 -47 8q-15 10 -24 23.5t-15 32.5l-42 -52q-28 -30 -57 -30q-30 0 -50 28q-19 36 -27 50q-8 38 -11.5 87.5t-3.5 101.5v64
q0 89 -12.5 178.5t-35.5 198.5q11 39 33 67q23 -87 34 -186.5t13.5 -194.5t2.5 -230q11 -32 18 -46q13 -25 33 -36q4 -1 12 -1q28 0 59 33q40 43 51 50q2 -17 4 -33q3 -11 12 -17q17 -21 49 -21q15 0 28.5 3t33.5 10q20 11 41.5 24.5t34.5 30.5q-44 54 -119 114
q-65 50 -130 101q-75 62 -116 120q0 52 4 71q8 40 38 58q115 42 187 63q99 29 199 46.5t199 17.5q9 -4 13.5 -13t4.5 -20q0 -5 -2 -15zM1883 206q-8 -24 -17 -39q-13 -21 -29 -25l-40 27q-6 -4 -13.5 -23.5t-17.5 -19.5q-4 0 -8.5 2.5t-19 8.5t-18.5 14q8 17 17 35t21 31
q25 -15 50 -29l31 47q3 -2 23 -13q14 -7 21 -16zM2080 -75q-14 -20 -38 -36q-20 -13 -50 -25q-6 -3 -40 -15q-43 -16 -65 -29q-2 6 3 15t6 12q29 16 68 31q101 40 116 47zM1219 605q2 -11 -3 -25t-13 -25q-13 0 -20.5 5t-7.5 16q0 73 38 126q-10 -34 -16.5 -54t-6.5 -32
q0 -21 15 -33zM1390 565q-1 -15 -10 -29l-16 19q-56 -59 -72 -74q-71 -68 -135 -95q88 69 123 101q43 39 72 74q-18 12 -27 20q-18 15 -14 32q10 24 18 35q14 19 32 19q11 4 18 -5q5 -9 11 -18q3 -8 3 -14q0 -8 -10 -29q-5 -11 -5 -17q0 -11 12 -19zM1447 397q2 -5 -1.5 -13
t-3.5 -11q-5 0 -17.5 2t-13.5 2q-4 0 -10 -2q-15 -15 -20 -45q-11 -72 -17 -80q-12 12 -23 43t-24 44q-4 -8 -4 -13q-5 -2 -12.5 1.5t-14 8t-6.5 11.5q0 4 6 18q3 7 3 12q3 11 15 11q6 0 11 -5q16 -15 29 -46q17 -41 21 -48q6 47 12 65q11 35 35 54q22 0 35 -9zM1076 563
l-41 38q0 -53 13 -137q19 -122 21.5 -145t4.5 -50.5t2 -54.5q0 -45 -6.5 -86t-21.5 -81q0 149 -20 309q-16 129 -51 299q0 16 8 37q5 12 16 36q5 -11 43 -80q27 -48 32 -85zM1238 181q0 -39 -26 -56q-8 -2 -14.5 4.5t-8.5 13t-2 17.5q0 38 16 68q1 -4 1 -11q0 -6 -2 -18
t-2 -19q0 -17 12 -28q8 1 13 15t13 14zM590 664l-4 -5q6 20 6 43q0 43 -20 74q3 7 4 10q5 12 12 14q18 -30 18 -68t-16 -68zM1585 68q-26 -59 -106 -130l-78 -68q13 36 55 75q36 33 72 65q-20 3 -39 3q-46 0 -102 -14q-162 -40 -184.5 -42.5t-63.5 -7.5t-74 -5
q-63 0 -105 16q-51 20 -77 66q-1 9 -1 26q0 53 25 103q21 43 63 86q-2 -15 -38 -78q-17 -30 -17 -49q0 -20 14 -40q38 -33 88 -48t108 -15q60 0 138.5 15.5t148.5 30.5q60 11 121 22q29 0 52 -11zM643 540q-8 -9 -18 -9q-8 0 -13 4l-7 6q-15 -16 -23 -21.5t-18 -5.5
q-6 0 -14 3q-13 10 -13 28q0 12 5.5 27t10.5 29q2 -6 -0.5 -20.5t-2.5 -17.5q0 -14 14 -19q24 -3 33 21q-1 6 -2 17.5t-1 16.5q0 9 2 16t9 12q3 -8 3 -18q-1 -17 -1 -24q0 -14 5 -20t22 -4q1 4 1 11t-1 14t-2 15q0 11 7 21q5 -12 8 -24t3 -26q0 -18 -7 -32zM1263 -147
l-40 -53q-34 15 -49.5 23t-18.5 19q21 28 43 55q27 -12 40 -17q25 -11 25 -27zM378 592q-5 -20 -6 -22q-4 -12 -11 -20q-26 -3 -45 13q-35 -42 -84 -76q-45 -31 -98 -51q41 28 83 57q52 38 83 72q-3 5 -10 9q-16 10 -16 20q0 1 16 48q9 29 30 38q23 -18 39 -40.5t19 -47.5z
M814 79q-4 -30 -10 -45q-9 -23 -30 -35q-10 -6 -19.5 -7.5t-18.5 -1.5q-22 0 -42 5q-29 13 -52 42q-19 23 -34 57q-6 -46 -33.5 -84.5t-69.5 -53.5q-18 -7 -40 -7q-42 0 -76 24q-30 26 -41 57.5t-11 74.5q0 30 4 62.5t8 64.5q-27 -35 -45 -140.5t-67 -142.5q-7 -2 -22 -2
q-31 0 -48 24q-28 38 -41.5 89t-13.5 107q0 58 13 120h4q0 -49 1.5 -83t8 -71t24.5 -65t52 -44q18 0 31.5 10t23.5 27q1 2 41 147q25 90 73 129q0 -22 -18 -115q-9 -46 -9 -73q0 -41 16.5 -70.5t58.5 -47.5q15 -4 31 -4q29 0 54.5 12.5t46.5 36.5q16 22 22.5 44t6.5 51
q0 19 -3 40.5t-5 33.5q-5 27 -9.5 57.5t-4.5 52.5q0 37 12 64l3 2l2 2q16 -35 21 -91t9 -107q8 -59 27 -93q24 -44 75 -64q5 -1 16 -1q39 0 62 30q-40 137 -79 274q0 44 23 84q4 -22 30.5 -64t29.5 -55h-9q-11 11 -21 12q0 -33 15 -81q33 -106 33 -140q0 -24 -6 -48z
M505 158q7 -4 7 -12q0 -4 -4.5 -13.5t-5.5 -14.5q-4 -6 -8 -12.5t-11 -7.5q-8 0 -14.5 4.5t-12.5 13.5q-4 11 -4 25q0 15 5 31.5t13 33.5q1 -5 0 -16q-4 -33 -4 -34q0 -13 4.5 -20t18.5 -9zM356 -130q0 -17 -2.5 -29t-13.5 -19q-10 -1 -17.5 5.5t-8.5 15.5q2 18 5.5 42.5
t16.5 50.5q0 -7 -5 -27t-5 -31q0 -20 16 -31zM1372 619q0 18 -18 18q-14 0 -24 -10q0 -14 12.5 -22t25.5 -15q2 6 3.5 14.5t0.5 14.5zM357 579q0 9 -2.5 15t-16.5 26q1 -6 0 -13.5t-2 -15.5q2 -12 21 -12zM318 596v7q0 6 -5.5 12.5t-11.5 6.5q-7 0 -7 -13q4 -6 10 -9t14 -4z
" />
    <glyph glyph-name="F" unicode="F" horiz-adv-x="2865" 
d="M2735 800q-14 -55 -48 -137q-45 -110 -55 -137q0 27 19 70q23 51 25 69q-47 -73 -133 -112q-67 -31 -165 -43q58 22 106 48t98.5 64.5t89 82t63.5 95.5zM2366 357q1 -4 1 -12q0 -13 -6 -30q-1 -2 -11 -27q-21 -12 -51 -22q-19 -6 -54 -15q-3 8 -3 16q0 13 5 25t13 28
q17 7 51 18t55 19zM2506 232q0 49 -15.5 89.5t-44.5 78.5q-4 -18 -5.5 -40.5t-1.5 -32.5v-23.5t1 -22.5q0 -30 -3.5 -52t-13.5 -44q0 27 -0.5 54t-0.5 55q0 69 3.5 113t16.5 91q44 -37 65 -95t21 -126q0 -45 -9 -93t-23 -88q-14 -78 -103 -126q-64 -30 -94 -44l-43 -23
q-17 -5 -32 -5q-26 0 -43 13q-47 56 -60.5 153t-24.5 187q4 8 10.5 34t16.5 35q10 -35 17 -137q11 -152 79 -202q5 -1 15 -1q18 0 30 5.5t31 20.5q8 8 19 26t18 25q2 -16 -6 -44.5t-9 -38.5q78 32 133.5 105t55.5 153zM2509 -76q-6 -18 -22 -31q-12 -10 -33.5 -20t-41.5 -20
t-34 -23q6 18 22 32q11 10 32 20.5t40 19.5q24 12 37 22zM1582 359q-9 6 -17 13q-35 -49 -65 -78q-40 -39 -83 -57q37 32 74 65q42 40 56 77q-18 9 -27.5 16t-18.5 22q-3 20 20 42q6 5 23 19q17 3 24.5 -8t7.5 -30q0 -14 -3 -23q-1 -6 5 -15q16 -22 16 -26q0 -9 -12 -17z
M2219 558q3 -11 3 -22q0 -14 -3.5 -25.5t-10.5 -29.5q-46 -19 -85 -56q-33 -31 -66 -78q-21 -30 -44 -63l-72 -106q-64 -92 -137 -159q-78 -72 -165 -113q-141 -68 -303 -68q-47 0 -95 6q-95 12 -173 71q-82 63 -109 153q-4 11 -6 27.5t-2 29.5q0 54 25 99.5t72 84.5
q75 35 111 55q64 35 91 81q-9 -29 -27.5 -50.5t-46.5 -41.5q-20 -14 -52 -32q-27 -15 -55 -30.5t-47 -30.5q-23 -19 -37 -41q-9 -15 -13.5 -32t-4.5 -37q0 -25 9 -58q48 -91 155 -136q92 -39 214 -39q43 0 76 4q93 0 189 47q79 39 168 113q74 62 143 146q57 70 118 164
q38 59 77 98q51 51 103 69zM1858 -116q-6 -6 -15 -20q-20 -29 -26 -37q-5 4 -31.5 14.5t-26.5 22.5q0 3 2 9l40 51q25 -10 36 -15q21 -10 21 -25zM534 492q-6 -17 -9 -21q2 18 2 30q0 22 -4.5 40.5t-15.5 32.5q0 18 12 21q19 -29 19 -69q0 -19 -4 -34zM595 379
q-13 -15 -26 -15q-7 0 -10 2q-6 3 -19.5 -6t-20.5 -9q-5 0 -11 3q-10 10 -10 24q0 8 2 15.5t3 11.5q4 -2 7 -11.5t8 -11.5q7 -3 13 0t14 16q-2 12 -2 17q0 14 6 26h5q3 -5 3 -14q-1 -14 -1 -20q0 -19 21 -14q5 5 5 16q-1 11 -1 16q0 13 7 19q6 -11 8.5 -21t2.5 -23
q0 -12 -4 -21zM895 251q0 -98 -10 -163q-13 -84 -47 -148q-37 -73 -116 -103q-20 -8 -265 -37q70 15 124 33q68 23 121 55q61 35 101 81q45 51 63 118q12 45 12 90q0 67 -22 132t-60 124q0 -56 3 -132q7 -177 7 -221q-9 2 -11 13.5t-3 22.5q0 44 -10 194q-5 75 -5 118
q0 47 1.5 64.5t6.5 49.5q50 -60 80 -136t30 -155zM724 116q0 -52 -5.5 -89.5t-22.5 -72.5q-6 -13 -19.5 -23.5t-28.5 -16.5q-14 -1 -27.5 5t-23.5 17q-15 18 -19 24t-10 18q-22 -63 -25 -69q-20 -39 -55 -47q-42 0 -73 43q-14 20 -41 78q-31 -13 -43 -57q-7 -32 -10 -47
q-8 -42 -23.5 -55t-40.5 -13q-10 0 -16 1q-40 17 -66 44q-30 31 -35 70q-10 37 -10 67q0 43 15.5 80t46.5 64q20 23 114 72q72 38 88 95q-4 -28 -18.5 -50t-40.5 -44q-18 -15 -50 -37q-26 -18 -52 -35q-29 -21 -46 -37q-21 -20 -31 -43q-4 -9 -6 -17.5t-2 -19.5
q0 -34 30 -79q17 -24 40 -37.5t50 -13.5q17 12 26 28t21.5 64t26 63.5t37.5 21.5l36 -72q24 -41 59 -52q18 0 39 21q16 16 26.5 37.5t10.5 45.5q0 16 -4 33.5t-12 45.5t-8 55q0 20 3.5 35t12.5 34q14 -89 23 -133q16 -78 60 -117q5 -2 13 -2q9 0 18.5 4t16.5 10q28 30 28 67
q0 16 -5 27q-10 31 -27 62q-5 -11 -9.5 -41.5t-14.5 -44.5q-4 23 -4 53q0 74 25 131q25 -28 39.5 -66.5t18.5 -84.5zM1556 417v11q3 17 -17 17q-12 0 -15 -12q9 -9 14 -13q10 -8 18 -3z" />
    <glyph glyph-name="G" unicode="G" horiz-adv-x="2254" 
d="M2151 532q-2 4 -26 25q-10 9 -17 21q0 -45 9 -118q20 -163 20 -207v-41q0 -94 -6 -139q-10 -74 -41 -128q12 25 16.5 56t4.5 69q0 17 -0.5 34t-0.5 35l-49 496q-2 8 -2 13q0 16 8 33q5 10 18 29q22 -49 36 -86q19 -49 30 -92zM1763 630q-8 -4 -14 -4q-5 0 -8 3l-8 8
q-5 -9 -11 -18t-16 -9q-9 -2 -15.5 3t-8.5 13v23q0 12 1.5 23.5t12.5 19.5q2 -6 0 -18t-2 -18q0 -14 12 -19q15 2 18 9q0 8 -1 16.5t-2 16.5q0 17 12 24q2 -4 2 -15v-13q0 -12 3.5 -18t16.5 -6q4 4 4 11q0 5 -3 14t-3 14q0 9 10 13q9 -18 9 -38q0 -18 -9 -35zM1806 800
q2 -10 -4.5 -16.5t-16.5 -9.5q-174 -54 -348 -107q0 13 15 21t30 15zM1759 416q-3 -11 -9 -19.5t-28 -37.5q-15 11 -30 23q-8 7 -16 15q4 14 17 31.5t20 26.5q-5 7 -24.5 22t-20.5 23l46 45q15 -11 23 -18q17 -14 16 -21q-8 -6 -19 -23.5t-20 -25.5q17 -10 25 -17
q13 -11 20 -24zM1483 594q4 -11 -2 -20.5t-12 -18.5q-12 -9 -23 -15t-22 -6q-6 0 -14 3q-12 6 -12 22q0 11 6 20t12.5 17t13.5 12q-1 -5 -9 -19t-5 -22q5 -10 15 -10q6 0 12.5 2t12 3.5t11.5 9.5q-3 7 -16.5 15.5t-18.5 14.5l17 21q9 -7 20 -14t14 -15zM1533 451
q-9 -16 -17.5 -29.5t-22.5 -28.5q-17 8 -33 16q-20 11 -21 24l22 30q15 18 28 18t25 -16zM1167 687q4 -11 -6 -24q-10 2 -15 2q-11 0 -20.5 -5.5t-13.5 -16.5q-6 -35 -8 -52q-5 -30 -14 -50q-8 11 -16 30q-19 44 -27 55q-1 -8 -8 -8q-2 0 -9.5 3t-11.5 2q-10 4 -10 19v6
q2 4 2.5 7t3.5 10.5t10 11.5q29 -7 44 -40q12 -29 24 -57q8 47 14 69q12 41 42 41q8 0 19 -3zM1281 341q-3 -15 -8 -27.5t-16 -19.5q-6 -3 -18 -3q-13 17 -13 40q0 20 12 46q7 15 23 42q-2 -10 -12 -35t-10 -38q0 -18 12 -30q10 -2 18 11t12 14zM1018 351q-2 -23 -9 -34
t-19 -15q-11 0 -14.5 10.5t-5.5 15.5q0 25 8 50q12 31 18 46q2 -9 -6 -33.5t-8 -34.5q0 -20 18 -25q4 2 8 11.5t10 8.5zM1969 129q0 -36 -5.5 -64t-20.5 -51q-41 -29 -97 -29q-17 0 -30.5 3t-29 9.5t-22.5 17.5t-11 27q-28 -36 -68.5 -54.5t-87.5 -18.5q-34 0 -70 11
q-20 17 -43 17q-18 0 -38 -9q-6 -3 -24 -13q-24 -9 -57 -9q-34 0 -55 14q-12 11 -24 29t-19 28q-9 -17 -18 -33q-13 -20 -28 -27q-8 -1 -15 -2.5t-17 -1.5q-20 0 -32 8q-20 18 -25 37q-14 -17 -21 -24q-22 -20 -50 -20q-27 0 -47.5 8.5t-34.5 29.5q-2 10 -2 18q0 10 4 17
q-27 -26 -55.5 -42.5t-58.5 -16.5q-22 0 -42 10q-48 37 -53.5 111t-10.5 142q-27 -42 -52 -62q-35 -28 -77 -28q0 -68 -49 -118q-11 -11 -183 -113q-41 -26 -106 -38q-96 -12 -192 -25q124 51 249 102q147 63 245 131q0 20 -15 58t-15 56t8 33q5 11 9 19.5t11 15.5l10 -28
q9 -17 20 -19.5t17 -3.5t15 -1q43 0 77 31q4 4 35 46q13 18 24 24q2 -8 3.5 -25.5t1.5 -37.5q0 -17 -0.5 -34.5t-0.5 -34.5q0 -53 11 -82q15 -39 56 -58q7 -2 21 -2q35 0 76 30q16 12 40 33q2 -4 2 -13v-14q0 -15 6 -21q24 -30 62 -30q11 0 26 3.5t34 23.5q31 32 33 33
q1 -5 -1 -11q-5 -17 -5 -18q0 -7 6 -12q9 -10 19 -15.5t23 -5.5q3 0 11 2q22 2 41 26q14 20 29 40q2 -7 -2.5 -19t-6.5 -17q38 -36 95 -36q37 0 67 15q-17 23 -17 51q0 21 11 49.5t22 54.5q23 23 38 34q23 17 44 17q11 0 20 -4q13 -14 19.5 -32t6.5 -36q0 -29 -13 -65.5
t-25 -68.5q33 -11 66 -11q79 0 134 53q10 12 14 18q9 12 17 14q-3 -12 -3 -24t6 -19q14 -14 33.5 -20.5t43.5 -6.5q21 0 42.5 5t38.5 13q2 14 2 22q0 16 -12 74q-6 29 -6 45q-40 227 -80 455q11 22 16 33q10 21 23 29q2 -8 45 -113q17 -41 21 -71q-5 5 -16.5 23.5
t-21.5 23.5l-10 -19q13 -97 34 -224q18 -111 37 -222zM737 580q0 -36 -27 -50q-8 3 -15 13q-3 5 -8 18q0 24 7.5 44.5t21.5 40.5q-5 -13 -10.5 -28.5t-5.5 -29.5q0 -17 13 -30q8 -1 14 10t10 12zM1267 -70l-14 -28q-10 -16 -26 -16q-7 1 -24 -4t-24 -5q-16 0 -24 15
q-27 -6 -56 -21q-9 -5 -53 -31q-33 -19 -53 -27q-32 -13 -60 -13q30 7 59 22q15 8 55 32q60 38 67 42q21 11 45 18q8 2 20 -7t18 -9t11 4l22 26l-6 -20q13 -5 24 5q18 17 19 17zM416 675l-3 -22q-5 -3 -12.5 1.5t-12.5 2.5q-12 -19 -19.5 -60t-13.5 -56q13 -7 24 -18t21 -25
q-5 -19 -51.5 -22t-58.5 -27q2 -25 10 -65.5t15 -75.5q2 -15 4 -31t2 -29q0 -20 -4 -40.5t-13 -40.5q9 29 9 56q0 21 -4 44.5t-10.5 48.5t-11.5 53t-5 47q0 30 10 59q32 29 69 29q-15 19 -36 12q-9 -7 -13 -10q-4 5 -0.5 13t8.5 15q12 11 25 8q-12 36 -18.5 49t-18.5 27
l-8 -18q-14 9 -18 13q-9 8 -11 19q3 16 6 27.5t15 13.5q20 -15 36.5 -47t24.5 -48q9 41 13 62q9 40 31 40q7 0 19 -5zM749 -73l-24 -42q-10 -13 -22 -13q-11 8 -23.5 15.5t-24.5 12.5q12 21 20.5 33t21.5 26q25 -12 52 -32zM649 -94q-14 -25 -21.5 -36.5t-17.5 -18.5
q-3 3 -30 11.5t-25 24.5q11 18 17 26q10 14 22 24q14 -6 28.5 -12.5t26.5 -18.5zM1555 125q-2 12 -3.5 19.5t-5 18t-10.5 16.5t-17 6q-14 0 -32 -11q-13 -8 -28 -23q-4 -21 12 -46q6 -9 21 -26q18 5 40 25q16 15 23 21z" />
    <glyph glyph-name="H" unicode="H" horiz-adv-x="1723" 
d="M1219 795q3 -8 3 -13q0 -11 -7 -23q-11 -15 -15 -21q-11 -1 -16 -1q-9 0 -11 7q-4 -10 -14.5 -14.5t-23.5 -4.5q-3 -2 -7 0q-7 7 -9 8q-1 4 -1 12q0 11 6 22q9 13 13 19q0 -2 -1 -7q-4 -13 -4 -16q0 -7 7 -11q23 -5 31 19.5t17 28.5l-2 -34q7 -4 11 -4q7 0 11.5 15.5
t11.5 17.5zM1249 681q0 -16 -9 -35t-17 -36l-102 -14q0 25 8 46t28 29q14 0 34 3q46 7 58 7zM1639 355q6 -36 6 -73q0 -31 -3 -57.5t-14 -74.5q-22 -79 -72 -140q-58 -71 -131 -82q-42 0 -165 -13q-66 -7 -103 -7q108 26 141 36q81 24 140 54q72 37 116 85q51 56 70 134
q0 61 -14 110.5t-43 99.5q-6 -35 -8 -113.5t-7 -118.5h-6q0 27 -1 81.5t-1 81.5q0 59 2.5 95.5t11.5 78.5q33 -34 53.5 -80t27.5 -97zM1045 509l-20 -40q-15 -24 -34 -22l-40 16q6 18 15.5 34.5t24.5 32.5q13 0 27 -7t27 -14zM1432 524q3 -27 3 -53q0 -86 -32 -159
q-16 -59 -91 -87q-94 -35 -114 -58q-29 -25 -64 -40.5t-70 -15.5q-16 0 -38 5q-23 -25 -56 -34t-76 -9q-20 0 -42 1t-23 1q-25 -5 -42 -18q-24 0 -48.5 -8.5t-47.5 -16.5q-18 3 -56 -10.5t-55 -13.5q-15 0 -25.5 5t-21.5 20q-13 36 -13 73q0 9 2 25q-32 0 -57.5 -7.5
t-48.5 -26.5q-9 -14 -31 -66q-10 -23 -20 -42q-17 -31 -33 -49q-22 -24 -51 -37q-36 -7 -83 -7q-35 0 -62 3t-58 9q46 6 84.5 15t74.5 24q41 18 70 42q34 28 55 68l36 82q12 24 26 38.5t38 23.5q12 0 38 8t38 8t20 -5q-3 -18 -6 -37t-3 -29q0 -19 5.5 -32.5t21.5 -22.5
q44 0 79.5 15t55.5 49v-24q0 -13 7 -18q21 7 41.5 25.5t27.5 39.5q2 -3 2 -12q0 -25 7 -29q18 3 34.5 28t23.5 29q4 -9 4 -20q-9 -36 -17 -72q40 9 73 22t63 33q-6 24 -6 49q0 90 65 147q5 6 14 9t17 3q5 0 15 -2q16 -9 23 -23t11 -35q0 -26 -8 -56q-12 -37 -17 -55
q50 6 94 34.5t72 74.5q2 -8 2 -12q0 -8 -6 -26t-6 -27q0 -4 2 -12q33 18 57 36q30 21 53.5 47t36 56t12.5 67q0 49 -14.5 93t-42.5 85q-11 -144 -22 -287h-7q0 65 2 118q7 184 7 199q0 1 10 42q6 27 15 39q30 -38 49.5 -90t26.5 -107zM522 -122q-19 -36 -38 -73l-116 -5
q0 22 10 41.5t27 34.5q15 0 49.5 2t38.5 2h14q10 -2 15 -2zM1082 253q-5 15 -18 23.5t-28 6.5q-13 -4 -23 -18.5t-14 -29.5q10 -15 12 -17q13 -16 30 -20q14 11 29 23q17 17 12 32z" />
    <glyph glyph-name="I" unicode="I" horiz-adv-x="4504" 
d="M4297 534q-10 -6 -22.5 -23.5t-22.5 -22.5q-13 12 -27.5 21.5t-35.5 19.5q-8 -5 -18.5 -23t-22.5 -22l-53 30q5 17 22 37q13 15 18 21q34 -11 58 -32l56 42q18 -13 29 -21q21 -17 19 -27zM4299 706q1 -14 -12 -20q-18 -5 -24 -7q-137 -31 -160 -36q-102 -24 -159 -40
q-74 -21 -155 -52q0 10 11.5 22t23.5 18q27 7 158 41q115 30 159 40q71 17 158 34zM4048 423q-26 -39 -28 -41q-12 -12 -23 -10q-4 7 -20.5 15.5t-16.5 17.5q11 18 16 27q11 17 23 23q17 -6 28.5 -13t20.5 -19zM3701 688q0 -15 -18.5 -47t-18.5 -44q0 -18 23 -27l12 22
q6 -4 6 -14q0 -13 -8 -27q-5 -5 -11 -8.5t-12 -3.5q-7 0 -12 4q-13 19 -13 40q0 30 26 70q6 10 26 35zM3893 276q0 -11 -2.5 -22t-7.5 -18q-16 -13 -21 -13q-6 0 -10 7q-6 18 -6 34q0 30 24 82q17 38 21 49q0 -20 -15.5 -59t-15.5 -57q0 -14 6 -28q10 -1 13.5 7.5t6.5 17.5
h7zM3732 441q3 -22 -15 -22q-12 1 -18 1q-19 0 -20 -18q-6 -50 -19 -93l-52 96q-4 -11 -13 -11q-4 0 -16 6q-6 5 -6 14q0 5 4 15.5t6 14t6 3.5q11 -4 16 -4q19 -14 32 -43q18 -39 23 -46q5 24 10 49q8 28 27 43q8 2 11 2q10 0 24 -7zM3403 678l-4 -22q-5 0 -16.5 5t-17.5 1
q-17 -21 -24 -60q-10 -57 -13 -65q-11 7 -23 41t-33 37l-12 6q-9 5 -12 10q-3 33 12 51q26 -12 39 -44.5l25 -62.5q10 44 16 68q12 45 36 45q11 0 27 -10zM3502 284q3 -5 3 -11t-2.5 -12.5t-7.5 -14.5q-9 -9 -18 -9q-5 0 -9 4q-12 15 -12 37q0 19 10 40q7 15 21 33
q-1 -4 -10 -26t-9 -33q0 -17 15 -28q8 -2 11.5 8t7.5 12zM4283 205q4 -13 6 -26t2 -28q0 -36 -17 -69q-26 -27 -66.5 -41.5t-85.5 -14.5q-55 0 -105 21q-47 -25 -105 -25q-29 0 -55.5 7.5t-47.5 22.5l-14 19q-3 -3 -24 -32q-14 -20 -31 -20q-22 0 -38 6t-25 22v6.5t-2 4.5
q-16 -20 -37.5 -31.5t-45.5 -11.5q-7 0 -19 2q-13 5 -24 14t-17 21q-22 -23 -43.5 -35.5t-47.5 -12.5q-17 0 -34 7q-9 7 -30 36q-32 44 -61 44q-9 0 -18 -3q-49 -9 -101 -43q-32 -21 -89 -70q-62 -55 -87 -73q-50 -37 -97 -52q-22 0 -36 6.5t-23 23.5q-4 16 -4 35
q0 37 18 77q9 20 39 69l-26 -58q-15 -38 -15 -66q0 -15 3 -23t13.5 -13t22.5 -8q62 16 140 82q53 47 78 69q59 53 106 77q60 31 126 31q12 -4 56 -60q18 -23 39 -23q11 0 26 6q25 7 60 40q22 21 32 28q0 -10 -4.5 -21t-12.5 -23q19 -19 48 -19q6 0 24 2.5t42 26.5
q14 14 35 44q3 -6 -5 -21q-4 -8 -4 -15q0 -5 5 -12q20 -18 40 -18q10 0 22 7t21 20q12 21 25 42q3 -5 -0.5 -17t-7.5 -26q0 -11 19 -11q22 -4 46 -8t46 -4t45 6q-1 6 -1 13.5v11.5q0 53 20 96.5t64 69.5q8 2 13 2q21 0 33 -17q21 -24 21 -60q0 -23 -8.5 -52t-16.5 -55
q10 -2 23 -3t25 -1q74 0 128 41q-42 99 -84 199q-12 11 -12 24q0 11 13 35q8 15 10 21q8 -11 50 -52q32 -31 40 -56q-8 -2 -19 5.5t-15 7.5q-6 0 -11 -8q19 -41 25 -54q15 -35 22 -59zM3326 355q-3 3 -10.5 9t-12.5 8q-39 -46 -93 -83q-48 -33 -104 -56q63 44 94 67
q55 41 89 78q-17 8 -25 12q-15 8 -20 19q6 33 38 51q13 1 23.5 -5t16.5 -18q-9 -12 -9 -21t11 -22t11 -20q0 -8 -9 -19zM3804 -16q3 -9 -3 -20q-9 -12 -12 -18q-9 -11 -36 -15t-35 -16q-9 0 -25 9t-25 9q-7 0 -14 -4q-21 -8 -45.5 -23l-49 -30t-48 -24t-48.5 -9q29 3 62 23
q10 6 58 40q28 21 50 31q29 14 56 14q11 0 16 -1q11 -11 22 -11q3 0 9 4q1 5 7 15t7 16h4l3 -20q14 -2 27 9q14 15 20 21zM3046 277v-33q0 -91 -7.5 -137t-22.5 -84q4 24 6 57t2 63q0 104 -28 254q-24 125 -48 251q10 38 29 65q6 -19 38 -88q23 -50 23 -80q-3 8 -10 17
l-14 18q-8 -5 -8 -17q0 -5 2 -15t2 -15zM2660 702q-4 -5 -5 -9.5t-1 -9.5q0 -8 6.5 -21t6.5 -18q0 -11 -13 -23q-5 6 -8 9.5t-9 2.5q-10 -28 -41 -52q-16 -12 -58 -36q5 5 36 31q43 36 58 61q-2 3 -17 13.5t-15 20.5q0 2 3 12t12 19q5 5 22 14q8 3 14.5 -1.5t8.5 -12.5z
M3366 -73q-8 -14 -18 -27q-6 -7 -22 -26l-30 18q-19 11 -29 21q-5 -3 -19 -25t-24 -22q-9 0 -19 14l-26 16q17 32 19 34q13 19 28 22q29 -15 33 -17.5t13 -13.5q2 1 23 26q15 17 29 13q16 -10 23 -15q13 -9 19 -18zM2722 490q-8 -5 -21 -28t-27 -25q-27 17 -54 35
q-12 -20 -19 -30q-13 -20 -26 -20q-4 0 -10 3l-25 12.5t-22 14.5q4 14 14 28.5t25 30.5l57 -25l46 39q19 -5 32 -12.5t30 -22.5zM2467 788q0 -27 -15 -51.5t-37 -40.5q1 12 14 34t13 32q0 7 -4 14q-36 -8 -91 -25q-102 -31 -158 -31q7 -12 10.5 -25t3.5 -28q0 -18 -8 -30
q-3 -1 -5.5 -6t-4.5 -6q2 16 2 27q0 18 -7 32q-2 9 -31 34q-14 12 -14 20t10 18q28 -7 60 -7q41 0 96 14q141 36 156 37zM2544 315q-11 -35 -39 -51q-6 -3 -13 -3q-19 0 -25 17q-2 10 -2 16q0 16 10 35q7 13 20 30q-9 -25 -17 -49q0 -6 4 -14.5t15 -8.5q7 0 11.5 2t7.5 3
q5 4 10 9t4 9q-2 7 -17.5 15.5t-15.5 15.5q0 3 8 13q4 6 12 0.5t12 -5.5q10 -4 14 -14t1 -20zM2355 540l-11 -6q-2 13 -11.5 24t-21.5 17q0 -44 14 -139t14 -143v-48q0 -81 -4 -118q-7 -61 -28 -112h-7q8 22 12 50.5t4 54.5q0 35 -8 106t-8 105l-40 334q1 2 14 29
q8 17 19 22q5 -8 13.5 -34t18.5 -37q2 -20 7 -39t23 -66zM2054 670q2 -6 -2 -13.5t-4 -11.5q-10 6 -14 8q-9 5 -15 3q-5 -15 -13 -59t-20 -63q-9 10 -21 42q-19 51 -56 51q-2 19 2.5 29.5t14.5 16.5q21 -12 37 -44q13 -28 26 -55q8 41 12 63q8 42 29 42q9 0 24 -9zM2129 474
q-2 -21 -6 -32.5t-18 -18.5q-8 0 -13 5t-10 15q-2 14 -2 22q0 18 7 38t18 38l-14 -60q0 -18 14 -29q7 -1 11.5 3.5t6.5 12.5l2 6h4zM2595 -74q0 -31 -22 -44q-12 -2 -21 18q-3 19 7 46.5t8 37.5l12 9q0 -10 -6 -31t-6 -30q0 -16 10 -25q7 0 10.5 9t7.5 10zM2872 328
q3 -26 5 -51.5t2 -51.5q0 -47 -6.5 -83t-23.5 -76q-33 -28 -71.5 -44.5t-78.5 -16.5q-15 0 -30 3q-29 15 -40.5 24.5t-20.5 22.5q-111 -34 -210 -96t-186 -148q-12 -5 -23.5 -8.5t-20.5 -1.5q-13 6 -26 13t-17 22t-4 33q0 33 15 78l16 46q-64 -39 -107 -62q-66 -36 -116 -53
q-28 -9 -59.5 -15t-59.5 -6q-34 0 -66 7.5t-65 23.5q-40 21 -66.5 58t-26.5 79q0 48 12 93t35 91q-7 -27 -13.5 -58.5t-6.5 -58.5q0 -32 8.5 -57t31.5 -45q33 -30 78.5 -45.5t93.5 -15.5q56 0 113 19q76 28 135 61q67 37 123 87q-5 36 -15 78q-26 113 -29 127q3 16 7 26
t21 39q16 -16 31 -44q6 -11 24 -48q-4 -4 -13.5 1t-12.5 5q-6 0 -6 -14q20 -46 20 -100q0 -93 -55 -159q-15 -54 -29 -108q0 -17 6 -30.5t21 -23.5q56 0 117 64q85 90 104 102q27 22 68 43q7 3 124 55q-7 28 -7 62q0 49 16 91.5t49 72.5h12q26 0 42 -17q16 -20 25 -49t9 -58
q0 -49 -21 -88q-4 -9 -17.5 -20t-17.5 -17q26 -9 49 -9q38 0 71.5 16t67.5 45q0 78 -11.5 167t-29 174.5t-35.5 169.5q7 20 10 28q12 29 27 36q3 -16 14 -41q5 -11 21 -43q1 -10 9.5 -31.5t8.5 -33.5q0 -3 -2 -13q-4 9 -14 21q-5 6 -19 20q0 -49 14 -130q19 -109 22 -134z
M1876 486q-7 -32 -8 -34q-5 -11 -14 -17q-23 0 -29 19q-1 8 -1 12q0 17 4 32q1 2 19 52q0 -10 -6 -30t-6 -30q0 -17 12 -28q10 -3 17 6l8 16zM1990 307l-28 -41q-2 2 -30 20q-18 12 -17 24l35 51q18 -11 28 -17q19 -12 19 -23q0 -7 -7 -14zM1745 168q0 -56 -9 -107t-30 -93
q17 63 17 119q0 21 -3 42l-71 514q-2 5 -2 13q0 14 8.5 29.5t17.5 30.5q23 -34 40 -83q8 -23 26 -92q-7 -1 -13 7l-20 32l-11 -16zM1960 164l-6 -22q-15 3 -23 3q-6 0 -9 -2q-6 -14 -18 -57q-6 -22 -11 -33q-2 4 -18 38q-10 21 -21 36q0 -10 -12 -10q-4 0 -10 2q-9 5 -9 16
l3.5 24.5t9.5 10.5q7 0 11 -2q15 -11 28 -36q10 -21 20 -41q3 5 9 38t24 43q24 0 32 -8zM1065 757q3 -5 -4.5 -13t-9.5 -11q-53 -12 -125 -38q-49 -18 -73 -27q2 11 11.5 21t21.5 16q44 13 89 27t90 25zM1355 386l-4 -20q-7 4 -15 8t-16 1q-4 -8 -5 -18.5t-1 -23.5v-14
q0 -13 -1 -22t-5 -19q-10 6 -31 46q-16 31 -42 27q-4 5 -4 12t4 15l6 12q22 -6 38 -31q12 -23 25 -46q2 33 4 55t17 37q9 -2 19 -4q10 -4 11 -15zM1172 470q3 -13 -3.5 -26.5t-9.5 -20.5q-6 -9 -15 -9q-6 0 -13 7q-10 11 -10 30q0 14 7.5 33t10.5 28q2 -8 -2 -25t-4 -22
q0 -16 12 -24q6 -1 11 4t8 12l1.5 10.5t6.5 2.5zM736 625q1 -4 1 -10q0 -10 -3 -19l-9 -18q-4 -4 -12 -4q-7 0 -11 4q-7 7 -10.5 16.5t-3.5 19.5q0 13 2.5 22.5t9.5 27.5l10 14q0 -6 -6 -23t-6 -26q0 -12 7.5 -20t13.5 -8q3 0 6 4q3 2 6 9.5t5 10.5zM1524 551l-6 -4
q-2 2 -12.5 15.5t-17.5 17.5l-6 -19q4 -46 12 -92q14 -78 29 -155q6 -42 8.5 -67t2.5 -55q0 -33 -4 -63.5t-14 -62.5q-41 -53 -102 -59q-65 12 -142 85q-112 107 -129 118l-18 -94q-17 -51 -64 -66q-113 -47 -202.5 -93.5t-188.5 -114.5q-14 -10 -32 -10q-13 0 -24 3
q-15 6 -22 8q-15 12 -21.5 28t-6.5 37q0 19 4 34q9 36 34 75q16 25 51 69q-44 -14 -93 -49q-27 -20 -86 -70q-71 -61 -109 -83.5t-75 -31.5q-22 0 -36 4.5t-25 19.5q-13 13 -18.5 30.5t-5.5 39.5v20q2 9 2 12q12 44 48 92q10 13 72 83q-25 20 -36.5 46t-11.5 60q0 19 3 35.5
t9 39.5q13 46 41 105q14 30 48 94q-2 -7 -39 -103q-26 -67 -26 -110q0 -29 8.5 -51.5t31.5 -45.5q17 -4 25 18q5 13 10 15q-7 -42 -12 -62q-10 -38 -43 -41q-9 -24 -33 -52.5t-47 -54.5q-13 -19 -21 -36.5t-8 -35.5q0 -24 17 -48q8 -12 21.5 -16.5t30.5 -4.5q57 23 131 83
q15 12 75.5 63t102.5 77q59 36 115 48q-11 35 -21 81q-30 130 -33 142q8 23 13 34q9 20 22 19q5 -9 23 -36q27 -39 30 -65q-9 2 -15.5 5.5t-18.5 11.5q0 -64 16 -106q22 -56 74 -78l69 -42q-4 -9 -7.5 -33.5t-12.5 -34.5q-39 16 -64 24q-37 11 -68 11q-30 0 -54 -10
q-9 -18 -38 -58q-47 -65 -47 -102q0 -28 18 -54q10 -13 31 -13q6 0 13 1.5t10 2.5q26 11 58 35q20 15 54 44q26 23 54.5 44t55.5 34q99 42 148.5 65.5t82.5 49.5q-28 56 -84 117q-26 29 -109 107q-73 69 -106 108q-7 17 -7 37q0 41 27 80q74 39 165 67q74 23 169.5 41.5
t185.5 35.5h33q22 0 29.5 -4.5t11.5 -16.5q0 -77 -79 -164q-64 -71 -128 -141q21 43 55 88q10 13 117 139q2 6 2 10q0 8 -6 24q-7 6 -21 6q-6 0 -18 -2t-18 -2q-125 -25 -167 -34q-88 -20 -166 -44t-154 -59q83 -63 168 -134q81 -67 166 -143q67 -59 163 -149q23 -17 25 -18
q26 -17 49 -17q6 0 16 2q23 5 44 20t39 37l-8 78l-71 414q-5 10 -5 18q0 11 15 37q8 13 10 23q30 -51 42 -76q21 -44 27 -82zM1186 -104q-7 -7 -10 -11q-7 -8 -13 -8q-3 0 -8 3q-10 13 -10 34q0 19 10 39.5t24 36.5l-20 -62q0 -14 9 -23q6 2 10.5 11t7.5 11q6 -2 6 -9
q0 -4 -2.5 -11.5zM607 380q6 -5 6 -12q-8 -19 -8 -29q-6 -8 -10.5 -12.5t-12.5 -3.5q-9 9 -13 21t-4 24q0 15 6 37q3 11 11 35q2 -8 2 -13q0 -8 -3 -24t-3 -24q0 -19 14 -28zM553 679q-2 -9 -3 -15.5t-7 -4.5q-9 10 -10 11q-6 5 -14 3q-14 -58 -27 -115q18 -12 26 -19
q16 -13 13 -27q-4 -6 -4 -12q-6 1 -18 1q-42 0 -63 -29q0 -31 8 -72q11 -48 16 -74t7.5 -41.5t2.5 -37.5q0 -33 -10 -63q4 17 4 38q0 22 -3.5 41.5t-19.5 78.5q-6 20 -11 46.5t-5 47.5q0 32 11 60q7 10 18.5 17.5t25.5 11.5q-3 6 -10.5 7t-13.5 -1l-6 -8q-3 4 -1 13t5 15
q6 5 10 8t10 1q-12 33 -18 50q-13 32 -40 32q-6 5 -6 11q0 3 6 17q3 7 3 12l5.5 5.5t8.5 2.5q18 -14 30.5 -49t18.5 -44q10 50 15.5 76t16.5 26q10 0 29 -20zM810 41l-18 -33q-12 -21 -26 -24q-17 11 -25 16q-15 9 -26 7q-8 -14 -12 -20q-8 -12 -15 -19q-15 2 -27 7.5
t-26 14.5q10 22 16.5 34t20.5 28l49 -16l36 38zM4081 182q-6 13 -16 22q-13 12 -25 10q-25 -3 -41 -28q-9 -8 -9 -17t7.5 -19t17.5 -17q8 -8 16 -8q6 0 9.5 6t24 17.5t20.5 21.5q0 5 -4 12zM3303 405v14q-11 14 -25 14q-8 0 -14 -6q4 -9 16 -13.5t23 -8.5zM2642 670v8
q-5 6 -6 10q-13 0 -14 -4zM2690 184q-8 29 -9 31q-10 27 -31 45q-12 7 -23 7q-12 0 -24 -7q-1 -7 -1 -21q0 -25 4 -48t20 -60q27 11 40 18q24 13 24 35z" />
    <glyph glyph-name="J" unicode="J" horiz-adv-x="2990" 
d="M2820 590q-1 -15 -7 -31.5t-15 -34.5l-82 -20q7 33 10 41q9 24 28 29zM2656 435l-29 -52q-27 9 -30 11q-17 8 -17 19q9 18 13 27q8 15 18 24q19 -6 32 -11.5t13 -17.5zM2844 269q-20 -60 -69 -105q-54 -50 -112 -50q-28 -33 -100 -45.5t-98 -33.5q-17 3 -41.5 -10.5
t-33.5 -13.5q-8 0 -12 2q-24 -7 -47 -14q-14 0 -19 10.5t-7 24t-2 25.5v16q-17 -4 -29 -7t-22 -8q-29 -10 -40 -38q-14 -52 -23 -77q-17 -45 -52 -61q-38 -9 -85 -11.5t-108 -2.5q65 18 131 36q35 13 57 31q27 22 42 56q15 42 31 85q13 28 35 44q29 11 43 16q28 11 42 17
q1 -4 1 -13q0 -7 -2 -23.5t-2 -17.5q0 -20 14 -30q21 0 39.5 14t29.5 34v-34q14 -1 27.5 9t22.5 25q2 9 5 17t7 10v-39q14 0 27 11t21 27q1 3 2 14.5t10 11.5q1 -5 1 -14q0 -14 -3 -29t-6 -29q25 4 49 16t50 30q-4 17 -4 40q0 82 54 139q3 4 8 6.5t14 2.5t13 -1
q15 -10 21.5 -26t6.5 -36q0 -14 -2.5 -29t-7.5 -32q0 -6 -2 -8q29 9 57.5 32t49.5 54q0 25 -5.5 48.5t-16.5 47.5q-2 -4 -4 -7.5t-6 -1.5q-1 6 -1 18q0 21 7.5 42t19.5 37q15 -33 24.5 -68.5t9.5 -69.5t-10 -64zM1724 484q-7 -26 -11 -39q-8 -25 -24 -32q-14 0 -29.5 -3
t-30.5 -6q0 19 8.5 40t21.5 30zM2331 -116q-7 -26 -11 -40q-8 -26 -27 -28l-78 -8q-2 14 4.5 31.5t12.5 33.5q33 6 53 8.5t46 2.5zM1573 514q-2 -17 -19 -33t-35 -21q-10 -4 -50 -7.5t-56 -19.5q0 8 7.5 18.5t18.5 18.5h18q33 0 55 5t36 13.5t25 25.5zM2078 202
q0 -81 -21.5 -153.5t-64.5 -130.5q-20 -27 -47 -43.5t-57 -16.5q-67 0 -99 54q-15 21 -21.5 45.5t-6.5 54.5q0 37 10 75t28 72q-17 -13 -41 -19q-10 -2 -43.5 -6t-52 -10.5t-37 -25.5t-29.5 -51q-5 -15 -14 -62.5t-21.5 -68.5t-35.5 -34q-17 -6 -35 -6q-27 0 -47 17
q-22 21 -36 47q-26 -22 -82 -24.5t-70 -5.5l13 6q-1 1 -7 2q33 15 67 29q39 18 62 39q0 62 3.5 100.5t15.5 86.5q21 82 60 171q22 -60 22 -129q0 -25 -1 -37q-3 -16 -3 -23q-5 -46 -16.5 -90t-30.5 -92q16 -15 26.5 -21.5t26.5 -5.5q44 9 64 44q14 23 22 73q12 54 22 74
q19 37 62 50q6 41 13 82q11 46 43 69q32 6 42 -23q8 -30 8 -61q0 -7 -0.5 -15t-3.5 -22q33 11 66.5 40t44.5 62q0 28 -3.5 49t-12.5 56q-12 50 -36 96q-10 -24 -15 -84q-8 -103 -24 -103q0 83 11 152t38 129q22 -43 37.5 -93t20.5 -99q1 -11 1.5 -23t0.5 -23q0 -41 -8 -80
t-26 -73q-15 -19 -27 -35q-24 -33 -37 -63q-17 -37 -17 -76q0 -17 5 -40q18 -35 38 -55q27 -26 60 -26q18 0 36.5 6.5t32.5 17t29 26.5t28 31q27 32 40.5 75t13.5 89v17q-2 12 -2 17q0 39 -12 83.5t-48 116.5q-17 -58 -25 -128t-8 -137h-6q0 100 10 188t35 160
q37 -58 54.5 -132t17.5 -156zM953 800q1 -4 1 -12q0 -17 -10 -38q-30 -62 -30 -64q-6 -26 -12 -39q-10 -21 -25 -31q-2 8 2.5 21t5.5 17q-107 -98 -251 -110q49 19 92 42q49 26 90 56q47 35 79 71q36 40 58 87zM1238 151q-1 -2 -15 -37q-9 -23 -24 -21l-40 20l31 66
q26 -9 48 -28zM1318 99q-23 -91 -78 -150q-35 -38 -86 -38q-13 0 -25 3q-40 11 -65 52q-21 34 -29 81q-3 18 -3 34q0 36 13 70.5t35 69.5q52 76 105 153q-6 -39 -36 -82t-59 -83q-17 -24 -26.5 -47t-9.5 -48q0 -21 6 -39.5t22.5 -41t35 -36.5t41.5 -14q47 0 90 45
q35 37 55 88q0 37 -13.5 64t-43.5 43q-9 6 -21 6q-8 0 -20.5 -2.5t-17.5 -4t-13 -10.5t-16 -9q13 58 15 63q10 21 26.5 28.5t33.5 7.5q19 0 36.5 -9t33.5 -26q22 -48 22 -103q0 -30 -8 -65zM1013 260q0 -83 -13 -153.5t-44 -127.5q-16 -30 -42 -51.5t-57 -25.5q-60 0 -86 12
t-41 38q-10 19 -15 43.5t-5 47.5q0 30 5.5 60t26.5 102q-15 7 -27 26q-12 23 -17 34q-5 -20 -21 -37q-12 -13 -32 -28q-27 -19 -33 -25q-16 -15 -26 -33q-15 -61 -27 -86q-22 -45 -62 -63q-32 -8 -69 -12.5t-75 -4.5q59 28 119 57q32 19 53.5 42.5t32.5 57.5q0 27 11 49.5
t33 48.5q17 20 40 39q18 15 44 33q1 8 1 12q0 16 -5 44q-8 44 -8.5 50t-1 13.5t-0.5 12.5q0 21 4.5 36t18.5 31q4 -17 8 -83q1 -23 6.5 -56t18.5 -54q17 -27 49 -40q22 0 37.5 14.5t25.5 37.5q3 17 3 34q0 63 -35 116q-8 -26 -15.5 -74.5t-12.5 -67.5q-1 18 -1 27
q0 56 9.5 109.5t29.5 93.5q22 -33 34.5 -78t12.5 -91q0 -79 -31 -149q-8 -19 -23.5 -32.5t-33.5 -13.5q-12 2 -18 2q-11 0 -11 -12q-10 -25 -15.5 -46.5t-5.5 -45.5q0 -29 5.5 -50t20.5 -38t35.5 -25t42.5 -8q8 0 18.5 1.5t25.5 5.5q56 25 87 90q22 45 37 122q0 66 -16 124
t-48 120q-12 -108 -12 -222h-6q-6 62 -6 125q0 102 19 188q83 -110 83 -266zM516 338q0 -17 -8.5 -34.5t-16.5 -34.5q-6 3 -8 6q-8 14 -14 14q-37 -8 -70 -38q-24 -22 -54 -64q11 -1 31 7t28 8q6 0 9 -1l-16 -62q-13 -35 -42 -50q-101 -65 -202 -129q4 -22 22 -45
q13 -16 36 -37q28 -25 39 -36q21 -21 31 -42q-56 37 -83 59q-49 40 -59 84q0 6 -1 21t-1 23q0 14 1 21.5t7 15.5q23 32 73 55q70 33 81 41q9 39 26.5 76.5t44.5 71t61.5 56.5t72.5 30zM513 -76q0 -22 -4 -38t-16 -26q-20 0 -35 -2q-54 -7 -59 -7q0 20 6.5 37.5t21.5 29.5z
M2703 229q-4 15 -11 24q-10 12 -24 8q-11 -10 -18 -21t-9 -25q5 -10 17 -15q5 -2 22 -7q11 6 19.5 15.5t3.5 20.5zM1745 233q0 5 -2 8q-2 11 -10 17.5t-19 6.5t-15 -6.5t-7.5 -14.5t-3.5 -13q0 -12 13 -16q6 -3 10 -3q8 0 18 7q1 1 16 14zM1470 134q0 68 -19 131
q-18 -61 -35 -122q-3 -17 -5 -32t-2 -32q0 -34 10 -65q51 50 51 120z" />
    <glyph glyph-name="K" unicode="K" horiz-adv-x="3598" 
d="M3435 738l-6 -20l-214 -64q-115 -36 -208 -76q-1 7 5.5 15t16.5 16q70 22 134 44l135 45q82 26 137 40zM3392 573q-6 -14 -17 -29q-15 -19 -22 -28q-32 16 -63 33q-10 -3 -22 -22.5t-22 -19.5q-5 0 -9 2.5t-26 15.5q-16 9 -12 20q17 26 25.5 36.5t20.5 8.5q24 -14 49 -27
q2 2 20 28q13 19 25 19q10 0 21 -14q10 -5 17 -11t15 -12zM3044 688q-10 -24 -32.5 -37.5t-48.5 -13.5q9 9 28 18q26 12 30 15q-14 6 -24 9t-23 3q-14 0 -25 -8q5 16 21 26q9 4 21 4q14 0 28 -5q6 -2 25 -11zM3105 488q-18 -34 -25 -42q-11 -12 -24 -12q-5 6 -16 13
q-27 17 -29 19q23 36 26 39q10 12 23 16q16 -10 25.5 -16.5t19.5 -16.5zM2730 615l-9 -22q-6 2 -18 12t-20 10q-4 -8 -13.5 -53.5t-27.5 -56.5l-40 82l-7 -11q-13 7 -20 10q-13 7 -13 16q0 6 3.5 11t7 11t8.5 9q26 -10 43 -43q13 -29 26 -57q7 13 15.5 53.5t23.5 57.5
q27 -9 41 -29zM2862 346q3 -5 3 -9q0 -5 -6 -16t-7 -14q-11 -14 -27 -14q-14 15 -14 38q0 18 7 37q3 9 16 33q0 -8 -4 -26t-4 -29q0 -15 8 -26q9 0 17 9q8 12 11 17zM2536 358q-3 -18 -9 -30t-19 -19q-15 0 -21 16q-1 4 -1 12q0 21 14 48q7 13 15 27q1 -8 -7.5 -27t-8.5 -28
q0 -10 9 -21q10 -3 17 9t11 13zM2147 629q-2 -18 -3 -22q-5 -19 -22 -29q-11 -3 -17 2t-11 16q0 20 4.5 40.5t20.5 53.5q2 -10 -5.5 -31.5t-7.5 -30.5q0 -13 10 -24q13 -4 20 13q4 11 11 12zM3370 207q2 -11 5 -32.5t3 -33.5q0 -34 -10 -59.5t-35 -41.5q-26 -14 -60.5 -21
t-67.5 -7q-22 0 -52 3.5t-73 14.5q-51 -23 -105 -23q-22 0 -41.5 4.5t-36.5 14.5q-20 13 -29 19q-18 11 -26 23q-2 -2 -21 -30q-14 -21 -27 -27q-12 -4 -26 -4q-13 0 -26.5 4t-25.5 10l-27 27q-18 -21 -43 -31q-19 -7 -53 -11q-25 4 -48 24q-5 5 -9 12.5t-8 25.5
q-25 -27 -53 -43t-60 -16q-7 0 -19 2q-26 6 -52 48.5t-55 42.5q-6 -1 -10 -1q-55 -7 -113 -40q-43 -25 -100 -72q-83 -67 -97 -78q-56 -41 -106 -60h-19q-15 0 -22 1.5t-16 8.5q-42 37 -42 90q0 17 4 32q19 64 59 110q-15 -30 -31 -62.5t-16 -59.5q0 -19 9 -39
q14 -17 26 -24.5t22 -8.5q69 17 146 73q22 16 79 64q90 74 137 98.5t93 31.5q6 1 17 1q33 0 54 -21q14 -25 21 -36q13 -21 30 -29q14 -2 21 -2q38 0 75 27q22 16 61 58q-2 -11 -4 -16q-9 -24 -9 -31q0 -11 8 -19q25 -25 56 -25q34 0 66 26q12 10 50 53q1 -8 -5 -23t-6 -20
q0 -6 3 -11q23 -23 54 -23q13 0 19 2q18 3 30 19q17 24 35 48q1 -4 -1.5 -13.5t-2.5 -12.5q0 -6 2 -9q47 -36 106 -36q17 0 25.5 1t23.5 7q-3 15 -3 31q0 41 18 77q24 51 75 85q10 3 20.5 -2t20.5 -9q24 -25 24 -65q0 -24 -7.5 -53.5t-14.5 -55.5q33 -6 66 -6q41 0 74.5 9.5
t60.5 33.5l-102 224q6 36 25 67q34 -32 45 -44q24 -27 30 -50q-6 0 -13 3.5t-17 13.5q-2 -10 -2 -16q0 -20 12 -44q18 -37 37 -73zM2320 545q-6 -9 -6 -18q0 -7 8 -24q5 -11 5 -15q0 -10 -11 -20q-18 0 -44 -25q-41 -39 -45 -42q-50 -34 -77 -48q-43 -23 -83 -33
q88 50 119 71q65 44 107 94q-5 7 -18 13q-26 11 -30 21q4 19 18.5 33t34.5 18q10 2 15 -8q3 -9 7 -17zM2825 -44q3 -7 -3 -15.5t-11 -17.5q-15 -17 -41 -14q1 1 0 2.5t-2 1.5q-9 -8 -13 -11q-9 -7 -17 -7q-4 0 -10 3q-3 4 -11.5 8t-19.5 4q-8 0 -22 -4q-23 -13 -37 -23
q-31 -21 -61 -42q-26 -16 -53.5 -27t-55.5 -14q33 7 67 28q15 9 61.5 44t75 46.5t54.5 11.5q7 -5 13 -8.5t12 -3.5t10 3.5t8.5 16.5t13.5 15q-2 -11 -2 -16q0 -4 6 -5q12 -3 23 6q11 14 15 18zM1965 578q-8 5 -21 22t-22 25l-5 -14l46 -404q0 -50 -7 -97.5t-21 -96.5h-4
q5 19 7 49.5t2 59.5q0 16 -0.5 33t-0.5 34l-61 436q-5 16 -9 31t-4 29q0 38 26 61q36 -66 51.5 -102t22.5 -66zM1626 704q-15 -13 -32.5 -23.5t-38.5 -21.5l-77 -36q14 17 30 28.5t39 21.5q12 5 38 15t41 16zM2345 -113l-41 -51l-67 41q5 15 14.5 27.5t26.5 27.5
q18 -9 37.5 -19.5t29.5 -25.5zM1628 574q-10 -20 -41 -37q-42 -23 -50 -30q-3 8 8 20l10 10q-12 9 -24 19q0 12 8 24.5t30 28.5q8 1 14.5 -2t10.5 -9q2 -7 -1.5 -10.5t-12.5 -9.5q-5 3 -11.5 6.5t-10.5 -0.5l-10 -8q6 -8 16 -12t21 -4q5 0 17 2zM1527 790
q-3 -19 -14.5 -39.5t-26.5 -36.5q-1 7 6 19q16 27 16 32q0 7 -6 13q-30 0 -136 -16q-53 -8 -84 -8h-19q-7 1 -11 1q2 -12 3 -17.5t1 -16.5q0 -15 -3.5 -25.5t-13.5 -20.5q2 14 2 23q0 26 -12 41q-3 9 -18.5 18t-15.5 15q0 5 9 14q18 -4 34 -5t38 -1q38 0 90 6q122 14 151 14
q6 -2 10 -10zM2232 -113q-6 -14 -17 -27.5t-21 -27.5q-14 0 -33 12q-23 15 -31 17q4 12 16.5 27.5t24.5 29.5zM1762 563q-4 8 -13.5 17t-17.5 18l-7 -14q12 -76 26 -161.5t14 -148.5q0 -80 -19 -141q-22 -71 -72 -122q-18 -9 -49 -16q-11 -2 -92 -14q80 44 97 56
q52 35 83 81q0 41 -22 82q-17 31 -54 71q-26 29 -47 51q-41 41 -81 83q-61 62 -121 124q-67 73 -97 138q6 27 9.5 44.5t16.5 23.5q52 -45 76 -72.5t35 -49.5q-8 -2 -20 7t-18 9q-5 0 -9 -4l3 -14l282 -291q56 -73 56 -166v-16q-1 -6 -1 -9q16 18 22.5 39.5t6.5 50.5
q0 12 -1.5 26t-2.5 21q-18 100 -35 201q-21 114 -43 197q7 44 31 68q20 -42 42 -87.5t22 -81.5zM1248 505q2 -12 -3 -22t-14 -19q-10 1 -16.5 4.5t-7.5 9.5t-1 10v6q0 15 6 31q9 19 12 28q2 -5 0 -14q-5 -28 -5 -30q0 -16 16 -21q6 8 13 17zM1121 539q-8 -22 -15 -44
q-10 -24 -26 -41q32 45 32 110q0 55 -26 91q2 11 5 17t10 6q11 -22 17.5 -48.5t6.5 -52.5v-23q-3 -11 -4 -15zM1403 448q-1 -8 -8.5 -16t-14.5 -10q-33 -12 -123 -51q-137 -60 -181 -60q63 35 161 73zM1455 169q-7 -31 -13 -62q-10 -34 -38 -47q-50 -23 -97 -38t-98 -22
q-26 -3 -52 -3q-40 0 -76.5 8t-71.5 27q-42 64 -58 159q-11 68 -11 180v89v19v16q0 56 -6 112q-3 13 -6 30t-3 30q0 19 5.5 33.5t19.5 24.5q11 -40 14.5 -83.5t3.5 -101.5v-64q2 -19 2 -51v-44q0 -127 13 -179q23 -94 101 -128q38 -7 82 -7q49 0 96 9q84 18 161 60
q0 18 -19 42.5t-18 40.5l10 30q7 17 17 20q21 -18 31.5 -44.5t10.5 -55.5zM1292 280q-2 -9 -3 -17q-4 -11 -15 -5q-7 5 -16 5q-15 -56 -30 -111q-8 7 -25 44q-13 30 -32 30q-7 0 -10 -1q-4 4 -4 10q0 5 4.5 14t4.5 14q5 6 14 6q15 -14 28 -41q10 -22 21 -43q7 37 12.5 62.5
t22.5 41.5q7 2 16 -3.5t12 -5.5zM806 588q-3 -19 -4 -24q-4 -14 -13 -21q-9 0 -14 5t-10 15q-1 5 -1 16q0 15 5.5 30t15.5 30q0 -7 -3 -16q-7 -22 -7 -29q0 -9 4 -16l12 -11q7 10 15 21zM1404 -101l-44 -46l-70 42q-7 -4 -20.5 -24.5t-27.5 -17.5q-5 4 -25 12q-31 12 -24 28
q3 2 22 24q13 15 27 15q27 -16 54 -33q6 4 23 25q14 17 24 17q8 0 14 -5q13 -8 27.5 -17t19.5 -20zM595 702l-5 -21q-2 1 -14 10.5t-20 6.5q-7 -45 -11 -67q-7 -39 -19 -65q-6 6 -26 51q-15 33 -41 30q-8 5 -8 13q0 4 4 14t4 16q8 13 20 6q11 -14 30 -58q10 -23 19 -35
q4 12 10 61.5t32 60.5q10 -4 15 -9q1 -1 10 -14zM695 439q-4 -14 -13.5 -27t-18.5 -25q-38 11 -55 16.5t-28 14.5q-10 -13 -15.5 -18.5t-22.5 -21.5q-13 2 -36.5 12t-32.5 12q5 17 18 35q17 21 25 31q35 -12 47 -19.5t18 -20.5q15 20 23 30q15 19 29 19q6 0 14 -3
q13 -7 28.5 -14.5t19.5 -20.5zM1015 -56q1 -10 -2 -20t-12 -25q-6 -3 -12 2t-10 12q-4 11 -4 24t4.5 25t13.5 27q-2 -6 -4 -15t-2 -17q0 -12 2.5 -19t11.5 -15zM858 126q-23 -71 -118 -145q-46 -34 -92 -69q9 36 48 68q108 89 111 94q-9 5 -26 5h-13q-9 -2 -13 -2
q-136 -31 -271 -61q-53 -8 -100 -8q-50 0 -91 9.5t-81 34.5q-48 30 -48 90q0 16 2 24q0 20 12 49q26 64 26 79q0 18 -10 34q-1 9 -1.5 19.5t-0.5 15.5q0 62 27 126q21 49 65 112q-25 -54 -37 -83q-23 -54 -23 -91q0 -19 6.5 -38t20.5 -35q13 0 23.5 17.5t12.5 18.5
q-4 -39 -10 -57q-10 -31 -32 -49q-17 -2 -25 5q-23 -36 -23 -82q0 -35 17 -59q43 -45 108 -63q48 -13 129 -13q43 0 99 11q78 17 156 35q4 1 65 16q28 7 40 7q27 0 47 -15zM446 249q0 -22 -5.5 -34.5t-14.5 -19.5q-10 -2 -15.5 4.5t-8.5 15.5q-3 27 8 54q11 21 15 30
q0 -7 -6 -25t-6 -29q0 -18 12 -26q8 1 12.5 11t8.5 19zM3152 140q0 12 -4 21.5t-13 23.5q-15 16 -41 16q-15 -7 -28.5 -22.5t-21.5 -32.5q8 -15 23 -26t31 -15q29 10 54 35zM2301 519q-2 8 -3 13t-5 9q-13 4 -21 -6q3 -5 13 -11t16 -5z" />
    <glyph glyph-name="L" unicode="L" horiz-adv-x="3250" 
d="M3103 800q0 -17 -11 -40q-6 -12 -22 -38l-127 -13q0 17 11 40q17 36 18 38q44 6 65 8q41 5 66 5zM2862 658q-2 -15 -9.5 -28t-32.5 -41q-10 3 -39 18q-19 9 -23 11q3 17 19.5 40t24.5 34q15 -4 31 -14q19 -14 29 -20zM2321 584q-5 -8 -5 -19q0 -8 5 -23t5 -20
q0 -12 -22 -12q-24 -32 -64 -57q-35 -22 -73 -34q13 13 65 46q44 29 62 55q-1 1 -27 14q-17 8 -22 21q5 16 22 36t31 20q16 0 23 -27zM3070 387q-5 -55 -48 -108q-38 -46 -92 -76q-16 -8 -40.5 -12.5t-48.5 -4.5h-25q-10 2 -14 2q-29 -29 -84 -42q-145 -34 -156 -41
q-6 3 -13 3q-10 0 -29 -9.5t-26 -9.5q-12 0 -23 11q-20 -10 -43 -17.5t-44 -7.5q-17 0 -34 6q-13 11 -14.5 42t-2.5 34q-42 -7 -63 -12q-38 -10 -52 -40q-18 -64 -32 -90q-25 -47 -69 -68q-28 -10 -65.5 -14.5t-76.5 -4.5q-18 0 -52 1t-49 1q45 11 91 21q48 12 92.5 31.5
t76.5 47.5q36 31 58 75q4 7 17 45q17 50 48 68q54 14 109 29q1 -7 0 -23.5t-1 -17.5q0 -19 4 -29.5t18 -17.5q41 0 72.5 13t50.5 43q5 -4 5 -11q0 -4 -2 -12t0 -14q19 0 36.5 13.5t26.5 33.5q2 5 2.5 7t5.5 1q-3 -18 -3 -27q0 -7 5 -12q20 3 36 23q17 27 24 38q1 -4 1 -12
q0 -12 -6.5 -35.5t-6.5 -30.5q29 5 64 20t67 36q0 75 17 125q24 70 80 100q16 2 29 -6t17 -23q11 -22 11 -51q0 -21 -4 -40t-21 -62q40 0 82 33q34 27 65 71q0 80 -40 135q-2 10 -2 17q0 22 10 44.5t24 34.5q21 -39 33 -80t12 -81q0 -25 -1.5 -35t-6.5 -28zM2374 -67
q-8 -31 -12 -47q-9 -30 -29 -39q-14 2 -20 2q-13 0 -56 -10q-22 -5 -32 -4l15 42q10 27 22 39q21 6 56 10q55 7 56 7zM1678 648q-5 -27 -30.5 -46.5t-56.5 -26.5q-33 -3 -66 -5q-38 -6 -57 -33q4 13 16 27t42 37h33h13q7 0 15.5 0.5t23.5 3.5q22 6 38 16t29 27zM1973 421
q0 -81 -11.5 -152.5t-38.5 -131.5q-25 -47 -53 -82q-34 -42 -73 -69q-67 -21 -195 -36q-74 -9 -121 -15q-63 0 -94 47q-63 -17 -137.5 -24.5t-153.5 -7.5q124 26 142 31q77 22 129 62q-2 11 -2 24v20q0 68 23 132q27 74 87 151q10 -23 15 -49.5t5 -53.5q0 -14 -2 -33.5
t-4 -33.5q-8 -44 -22 -84q-9 -27 -31 -77q9 -6 23 -10.5t26 -4.5q11 0 17 2q46 17 83 63q33 41 50 92q1 8 1 16.5v13.5q0 92 -45 159q-23 -102 -45 -204q0 158 48 308q35 -40 51 -95.5t16 -121.5q0 -59 -15 -116t-42 -110q-9 -16 -30 -40q-11 -12 -21 -24q118 17 223 88
q51 35 93 83.5t64 103.5q10 24 14 48.5t4 51.5q0 59 -19.5 119t-52.5 114q-14 -55 -16 -173t-14 -172q-7 64 -7 141q0 80 9 160t28 154q45 -51 69.5 -120.5t24.5 -143.5zM785 680q2 -10 2 -13q0 -15 -22 -15q-16 0 -20 -3t-4 -13l2 -12q0 -45 -14 -87q-12 12 -25 37
q-16 30 -23 39q-4 -8 -12 -8l-15 3q-7 7 -7 15t6.5 20.5t8 17t6.5 4.5q9 -3 13 -4q11 -14 24 -37q7 -12 20 -38q5 30 11 60q11 36 36 36q3 0 13 -2zM743 483q0 -16 -8.5 -38.5t-16.5 -42.5l-106 -15q-1 4 -1 13q0 14 8 32q12 28 13 31q21 9 58.5 13t52.5 7zM1387 586
q0 -16 -4 -28.5t-21 -47.5q-39 -12 -78 -39q-32 -23 -68 -59q-14 -15 -46 -51q-59 -68 -76 -86q8 -91 10 -98q12 -53 49 -75q33 0 60 38q33 47 50 55q3 -14 3 -25q0 -39 -35 -83q-31 -36 -61 -71q-12 -3 -24 -3q-18 0 -30 8q-30 36 -43 96q-4 20 -14 110q-72 -78 -147 -134
q-82 -62 -167 -98q-59 -25 -117.5 -38.5t-120.5 -13.5q-72 0 -144 22t-123 60q-64 48 -82 112q-4 12 -7 33t-3 36q0 47 17 90t50 74q29 30 73 52q25 13 79.5 32.5t82.5 33.5q44 21 75 52q-19 -27 -44 -46q-21 -16 -56 -32q-24 -12 -61 -26q-47 -18 -60 -24q-34 -15 -54 -28
q-26 -17 -43 -39q-26 -36 -26 -86v-24q3 -12 4 -17q45 -93 141 -143q90 -47 204 -47q159 15 291 82q139 71 243 197q0 72 -2.5 130.5t-14.5 175.5q10 26 14 38q9 22 23 29q9 -50 12.5 -114t3.5 -137v-81l130 140q40 38 74 60q42 27 83 38zM1222 -109q-6 -30 -10 -45
q-7 -27 -27 -33l-101 -13q7 39 9 46q8 26 26 38q17 0 31 2q49 7 52 7q6 0 20 -2zM2886 311q-4 18 -8.5 30.5t-15.5 23.5q-16 2 -20 2q-8 0 -16 -4q-12 -17 -17 -26q-9 -16 -7 -30q8 -10 19 -17q5 -3 21 -10l24 12q15 8 20 19zM2297 559v5q0 15 -16 15q-8 0 -9 -7
q12 -10 25 -13zM1465 178q4 16 4 35q0 32 -13 62q-27 -48 -54 -95q-12 -31 -12 -54q0 -25 14 -49q25 27 37 46q18 27 24 55z" />
    <glyph glyph-name="M" unicode="M" horiz-adv-x="4576" 
d="M4091 759q-25 -29 -86 -46q-83 -23 -98 -31l-117 -39q1 7 7.5 14.5t15.5 12.5q139 44 278 89zM4124 618l-33 -48q-18 5 -26 8.5t-48 27.5q-6 -5 -24 -31q-14 -21 -26 -21q-11 0 -23 13q-3 2 -17 6.5t-14 10.5q0 4 4 9l18 30q13 19 25 19q9 0 21 -12l37 -20l52 46
q2 -2 33 -16q25 -11 21 -22zM3881 563q-14 -31 -36.5 -53.5t-51.5 -31.5q-6 2 -17.5 0t-14.5 -2q-6 0 -10 2q10 9 43 23q19 8 27 14q-32 6 -63 12q-9 0 -18 -2.5t-17 -7.5q5 19 21 36.5t38 28.5q23 2 48.5 -5t50.5 -14zM3671 638q0 -12 -4 -24.5t-14 -17.5q-7 -2 -12.5 3.5
t-7.5 12t-2 12v8.5q0 24 12 48q-2 -12 -2 -24t2.5 -20.5t9.5 -15.5q7 -1 10.5 7t7.5 11zM3499 682l-6 -22q-9 11 -26 9q-9 -54 -17 -107q-13 5 -25 27q-24 43 -43 43q-8 0 -13 -2q-8 5 -8 13q0 5 4 15t4 14q5 5 12 5q8 0 13 -5q10 -10 22 -27q15 -25 30 -49q4 35 8 58.5
t19 40.5q21 2 26 -13zM4368 185l-34 -64q-51 13 -103 13q-32 0 -63 -4.5t-73 -13.5l-226 -64q-26 -65 -89 -110q-22 -16 -214 -102q-26 -7 -128 -13q-44 -3 -77 -11q104 36 161 58q95 37 158 68q76 38 148 88v8q-17 0 -51 -3.5t-45 -3.5q-30 0 -50 7.5t-35 29.5q6 56 19 86
q20 47 63 60q34 0 63 -18q24 -15 49 -45l18 -39q35 10 77 21q86 23 129 38q-48 17 -104.5 29.5t-122.5 21.5q5 34 19 67q55 0 111 5.5t103 16.5q-31 76 -61 153q-2 14 11 41q6 13 13 26q20 -9 40 -27q15 -13 31 -35q-5 -10 -20.5 -13t-15.5 -9t5 -15q4 -13 25 -49
q17 -29 17 -51q0 -11 -2 -17q-10 -27 -15 -39q-10 -24 -25 -30q135 -39 294 -61zM4136 -69q-6 -6 -20 -31q-7 -13 -14 -18l-57 26q12 23 16 31q10 17 22 28q16 -6 33 -12q20 -9 20 -24zM3737 368q-4 -15 -8 -19l-24 8l-8 -2q-8 -13 -12.5 -41t-9.5 -38q-11 7 -18 21
q-11 23 -21 46q0 -8 -11 -8q-9 0 -15 4q-4 5 -4 13q0 7 4 16t6 13q25 6 41 -36q10 -27 18 -36q2 5 11 38q6 24 20 34q7 1 17 -0.5t14 -12.5zM3283 660q-3 -7 -8 -4t-10 7q-10 -3 -21 -20q-14 -22 -19 -27q-37 -29 -45 -35q-24 -17 -49 -24q44 35 66 52q40 32 51 63l-38 30
q3 15 17.5 32.5t27.5 17.5t20 -22q-5 -10 -5 -19t8.5 -24t4.5 -27zM4020 -84q-7 -19 -31 -32q-18 -9 -47 -16q-31 0 -43 2t-22 17q5 17 17 31t31 26q-5 3 -14 5t-24 2q0 6 7.5 14t8.5 9q10 -1 23 -3t28 -12q-6 -20 -31.5 -35.5t-27.5 -16.5q18 -17 44 -17q18 0 39.5 8
t41.5 18zM3467 378q2 -13 -3 -26.5t-14 -22.5q-11 -2 -18 5.5t-7 18.5q0 55 24 96q-8 -32 -15 -64q0 -20 12 -32q10 0 13.5 11.5t7.5 13.5zM3534 36q-17 -20 -41 -32t-50 -12q-11 0 -25 3q-40 18 -68 63q-11 18 -39 85q-12 -48 -43 -90.5t-74 -75t-90.5 -53.5t-97.5 -31
q-26 0 -42 17q-10 16 -14 32.5t-4 34.5q0 33 16 79q14 36 28 73q0 -15 -8 -40q-18 -57 -18 -73q0 -15 6.5 -28t23.5 -23q42 0 82.5 15.5t84.5 44.5q35 24 68.5 58t61.5 72q0 45 -26 110l-26 64l-55 85q3 29 4 36q5 21 16 27q33 -39 60 -98q16 -35 40 -106.5t42 -106.5
q28 -55 68 -94q16 -10 35 -10q15 0 31.5 5.5t32.5 14.5q14 6 14 16q0 6 -7.5 18.5t-7.5 18.5l-34 37l23 67q25 -19 36.5 -49t11.5 -64q0 -23 -3.5 -43t-11.5 -47zM3067 567q-9 -2 -17 11q-11 17 -16 20l-12 -18q18 -149 37 -297q0 -107 -4 -149q-8 -80 -35 -140
q21 81 21 169q0 15 -1.5 34t-2.5 29l-56 428q-2 8 -2 14q0 15 8 32.5t19 29.5q22 -47 36 -81.5t25 -81.5zM2679 737q-6 -7 -6 -17q0 -7 6 -19t6 -18q0 -10 -15 -17q0 7 -7 14q-27 -29 -53 -51t-59 -42l-2 3q8 8 50 45q32 28 49 51q-13 11 -26 23q0 39 32 50q8 3 13 -1.5
t12 -20.5zM3426 -79q-12 -19 -18 -28q-11 -18 -22 -27l-56 21q-2 -4 -15 -15t-18 -16q-29 8 -31 9q-16 5 -30 15q4 12 16 27.5t23 29.5q17 -5 31 -10.5t27 -13.5l36 42q15 -7 31 -15.5t26 -18.5zM2723 535q-8 -5 -18 -26t-24 -19q-10 10 -24 16.5t-27 12.5q-13 -18 -19 -26
q-12 -16 -24 -13q-4 7 -23.5 13t-19.5 14q0 4 3 10l30 46l53 -18l37 35q28 -12 36 -17q20 -13 20 -28zM2489 616q0 -13 -4 -20.5t-15 -18.5q-7 0 -11 9t-5 10q-3 28 11 57q4 8 18 31q-7 -17 -10 -27q-7 -19 -7 -32t6 -21q7 -1 13 10zM2462 798q0 -20 -7 -35.5t-38 -60.5
q-2 14 13.5 36t15.5 35q-30 0 -68 -12q-90 -28 -115 -28l-58 -6q1 -6 5.5 -21.5t4.5 -22.5q0 -14 -12 -23q0 23 -16 45t-39 31q0 5 2 9.5t10 13.5q32 -7 69 -7q51 0 103.5 13t101.5 35zM2549 395q-4 -22 -10 -32q-10 -18 -29 -20q-27 0 -32 10q0 41 25 69q-6 -15 -9 -22
q-6 -14 -3 -25q5 -7 14 -7q8 0 13.5 2t8.5 3l7 6q-12 10 -17 15q-10 9 -10 17t8 15q11 -3 21.5 -11.5t12.5 -19.5zM2348 533l-34 34q-4 -20 -4 -47q0 -31 4.5 -68.5t9.5 -72.5q8 -44 12.5 -93.5t4.5 -91.5q0 -102 -25 -178l4 121l-54 481q-9 12 -9 25t10 32q14 27 16 32
q26 -41 43.5 -85t21.5 -89zM2448 211q-2 -12 -3 -24q-3 -14 -13 -22q-7 -2 -11.5 4.5t-8.5 13.5q-1 5 -1 15q0 18 8 39q4 9 17 35q0 -9 -7.5 -29t-7.5 -29q0 -14 13 -23q3 2 6 11t8 9zM2031 676q-2 -10 -4 -17.5t-11 -2.5q-8 6 -14 4q-7 -12 -10.5 -50.5t-18.5 -49.5
q-5 5 -21 42q-11 27 -36 27q-7 6 -7 16q0 7 2 13.5t4 12.5t5.5 6.5t7.5 1.5q15 -11 26 -39.5t19 -37.5q0 1 8 47q5 30 24 40q13 0 26 -13zM2100 503q3 -25 -17 -45q-8 -2 -14.5 3t-9.5 14q-2 12 -2 17q0 19 9 42q4 9 17 36q0 -7 -4 -21q-9 -31 -9 -40q0 -14 10 -25q8 0 12 9
t8 10zM2590 -79q1 -10 -2.5 -20t-11.5 -23q-10 -2 -13 -2q-5 0 -10 4q-9 15 -9 32q0 18 8 38q5 12 18 35q0 -6 -10 -35q-6 -17 -6 -24q0 -19 19 -25zM2898 329q12 -63 12 -110q0 -38 -7.5 -72.5t-23.5 -69.5q-53 -59 -131 -59q-31 0 -57 10q-23 12 -40.5 31.5t-30.5 45.5
q-110 -37 -196 -95q-48 -32 -88 -70t-75 -86q-28 -21 -38 -27q-24 -14 -44 -14q-10 0 -19 3q-15 6 -24 24q-4 8 -12 33q-1 6 -1 19q0 27 11 61t22 64q-60 -46 -116 -79q-67 -40 -127 -60q-36 -12 -76.5 -20t-77.5 -8q-32 0 -62 5t-60 18q-44 17 -70 60.5t-26 91.5
q0 56 10.5 103t35.5 83q-25 -47 -25 -106q0 -67 33 -115q28 -38 74 -55q38 -14 91 -14q21 0 45 2.5t67 9.5q89 26 164 67t144 105l-46 198q-11 12 -16 18q7 25 13 37q11 21 23 23q20 -28 42 -69q11 -22 21 -41q-9 -6 -17 2.5t-11 11.5l-10 -10l28 -136q0 -30 -14 -57
q-26 -72 -51 -144q0 -17 6 -31.5t21 -28.5q44 0 84 27q29 20 67 63q66 78 78 88q26 23 58 35q33 19 91 45q39 17 57 25q-4 24 -4 55v22.5t5 33t16.5 46t28.5 39.5q15 -2 30 -3q17 -3 29 -11q15 -20 24.5 -41.5t9.5 -43.5q0 -7 -2 -19q-15 -44 -23 -65q-16 -38 -49 -49
q16 -20 37.5 -29t46.5 -9q6 0 15 0.5t24 3.5q26 8 47.5 21t47.5 35l-2 61l-84 398q-7 17 -7 36q0 40 28 73q30 -63 44 -97q11 -28 21 -62l-39 40l-5 -14q5 -44 17 -94q19 -80 38 -159zM1970 359q-6 -7 -12 -24q-11 -30 -26 -30q-4 8 -25 21.5t-21 23.5q0 9 10 19q8 17 12 25
q9 15 20 8q16 -13 23 -19q14 -12 19 -24zM1965 141q0 -17 -4.5 -30t-16.5 -23q-9 0 -14 8q-4 12 -6 16q0 26 8.5 50t23.5 43q-11 -32 -21 -63q0 -13 9 -27q6 2 10 13.5t11 12.5zM1761 521l-32 35q-2 -8 -2 -17v-14q0 -24 5 -55q12 -74 12 -92q6 -43 11 -98.5t5 -100.5
q0 -59 -6.5 -107.5t-21.5 -96.5q7 53 7 113q0 84 -15 183.5t-30.5 202t-15.5 178.5l23 47q23 -57 34 -86q21 -54 26 -92zM1631 432q1 -3 1 -10q0 -13 -9 -33q-3 -4 -10 -4t-12 3q-9 11 -11.5 25.5t-2.5 22.5q0 19 4.5 37t13.5 36q-5 -28 -6.5 -38t-1.5 -20q0 -24 12 -39
q8 -3 12 1q5 9 10 19zM1059 741q8 0 5 -7q-8 -16 -19 -19q-46 -16 -92.5 -32t-89.5 -34q15 18 38.5 31.5t52.5 23.5q52 18 105 37zM1354 373l-6 -22q-14 3 -20 3q-11 0 -12 -11q0 -52 -19 -84q-22 38 -43 76q-6 -17 -17 -8q-4 5 -4 12q0 3 2 12t2 14q4 7 10 7q5 0 13 -4
q21 -37 42 -73q7 55 8 58q5 15 18 28q8 2 15 -2t11 -6zM1128 469q-2 -15 -4.5 -25.5t-7.5 -21.5q-8 -4 -15.5 2.5t-9.5 13.5t-2 17q0 16 3 31t8 33q2 -6 2 -11t-2 -17t-2 -19q0 -19 16 -26q2 2 5.5 11.5t8.5 11.5zM734 596q1 -8 -1 -19.5t-6 -20.5q-7 -5 -14 -5t-14 5
q-14 15 -14 37q0 17 7 37q1 3 15 34q-1 -4 -6.5 -24t-5.5 -31q0 -20 17 -32q17 -2 17 16zM1541 -82q-13 -21 -35 -37t-54 -30.5t-48 -22.5q-31 -15 -50 -28q-2 5 2.5 13t4.5 11q30 17 67 36q56 29 113 58zM932 211q0 -15 -2.5 -27t-11.5 -21q-7 -1 -14 5t-10 14t-3 21
q0 15 4.5 30t12.5 32q0 -6 -4 -22t-4 -25q0 -21 19 -29q3 5 6.5 12.5t6.5 9.5zM1481 298q4 -27 7 -61t3 -62q0 -33 -3 -62.5t-11 -62.5q-29 -25 -47 -35q-28 -16 -55 -16q-19 0 -37 9q-45 25 -105 77q-51 44 -101 89q-12 -37 -23 -73q-18 -40 -54 -53q-48 -21 -97 -43
t-92 -44q-89 -48 -173 -123q-15 -14 -32.5 -21.5t-36.5 -7.5q-13 0 -28 5q-25 11 -30.5 36.5t-5.5 65.5q0 38 25 88q18 33 26 48q-46 -15 -106 -68q-40 -37 -59 -54q-46 -43 -81 -62q-47 -26 -96 -26q-21 11 -38 29t-19.5 33.5t-3 23t-0.5 11.5q0 30 7 54.5t21.5 51
t40.5 57.5q20 24 48 53q-21 14 -29 35.5t-8 51.5q0 17 1 34.5t2 34.5q8 39 27 80q15 32 40 75q-20 -52 -30.5 -91.5t-10.5 -63.5q0 -25 8.5 -47t26.5 -39q13 -3 20 13t12 17l-10 -58q-10 -33 -39 -42q-40 -52 -79 -104q-11 -19 -18 -40t-7 -43q0 -20 6 -41q14 -27 44 -37
q39 6 76 27q27 16 67 51q42 41 63 60q36 34 65 53q40 26 71 41q40 20 78 25q-6 23 -14 97t-26 109q3 26 8.5 40t19.5 21q20 -37 29 -55q17 -33 17 -58q-10 3 -20 14q4 -43 9 -85q6 -27 22 -45q21 -19 52 -40q21 -14 55 -34q-3 -29 -7 -40q-7 -23 -21 -27q-27 14 -60 23
t-66 9q-41 0 -74 -16q-34 -42 -48 -97q-2 -9 -3.5 -19.5t-1.5 -26.5q0 -24 2 -33.5t10 -25.5q15 -18 37 -18q11 0 16 2q26 12 50 30t80 70q36 35 45 42q41 35 85 56q17 8 78 34q85 36 127 69q-30 53 -83 107q-29 30 -101 93t-103 95q-6 20 -6 40q0 28 10 54t28 48
q65 29 145 52q65 19 152 36q62 12 156 28q9 0 19 -0.5t17 -6.5q7 -13 7 -27q0 -19 -14 -44.5t-26 -47.5q-2 -3 -51 -68q-54 -72 -78 -117q17 57 77 141l60 82q7 20 -14 24q-117 -23 -234 -45q-133 -29 -222 -76q8 -17 30 -36q11 -9 40 -29q49 -37 109 -91q52 -48 105 -96
q88 -82 132 -118q33 -27 85 -63q16 -8 36 -8q25 0 48.5 12t47.5 33l-5 59l-68 428q-5 10 -5 22q0 15 8 32q12 21 17 30q24 -35 39 -80t15 -89l-26 35l-8 -10q4 -32 25 -151q8 -45 15 -93zM547 660l-6 -22l-20 8q-8 -13 -13.5 -54.5t-20.5 -52.5q-5 6 -20 43q-11 27 -25 29.5
t-19.5 5t-10.5 9.5q1 11 3.5 22.5t12.5 15.5q24 -7 43 -46q15 -31 18 -36q14 46 29 92q8 -2 16 -3q9 -3 13 -11zM1106 -73q0 -22 -16 -47q-10 -3 -17 6q-6 12 -8 17.5t-2 20.5q0 16 4.5 30.5t12.5 30.5q-3 -15 -4.5 -26.5t-1.5 -14.5q0 -14 3.5 -23t12.5 -17q5 2 8 11.5
t8 11.5zM608 275q0 -21 -2.5 -33t-13.5 -23q-10 0 -15.5 9t-10.5 23q-2 12 -2 18q0 15 6 32t14 32q-3 -9 -6 -22t-3 -23q0 -26 15 -40q6 2 9 13.5t9 13.5zM544 497q-5 -19 -44 -26t-46 -29q2 -20 8 -46q13 -63 16 -81t4 -27t1 -27q0 -20 -3.5 -37.5t-11.5 -35.5q3 14 4 20
t1 20q0 27 -10 69q-5 20 -10.5 42.5t-9.5 43t-4 37.5q0 32 15 55q9 10 26 15q27 8 29 9q-10 8 -24 8q-4 0 -10 -2t-10 -8t-7 -11q-4 8 1 19.5t5 13.5q10 7 17 10.5t16 3.5t17 -6q20 -10 30 -30zM765 16q-2 -13 -13.5 -27t-22.5 -28l-48 24q-7 -4 -18 -23.5t-21 -19.5
q-5 0 -13 5q-3 4 -16.5 10t-13.5 12q0 3 3 8l40 42q6 -7 23 -13.5t24 -3.5l32 42q8 -3 18 -9.5t26 -18.5zM422 99q0 -29 -18 -49q-12 -3 -16.5 11t-5.5 16q0 39 18 72q0 -7 -3 -23t-3 -25q0 -18 12 -27q5 3 8 13.5t8 11.5zM3256 701v8q-3 9 -10.5 12.5t-11.5 -0.5
q1 -6 8 -11q1 -1 14 -9zM3793 102q-34 34 -82 43q-13 -4 -20.5 -7t-9.5 -13q12 -15 29 -19.5t41 -4.5h21.5t20.5 1zM2660 716l-5 11q-5 5 -11 3q2 -5 8 -10zM2711 211q-6 16 -12.5 33.5t-17.5 30.5q-9 5 -13 7q-11 5 -25 5q-6 0 -9 -1q-8 -16 -8 -40q0 -17 2.5 -31.5
t13.5 -39.5q20 8 35 16t34 20z" />
    <glyph glyph-name="N" unicode="N" horiz-adv-x="3109" 
d="M2962 602q-7 -22 -11 -33q-7 -21 -19 -31q-22 0 -37 -3t-47 -11q-2 14 5.5 31t15.5 33q36 8 52 11t41 3zM2724 562q4 -8 0 -16q-13 -17 -18 -24q-7 -5 -18 -10q-4 -2 -33 -12q6 10 25 20q25 13 30 18q-9 4 -22 4q-23 0 -43 -13q-3 3 1 11t4 9q19 15 49 15q9 0 25 -2z
M2513 551q-17 -44 -55.5 -72.5t-81.5 -28.5q27 13 44.5 23.5t41.5 28.5h-30q-30 0 -47.5 -4t-32.5 -19q9 22 24.5 42.5t35.5 29.5q15 0 25 1q40 4 44 4q19 0 32 -5zM2968 1q-20 -16 -46 -26.5t-50 -10.5t-44 10q-6 4 -6 13q0 4 2 10q9 11 18.5 22.5t20.5 20.5q-9 1 -19 2.5
t-14 0.5q4 7 9.5 14.5t12.5 9.5q4 -3 18.5 -4t19.5 -8q0 -15 -23.5 -30.5t-23.5 -21.5q0 -8 14 -16q5 -1 17 -1q18 0 44 4.5t50 10.5zM2931 450q-7 -52 -45 -91q-2 7 2 18t4 14q0 6 -4 11q-17 9 -33 9q-21 0 -47.5 -13t-50.5 -25q-39 -26 -78 -51q7 2 100 11q36 4 59 12
q-30 -59 -93 -120q-52 -50 -122 -97q-12 -47 -37 -84q-30 -44 -71 -61q-41 -14 -88 -19.5t-103 -5.5q63 15 75 19q36 11 75 29.5t67.5 43t50.5 61.5q-8 -2 -16 -2q-18 0 -32 8q-9 15 -9 30q0 19 10 40q4 8 22 34q23 3 39 -13l13 -23q42 22 70.5 42t63.5 53q-21 0 -83 -14
q-31 -7 -50 -7q-8 1 -13 1q18 40 48.5 73.5t70 61t80 46t86.5 30.5q12 3 22.5 -3t16.5 -18zM2779 43q-5 -10 -15 -26.5t-20 -29.5q-5 7 -25 15t-20 18l34 42zM2279 537q-3 -11 -3 -18q0 -8 2.5 -20t2.5 -14q0 -10 -8 -21l-10 11q-20 -31 -57 -56q-17 -12 -69 -38
q38 27 61 45q34 27 56 54q-3 4 -15 11q-17 11 -20 21q1 15 13 28t28 19q15 -8 19 -22zM2400 266q1 -6 1 -17q0 -29 -9 -62q-14 -41 -20 -60q-22 -31 -51 -31q-24 0 -32 31.5t-13 35.5q-16 -15 -33 -41q-11 -18 -28.5 -48t-30.5 -46q-19 -23 -45 -39q-23 -21 -56.5 -30.5
t-69.5 -9.5q-35 0 -72.5 5t-72.5 10q65 0 123.5 16t110.5 50q106 70 155 186q10 11 15 15q9 8 20 6q4 -8 10.5 -34.5t16.5 -37.5q31 0 48 23q10 12 21 50q5 19 12 28zM1710 502q-8 -27 -12 -39q-8 -23 -23 -28l-60 -10q0 25 4.5 42t21.5 23zM2269 -57q-7 -23 -11 -34
q-8 -22 -22 -28l-85 -4q6 26 10 35q8 20 23 29q15 0 31 1l32 2q15 0 22 -1zM2016 376q1 -16 1.5 -28t0.5 -21q0 -47 -8 -96.5t-22 -92.5q-25 -63 -68 -106q-52 -52 -113 -52q-53 -15 -114 -15q-17 0 -36 1.5t-49 5.5q63 8 117.5 23t107 44t91.5 71t62 101q15 38 15 87
q0 52 -19 106t-50 101q-4 -33 -4 -75q0 -16 1 -49t1 -49q0 -26 -1 -45.5t-5 -41.5q-8 40 -10.5 86.5t-2.5 112.5v29q3 44 5 73.5t16 48.5q37 -45 57.5 -100t26.5 -119zM1630 620q0 -21 -17 -45t-40 -38q-11 -7 -21.5 -9.5t-26.5 -2.5q-9 0 -32 2t-25 2q-15 0 -27 -4t-25 -16
q7 20 27 37t43 24q46 0 81.5 11t62.5 39zM1860 473q6 -33 6 -68q0 -27 -3 -49.5t-12 -46.5q-19 -46 -64.5 -77t-96.5 -31q-6 -5 -58 -28q-36 -16 -49 -41q-9 -50 -17 -99q-7 -28 -17 -44q-13 -21 -36 -35q-10 -2 -15 -2q-17 0 -31 9t-41 40q-19 -27 -48.5 -36t-70.5 -9
q-13 0 -26 0.5t-25 0.5l-2 3q54 20 79 34q46 24 74 57q-6 36 -6 72q0 31 3.5 60t12 65t25.5 87q13 38 31 86q14 -32 20.5 -66.5t6.5 -73.5v-19v-15q-2 -10 -2 -15q-3 -35 -11.5 -75t-30.5 -112q5 -15 25 -21q8 -2 13 -2q14 0 25.5 9t20.5 24q12 16 18 47q5 35 9 58.5
t17.5 43t45.5 29.5l25 14q6 38 9.5 58.5t10.5 32.5q10 22 16 32q11 20 26 26q10 3 19 -5q5 -4 13 -17q5 -8 6 -15.5t1 -20.5q0 -14 -3 -30t-4 -24q31 7 59 30q32 27 35 59q0 42 -12 81t-34 75q-4 -18 -9.5 -82t-19.5 -92q-3 30 -3 61q0 115 32 206q24 -35 39.5 -71.5
t23.5 -77.5zM1248 583q5 -17 -10 -17q-16 0 -20 -2.5t-4 -12.5q-2 -22 -4.5 -45t-11.5 -35l-33 58q-1 -8 -7 -8l-16 4q-6 6 -6 15q0 5 2 12l4 14q3 5 8.5 3.5t10.5 -3.5q11 -9 20.5 -27.5t20.5 -40.5q5 36 8.5 63t21.5 27q7 0 16 -5zM1219 167q-3 -4 -9 -22t-16 -24
q-10 0 -18 4q-27 13 -28 13q0 17 11 40q6 11 12 23q37 -15 38 -16q11 -8 10 -18zM1326 152q-8 -33 -19 -65t-27 -60t-40.5 -50t-57.5 -32q-12 -4 -30 -4q-32 0 -57 16q-38 29 -60.5 69t-22.5 84q0 20 4 36q4 37 31 76q10 14 32 41q28 33 40 54q20 33 23 64h8q0 -34 -20 -69
q-9 -15 -43 -61q-24 -32 -34 -51q-15 -29 -15 -58q0 -11 3 -25q9 -35 32.5 -63.5t58.5 -41.5q5 -1 15 -1q28 0 55 13t50 36q32 49 35 54q19 34 19 60q0 14 -4 26q-8 25 -29 46.5t-46 25.5q-18 3 -35 -6q-12 -6 -29 -21q-4 8 -4 20q0 13 4 24.5t12 30.5q25 23 59 23
q16 0 34 -8q32 -19 47 -54t15 -78v-31q-3 -14 -4 -20zM732 652q-4 -15 -15.5 -27.5t-27.5 -21.5q-7 -4 -22 -11q-7 -3 -36 -14q8 9 21.5 19.5t26.5 18.5zM989 335q0 -66 -12 -129t-37 -118.5t-76 -85.5q-60 -35 -185 -35q-22 0 -42.5 0.5t-40.5 0.5q61 9 109 23
q58 17 104 42q54 29 89 66q41 43 60 99q13 39 13 83q0 52 -16 102t-45 97q-8 -36 -12 -116.5t-10 -118.5h-4q0 21 -1 64.5t-1 65.5q0 60 6 107t22 86q38 -45 58.5 -106t20.5 -127zM969 800q1 -8 1 -12q0 -32 -15.5 -71t-29.5 -74q-8 -17 -15 -34q-10 -20 -22 -31
q-3 31 12 64q-58 -49 -109 -82q-60 -39 -120 -62q4 -24 7 -74.5t7 -85t16 -66.5t38 -58q6 -2 16 -2t15 2q43 28 50 83q0 27 -11 58q-6 16 -23 54q-8 -12 -12.5 -41t-9.5 -63h-5q-5 27 -5 47q0 30 6 62t27 81q25 -30 38 -70t13 -82q0 -43 -7.5 -84.5t-22.5 -76.5
q-9 -12 -18.5 -24t-21.5 -16q-5 -1 -15 -1q-21 0 -33 11q-20 18 -31 50q-10 38 -15 56q0 -21 -13 -36q-9 -11 -31.5 -25.5t-28.5 -19.5q-16 -13 -24 -31q-15 -68 -26 -94q-20 -49 -60 -76q-34 -20 -110 -26t-91 -9q66 28 97.5 42t64.5 34q42 26 67 57q29 35 39 82
q0 26 9.5 44.5t29.5 35.5q36 30 73 61q0 24 -9 71t-9 70q0 27 8 48q-5 3 -9 3q-18 -5 -36 -9q54 22 104 54.5t99 75.5q99 90 151 190zM248 429l-3 -20q-11 3 -16 3q-7 0 -7 -9q1 -7 1 -21q0 -20 -4.5 -35.5t-15.5 -22.5q-4 3 -21 37q-12 24 -35 20q-6 5 -6 12q0 6 2 12.5
t4 13.5q3 5 6 5q6 0 11 -5q10 -12 22 -32q9 -17 19 -34q5 6 8 45t17 39q5 0 18 -8zM485 367q0 -35 -27 -70q-2 9 -9 12q-30 -8 -60 -40q-24 -25 -43 -61q7 0 18 4q27 10 33 10q11 0 19 -8l-26 -78q-24 -34 -79 -70q-124 -80 -147 -112q9 -27 27 -49q13 -16 41 -39
q43 -33 87 -66q-37 18 -58 29q-33 18 -59.5 40t-40.5 50.5t-14 66.5q0 31 19 55q14 17 45 36q51 29 102 59q5 42 16 77t30.5 68.5t48.5 58.5t65 35zM512 -81q-3 -23 -5 -40t-14 -27q-18 0 -33 -2q-52 -7 -55 -7q-8 0 -12 1q3 18 7 37t16 29q20 0 36 2q57 7 60 7zM2263 509
l-2 15q-11 8 -15 7q-8 -2 -6 -9q6 -2 13.5 -7.5t9.5 -5.5zM1732 299l-8 18q-7 11 -18 7q-11 -9 -16 -18t-2 -21q6 -7 15 -7q7 0 11.5 3t11 8t6.5 10zM1482 210q1 6 1 13v11q0 63 -26 109q-5 -28 -11 -47q-21 -74 -23.5 -85.5t-4.5 -26.5t-2 -29q0 -38 16 -71q43 51 50 126z
" />
    <glyph glyph-name="O" unicode="O" horiz-adv-x="1840" 
d="M1751 277q2 -21 4 -45t2 -43q0 -45 -6 -82t-23 -78h-4q15 42 15 101q0 16 -2 39t-4 40l-66 416q6 20 8 24q9 23 24 36q21 -50 30 -74q18 -45 18 -78q-5 9 -9.5 18t-13.5 18q-9 -8 -9 -25q0 -6 2 -16q4 -46 11 -92q21 -139 23 -159zM1370 648q-2 -6 -12 -6h-6q-4 2 -5 2
l-6 5q-9 -10 -17.5 -15.5t-17.5 -1.5q-11 8 -11 22q0 10 4.5 22.5t8.5 24.5l5 6q2 -7 -2.5 -21t-4.5 -18q0 -10 9 -16q20 0 20 21q-1 14 -1 21q0 11 7 18q2 -4 2 -13q-1 -12 -1 -18q0 -17 19 -17q-1 18 -1 28t5 15q3 -8 6 -18.5t3 -19.5q0 -12 -4 -21zM1413 800
q-3 -10 -13 -16q-14 -5 -20 -8q-126 -37 -189 -55q-111 -33 -187 -64q5 11 13 19t19 9q60 23 139 47q21 7 238 68zM1416 566q-2 -11 -11 -26t-17 -28l-58 27q-10 -34 -37 -34q-17 0 -35 12q6 17 13 28.5t19 23.5l48 -18l34 32zM1184 472q0 -19 -12.5 -34.5t-32.5 -19.5
q-9 -2 -17 0.5t-10.5 12t-2.5 15.5q0 16 9 35q1 3 18 32q-7 -20 -10.5 -32t-3.5 -20q0 -15 12 -23q10 0 18.5 4t17.5 11q0 8 -10 14t-22 13q8 16 11 19q9 -5 20 -11t15 -16zM1024 540q-5 -29 -23 -50q-12 0 -21 4.5t-11 15.5q-1 9 -1 13q0 24 9.5 47t24.5 42
q-6 -14 -10.5 -28t-4.5 -27q0 -19 14 -32q7 -4 12 5.5t11 9.5zM1606 -16q-9 -20 -32 -35t-74 -24q-25 0 -35 20q2 16 16 31q18 17 26 25q-15 5 -21 5q-3 0 -11 -4q-2 6 1.5 11t11.5 11h16q14 0 19.5 -1.5t5.5 -9.5q0 -1 -4 -12t-18 -22q-22 -17 -24 -20q13 -13 31 -13
q13 0 32.5 7t27.5 10zM1581 208q-13 -29 -26 -57q-24 3 -47 3q-38 0 -75 -7.5t-77 -21.5q-31 -11 -92 -36.5t-94 -37.5q-14 -41 -44 -81.5t-69 -73.5t-81.5 -57t-84.5 -33q-23 -6 -41 -6t-31.5 7t-31.5 25q-15 27 -15 55q0 31 16 69q6 13 33 64q0 -16 -8 -37
q-20 -53 -20 -64q0 -31 36 -47q25 -5 44 -5q32 0 63 10.5t61 29.5q23 15 54 40q5 4 87 77q-3 12 -17 12q-7 0 -24 -4t-26 -4q-7 0 -10 1q-24 0 -40 6t-25 23q10 52 18 70q18 39 56 46q28 0 53 -20t36 -49q37 4 84.5 24.5t90.5 39.5q-91 13 -181 26q-28 0 -48 -5q6 37 31 62
q19 20 54 36.5t68 31.5q37 19 60 40q27 25 54 51q18 16 35 24q5 -7 17 -59q9 -38 36 -38q3 0 15 2q15 6 22 8q14 5 20 13q-30 166 -35 190t-24 104q5 20 11 33.5t17 23.5q14 -34 29.5 -71t20.5 -66q-8 2 -13.5 13.5t-10.5 14.5l-6 -13l32 -190q0 -30 -7.5 -54.5t-26.5 -48.5
q-15 -10 -28 -15t-27 -5q-13 0 -27 8q-13 10 -21 34q-16 47 -28 53q-71 -74 -157 -123q92 -20 183 -30.5t182 -10.5zM1418 -5q-13 -28 -21.5 -39t-20.5 -9l-46 22q9 19 13 28q8 16 20 25q13 0 27.5 -9.5t27.5 -17.5zM744 675l-3 -20q-5 0 -13.5 7.5t-13.5 7.5
q-2 -9 -3.5 -51t-14.5 -59q-4 4 -22 45q-12 28 -37 24q-9 5 -9 14q0 6 2 12t4.5 12t7.5 6q3 0 9 -5.5t9 -6.5q10 -12 21.5 -39t14.5 -32q5 14 6 52.5t10 55.5q10 0 18 -7q4 -3 14 -16zM787 515q-18 -30 -31 -47q-21 -26 -44 -38q-10 2 -31 -2t-30 -4q44 21 88 43
q-9 0 -33.5 2t-27.5 2q-17 0 -29.5 -3t-22.5 -13q18 34 27 44q20 23 46 23q8 -1 14.5 -1h14.5q15 0 30 -0.5t29 -5.5zM507 596q2 -4 2 -12q0 -10 -5.5 -20.5t-7.5 -15.5q-13 -13 -25 -8q-12 16 -12 37q0 17 10.5 42t15.5 36q1 -7 -3.5 -27t-4.5 -29q0 -18 15 -24q7 10 15 21
zM717 278l-8 -32q-6 -17 -18 -26q-9 0 -14.5 4.5t-9.5 13.5q-1 5 -1 16q0 31 16 63q9 19 35 53q-16 -43 -32 -85q0 -17 17 -29q4 2 7 11.5t8 10.5zM896 90q-45 -28 -90.5 -45.5t-98.5 -26.5q-36 -6 -73 -6q-68 0 -131 22q-42 15 -70 61q-11 18 -38 86q-7 -41 -30 -75.5
t-59 -65.5q-30 -26 -69 -48.5t-76 -35.5q-8 -3 -16 -3q-20 0 -40 16q-11 13 -16.5 28.5t-5.5 31.5q0 26 13 61q5 14 25 56l5 1q0 -13 -13 -43t-13 -45q0 -12 5.5 -20.5t20.5 -16.5q53 0 108 32q42 24 94 74l34 40q18 24 18 45q0 4 -2 14q-16 47 -36 89.5t-49 84.5
q0 16 4 31.5t11 30.5q41 -43 71 -136q14 -46 29 -92q24 -69 56 -105q42 -46 114 -56q102 0 166 12q85 16 149 57q-2 17 -11 35t-16 34.5t-7 30.5q0 20 20 36q35 -49 35 -113q0 -44 -18 -76zM221 667q2 -13 -5 -21q-10 3 -19 6q-11 -51 -22 -101q10 0 23 -10q18 -14 22 -16
q0 -21 -40 -29t-40 -29q0 -7 1 -11q11 -45 23 -90q5 -25 5 -45q0 -22 -8 -48q2 16 2 23q0 20 -2.5 31.5t-18.5 62.5q-5 15 -10 36t-5 36q0 18 8 39q3 1 18 8q7 3 31 12q-18 9 -28 4l-11 -13q-4 5 -1 12.5t6 14.5q7 6 7 15q0 8 -7 20q-21 35 -21 36l-3 2q-3 -5 -5 -8t-7 1
q-14 5 -14 20q0 5 2.5 14t2.5 12q4 7 16 -2t21 -24q13 -24 26 -47q13 50 27 100q7 1 13.5 -3t12.5 -8zM685 -73q-13 -23 -36 -46q-17 3 -34.5 10t-20.5 16q14 17 20 25q12 15 25 16zM274 241q-5 -31 -11 -42t-20 -14q-8 1 -13 19q0 26 9 54q6 20 20 50q0 -6 -9 -36
q-5 -17 -5 -26q0 -18 14 -26zM592 -86q-4 -4 -18 -30q-10 -20 -26 -18q-19 8 -29 12q-19 8 -19 16q0 4 4 8l34 34zM1096 92q-10 8 -17 11.5t-14.5 5.5t-12.5 2q-13 0 -21 -7q6 -7 16.5 -10t20.5 -3q19 1 28 1z" />
    <glyph glyph-name="P" unicode="P" horiz-adv-x="1425" 
d="M998 800q4 -14 -3 -29.5t-21 -26.5q-4 2 -11 2t-20.5 -4.5t-16.5 -4.5q-11 0 -18 13q0 9 4 17.5t11 17.5q3 -2 2 -5q-4 -10 -2 -13q4 -5 11 -5t14 1q6 13 10.5 21.5t10.5 12.5l-3 -27q7 -4 11 -4q6 0 9 16t12 18zM996 689q-2 -16 -5 -25.5t-17 -44.5l-86 -6q0 21 7 38.5
t21 35.5q4 -1 12 -1q12 0 30 2.5t21 2.5q11 0 17 -2zM1360 316q0 -71 -19 -135.5t-56 -121.5q-45 -79 -121 -108q-57 -22 -156 -22q-18 0 -56 1t-57 1q78 11 137 29q70 21 131.5 57t105.5 87q48 56 69 125q0 73 -13 133t-44 113q-13 -122 -16.5 -163.5t-3.5 -87.5
q-9 51 -9 109q0 40 2.5 75t8.5 82q7 30 11.5 51t15.5 33q35 -53 52.5 -120.5t17.5 -137.5zM814 543q0 -20 -9.5 -37t-26.5 -23q-4 -1 -13 -1q-21 0 -29 15q0 17 7 32q3 8 17 29q3 -6 -3 -20.5t-6 -17.5q0 -9 13 -13q17 0 33 14q-2 7 -15.5 18.5t-13.5 18.5q0 8 11 16
q2 -2 22 -13q13 -7 13 -18zM1166 524q0 -54 -19 -99.5t-60 -72.5q-21 -13 -52 -13q-27 0 -46 13q-3 6 -3 12q2 14 2 21q0 12 -14 16q-54 0 -115 -39q-13 -8 -62 -44h53q43 0 69 2.5t54 12.5q-16 -33 -42 -65q-19 -23 -56 -57q-62 -54 -124 -107q-40 -100 -41 -102
q-30 -57 -76 -77q-23 -7 -69 -11.5t-100 -9.5q37 13 75 27t73 33q40 22 65 47q29 29 47 70q-14 -2 -27 -4.5t-21 -2.5q-14 0 -22 7q-12 13 -12 31q0 15 8 32l28 52q7 7 15 7q7 0 12.5 -2.5t13.5 -6t14 -12.5t12 -24q35 22 68.5 49t67.5 59q-17 -4 -82 -7.5t-94 -18.5
q18 45 49.5 83t71.5 68q79 57 176 77q6 -1 13.5 -2t11.5 -6q2 -6 -5.5 -18.5t-7.5 -16.5q0 -7 11 -11q5 -1 15 -1q61 0 99 49q0 31 -3.5 53.5t-23.5 112.5q-10 -14 -26 -60.5t-37 -64.5q0 32 16 69q43 101 45 110q5 13 13 23.5t20 20.5q10 -47 16 -98t6 -104zM921 36
q-7 -6 -14 -26t-17 -28q-13 0 -29 8q-24 12 -27 13q2 17 13 35.5t22 35.5q23 -9 33 -14q19 -9 19 -24zM333 521q-3 -5 -8 -5q-7 2 -12 2.5t-9 -2.5q-5 -15 -13.5 -51t-13.5 -55q-7 8 -18 39.5t-21 33.5q-10 0 -17.5 2t-11.5 9q2 24 5 34t16 15q19 -10 29 -38q7 -24 15 -47
q5 8 14 44.5t26 47.5q22 -4 22 -19q0 -5 -3 -10zM574 233q-13 -97 -14 -99q-14 -54 -53 -80q-28 0 -37 28q-15 44 -18 48q-17 -21 -36 -51q-57 -92 -60 -96q-29 -38 -63 -58.5t-84 -20.5q-25 0 -72 6t-72 6q122 31 152 43q83 32 133 91q7 8 52 89q31 55 70 68
q6 -24 12.5 -50.5t33.5 -21.5q17 11 27 33q14 32 29 65zM417 -129l-26 -66q-21 0 -54 -2.5t-41 -2.5q0 16 5 31.5t14 30.5q28 11 67 11h18q12 -2 17 -2z" />
    <glyph glyph-name="Q" unicode="Q" horiz-adv-x="1935" 
d="M1825 629q-15 0 -23.5 20.5t-17.5 23.5q0 -68 9.5 -152t19.5 -164q2 -17 3 -41.5t1 -45.5q0 -62 -10.5 -113t-38.5 -101q11 38 16 67t5 65q0 20 -3 41l-49 495q-3 8 -3 15q0 16 11 33q4 6 23 28q31 -65 38 -82q19 -48 19 -89zM1176 701q0 -13 -4.5 -25t-16.5 -20
q-8 -3 -15.5 2.5t-9.5 12.5t-2 17q0 17 5.5 34t15.5 30l-8 -44q0 -18 13 -27q7 0 12 9.5t10 10.5zM1335 734q-6 -7 -6 -18q0 -8 5.5 -21t5.5 -18q0 -9 -11 -19l-13 10q-46 -61 -107 -107t-129 -70q112 73 148 103q43 36 80 81q-4 8 -17.5 14.5t-17.5 11.5q2 17 12.5 30
t28.5 21q10 2 16 -7q2 -3 5 -11zM1353 575q7 -21 9 -31t2 -21q0 -22 -15 -34q-16 3 -18 4t-11 7q-8 -17 -9 -19q-7 -11 -17 -12q-15 -3 -23 6t-12 25q4 28 6 47t14 30q2 -8 2 -11q0 -7 -4 -22t-4 -23q0 -15 12 -24q17 0 22.5 8.5t5.5 24.5q-1 14 -1 22q0 11 4 19h4
q2 -24 5 -34.5t16 -20.5h10q0 5 -2 18t-2 20q0 12 6 21zM1052 598q2 -21 -13 -21q-13 2 -19 2q-16 0 -17 -18q-5 -32 -7 -47q-5 -29 -14 -45q-5 4 -24 44q-14 30 -38 30q-7 0 -11 -1q-4 5 -4 13q0 5 2.5 14.5t2.5 11.5q3 10 11 10q6 0 13 -5q14 -14 28 -39q11 -21 23 -41
l10 54q8 31 28 46h15q12 0 14 -8zM1137 371q0 -12 -3.5 -21t-8.5 -17q-11 -9 -17 -9q-3 0 -8 3q-15 11 -15 34q0 14 5 27l20 45q1 -8 -5.5 -27.5t-6.5 -29.5q0 -14 12 -25q9 -1 14 4t9 15zM1011 772l-12 -23q-53 -24 -140 -58q-71 -28 -141 -56q-81 -33 -138 -60
q25 35 81 58q47 18 95 37q127 51 255 102zM649 713q-3 -22 -4 -26q-5 -15 -17 -23q-10 -1 -16.5 5.5t-9.5 17.5q-1 12 1 23.5t13 40.5q-3 -23 -3 -35q0 -19 13 -25q8 0 12.5 6.5t10.5 15.5zM1419 32q0 -11 -4 -22.5t-10 -21.5q-13 4 -36.5 -11t-31.5 -15q-14 0 -25 17
q-29 -7 -64 -28l-60 -39q-35 -23 -65 -35t-69 -12q33 6 67 23q27 13 62 37q60 40 121 80q11 5 30.5 -4t23.5 -9q13 0 16 23q3 7 4 11q5 -1 5 -9q0 -10 1 -12q5 -2 14.5 1t10.5 13q2 7 3.5 10.5t6.5 2.5zM1581 350q4 -24 6 -45.5t2 -47.5q0 -67 -24 -126q-14 -15 -33 -22.5
t-41 -7.5q-16 0 -24.5 1.5t-28.5 8t-37 25.5q-10 -18 -19 -35q-14 -21 -33 -24q-11 -3 -20 -3q-25 0 -47 15l-13 22q-12 -15 -27.5 -27.5t-31.5 -12.5q-9 -1 -14 -1q-28 0 -47 15q-8 7 -12 18.5t-4 22.5v10q2 7 2 10q4 8 4 11t-4 5q-51 -21 -101 -41l-31 -57
q-55 -86 -141 -152q-41 -29 -88 -53t-93 -37q-6 -1 -18 -1q-38 0 -68 18q-18 15 -25.5 34t-7.5 45q0 9 0.5 15t3.5 22l20 60q-88 -44 -175 -89q-104 -47 -195 -47q-12 0 -31 -7q-43 -16 -52 -16q-8 0 -15 4q44 22 198 88q124 53 197 94q106 59 183 130q-1 9 -28 106
q-11 40 -11 69q-7 8 -7 19q0 10 10 29.5t11 26.5q33 -31 47 -56t14 -44q-6 -1 -14.5 2.5t-10.5 3.5q-4 0 -7 -4q12 -31 20 -62t8 -60q0 -24 -5.5 -43t-18.5 -38q-9 -12 -75 -69q-47 -40 -47 -77q0 -20 13 -45q12 -17 30 -26.5t40 -12.5q87 11 172 65q66 42 148 123v22
q-12 0 -44 -4t-49 -4q-27 0 -46.5 7.5t-31.5 28.5q0 46 23.5 89t65.5 59q25 0 49 -15t57 -60q2 -2 5 -14.5t9 -12.5q3 0 9 3q18 5 72 29q44 20 74 20q0 -9 -8.5 -29t-8.5 -28q0 -17 23 -25q13 -7 29 -7q32 0 54 24q8 5 21 30q6 12 14 17q-4 -17 -8 -33q0 -7 4 -14
q9 -10 20 -13.5t27 -3.5q11 0 17 1q19 7 33 31q20 34 24 38q-4 -7 -4 -12q0 -8 10 -14t20 -11q21 -9 46 -9q40 0 69 21l-2 64l-73 478q2 23 8.5 40t20.5 26q20 -44 42 -92.5t22 -90.5q-6 5 -15.5 23t-17.5 24q-8 -12 -8 -30q0 -10 4 -31t4 -32q0 -42 14 -109q19 -93 22 -110
zM519 678q-4 -14 -13 -31q-12 -21 -18 -31l-66 36q3 14 13.5 30t20.5 31q15 -3 32 -13q9 -6 31 -22zM1074 -18q-3 -16 -7 -25.5t-15 -18.5q-9 -3 -18 3.5t-11 15.5q0 25 7 44t22 45q0 -8 -8 -27t-8 -30q0 -16 13 -25q8 -3 13 7.5t12 10.5zM416 664q-11 -31 -31 -62
q-15 3 -32.5 9.5t-33.5 13.5q-1 15 15 41q8 12 16 25zM597 244q2 -11 -5 -25.5t-20 -22.5q-6 -1 -9.5 4t-8.5 15q0 25 6 48.5t16 42.5q2 -9 -4 -30t-6 -29q0 -18 14 -24zM506 487q0 -41 -22 -87q-14 -29 -49 -80q56 -44 56 -112q0 -16 -5 -38q-14 -46 -56.5 -78t-91.5 -40
q-21 4 -29 8q-16 7 -21 21q0 124 79 212q-36 37 -51 59q-24 35 -24 67q1 7 1 10q2 10 5 20.5t9 19.5q5 -8 33 -25q21 -12 14 -27l-14 -6l64 -68q35 40 57 69q29 39 45 75zM1316 707v8q-2 9 -10 9q-7 0 -10 -6l10 -5zM954 163q-33 29 -36 31q-21 15 -43 13q-6 -3 -10 -6
q-9 -7 -10 -17q27 -23 72 -23h13q10 2 14 2zM459 196q-8 19 -29 38q-13 12 -41 30q-30 -37 -44 -56q-26 -34 -26 -60q0 -11 2 -16q12 -2 19 -2q33 0 64 19q25 15 55 47z" />
    <glyph glyph-name="R" unicode="R" horiz-adv-x="1854" 
d="M1154 729q-6 -11 -6 -25q0 -7 3 -20t3 -18q0 -15 -17 -31l-10 8q-28 -42 -76 -74q-36 -23 -91 -46q19 21 81 61q55 35 74 71q-14 7 -20 11q-13 8 -15 19q-3 11 1 19q13 17 18 25q9 7 20 13t19 6q13 0 16 -19zM1725 438q3 -29 3 -58q0 -103 -32 -205q-38 -94 -85 -157
q-62 -82 -142 -109q-54 -17 -150.5 -27t-211.5 -22q113 27 187 54q103 37 183 87q92 58 148 131q63 82 79 186q0 67 -22 127.5t-67 107.5q-4 -29 -4 -66q0 -30 7 -118q4 -50 4 -71q0 -15 -1 -31t-4 -32q-20 42 -23.5 117.5t-6.5 99.5q0 87 4.5 134t25.5 88q49 -46 75 -105.5
t33 -130.5zM1187 572q8 -8 8 -19q0 -10 -4 -23q-7 -21 -7 -23q-8 -14 -22 -14q-6 0 -12 3l-8 6q-7 -9 -14 -15q-14 -13 -29 -13q-3 0 -11 2q-8 9 -8 24q0 9 2.5 20.5t5.5 21.5l5 6v-23q0 -14 11 -18q19 0 30 21q8 17 17 34q3 -5 3 -10q-2 -10 -2 -15q0 -7 11 -11q17 0 17 15
q-1 11 -1 16q0 10 8 15zM1429 536q0 -152 -65 -284q-16 -24 -43 -43q-19 -14 -87 -47q-15 -7 -30 -19q-43 -33 -50 -37q-8 8 -21 8q-12 0 -38 -15t-39 -15q-19 0 -31 25q-2 6 -2 19q0 9 -0.5 19.5t-5.5 17.5q-29 -14 -49 -35.5t-35 -53.5q-9 -18 -15.5 -43.5t-12.5 -48.5
q-29 -112 -186 -138q-128 -21 -146 -27q151 67 183 86q105 64 129 153q-15 -8 -32.5 -13.5t-32.5 -5.5q-5 0 -17 2q-14 6 -20.5 17.5t-6.5 26.5q0 10 4.5 29t11.5 46q10 30 36 39q7 4 15 4q15 0 36 -21t31 -21q12 0 24 19q13 8 52 51q29 32 51 32q5 0 13 -2q1 -4 1 -14
q0 -6 -1 -17.5t-1 -16.5q0 -14 4 -21.5t16 -11.5q31 13 47 23q23 15 38 38q2 4 7 23.5t16 23.5q0 -8 -2.5 -23.5t-2.5 -18.5q0 -18 12 -26q21 10 34 33l32 70q8 -16 8 -41q0 -12 -3 -36t-3 -34q42 32 70.5 64.5t50.5 72.5q16 29 24.5 61t8.5 65q0 14 -1 22t-4 26
q-8 38 -28 79q-16 33 -41 72q-4 -23 -5 -49t-1 -62v-70q0 -43 -2.5 -67.5t-10.5 -33.5q0 35 -3 111t-3 114q0 61 3.5 100t15.5 83q52 -52 77.5 -120.5t25.5 -143.5zM820 591q-11 -20 -32 -37q-16 -13 -40.5 -25.5t-48 -24.5t-42.5 -25q9 22 26.5 37.5t44.5 29.5q46 22 92 45
zM455 526q-8 -10 -14.5 -34t-12.5 -35q-19 0 -44 -6q-58 -14 -70 -14q-9 0 -14 1q13 38 20 56q13 34 39 38q12 -2 40.5 5.5t36.5 7.5q19 0 19 -19zM444 288q3 -26 3 -54q0 -59 -16 -100q-20 -50 -64 -79q-22 -11 -47 -11q-12 0 -23.5 3t-17.5 11.5t-9 23.5q30 135 31 137
q26 77 86 107q42 0 57 -38zM712 274q2 -3 3.5 -11t1.5 -16q0 -13 -4 -28.5t-7 -29.5q-46 -23 -85 -110l-36 -84q-30 -63 -60 -96q-41 -45 -104 -60t-124 -23t-124 -8q83 26 112 37q64 23 111 49q56 29 97.5 70.5t71.5 101.5q32 85 51 125q35 73 96 83zM1129 691v10
q-2 11 -13 11q-6 0 -9 -6q1 -7 10 -9.5t12 -5.5zM411 193q-8 14 -19 23q-15 12 -30 9q-26 -9 -41 -32q-8 -18 -16 -35q0 -7 11 -13q14 -3 28 -3q15 0 23 5q20 9 30 17q17 14 14 29z" />
    <glyph glyph-name="S" unicode="S" horiz-adv-x="1593" 
d="M1439 658q-2 -8 -2 -13q0 -10 6 -28t6 -23q0 -13 -18 -17l-6 7q-29 -50 -86 -93q-33 -25 -106 -66q20 18 71 57q81 62 111 106q-1 1 -28 18q-19 12 -19 26q0 7 4 15q2 12 12 21t25 15q12 4 19.5 -4.5t10.5 -20.5zM1437 382q0 -19 -5 -33.5t-20 -20.5q-11 -1 -20 16
q-2 12 -2 18q0 17 6 34t16 37q1 -8 -4.5 -26.5t-5.5 -26.5q0 -12 7 -23q10 -5 17 9t11 16zM1139 569q-5 -3 -10 -3q-14 2 -21 2q-15 0 -19 -16q0 -40 -1.5 -56t-6.5 -44q-6 5 -29 51q-17 34 -46 34q-6 6 -6 17q0 12 9 30q24 0 45 -47q15 -32 22 -40q0 40 5 58q9 31 32 43
q12 -5 20.5 -8t8.5 -11q0 -4 -3 -10zM1041 734q0 -19 -20.5 -28t-38.5 -17l-190 -76q-104 -44 -183 -93q-2 6 2.5 14.5t12.5 17.5q89 46 207 97q94 40 210 85zM892 429q2 -8 2 -13q0 -15 -7.5 -25.5t-17.5 -10.5q-7 0 -11 4q-12 13 -12 33q0 15 9 37t13 31q0 -8 -4 -25
t-4 -25q0 -17 12 -29q9 -1 12.5 10t7.5 13zM587 654q2 -4 2 -11q0 -6 -2.5 -12.5t-7.5 -14.5t-14 -8q-3 0 -11 2q-9 17 -9 33q0 19 9 41q4 9 18 35q0 -9 -9 -37q-5 -16 -5 -24q0 -5 1 -11t9 -14q7 0 11 9.5t8 11.5zM1392 -14q-3 -27 -10.5 -38t-22.5 -15q-5 3 -10 3
q-7 0 -16 -6q-22 -15 -26 -15q-10 0 -18 15q-31 -5 -64 -23q-13 -7 -61 -40.5t-72 -44t-51 -13.5q37 14 76 39q9 6 40 28.5t60 42.5q33 23 59 36q4 2 10 2q7 0 20 -8t19 -8q9 0 17 16q1 2 3 12t7 13q4 -5 2 -13t-6 -14q6 -1 14 2t16 8q7 11 14 21zM479 609q-11 -36 -35 -61
q-5 1 -33 20q-13 9 -21 9q-12 0 -17 -22q-11 -20 -27 -29q-6 5 -31 15.5t-25 23.5q3 6 10 19q12 23 21 32q10 2 29 -11.5t27 -13.5q12 0 17 19l24 34q22 -10 32 -15q20 -9 29 -20zM1466 250q12 -15 17.5 -33.5t5.5 -41.5q0 -52 -27 -98q-24 -22 -50 -22q-8 0 -16 3
q-15 0 -35 25q-12 15 -17 17q-8 -25 -32 -44t-50 -22q-20 -1 -31 -1q-17 0 -28 2.5t-22 12.5q-18 21 -18 55q0 12 2 19t2 10q-22 2 -54 -18q-43 -28 -53 -31q-17 -40 -25 -60q-26 -62 -64.5 -89.5t-68.5 -49.5q-40 -28 -72 -45q-72 -38 -159 -38q-29 13 -47 34
q-21 25 -21 55q3 25 11 51q5 16 18 50q-107 -58 -121 -65q-72 -36 -127 -53q-69 -21 -141 -21q-30 -7 -51 -10.5t-41 -3.5l-1 4q41 18 192 78q120 48 190 83q102 51 179 112l-50 166q0 19 7.5 35t25.5 28q14 -16 23.5 -30t15.5 -31l-12 -11q-1 2 -7 3q0 -19 12.5 -55.5
t12.5 -53.5q-7 -60 -25 -96q-24 -50 -72 -67q-15 -22 -15 -56q1 -9 1 -13q2 -15 11.5 -26.5t41.5 -34.5q18 -2 28 -2q68 0 154 50q24 14 84 54q4 5 42 34q28 21 28 41q0 6 -3 14q-14 0 -45 -4t-47 -4q-18 0 -31.5 3.5t-26.5 12.5q-15 16 -15 37q0 18 16 51q11 23 13 30
q9 15 19 24q14 12 28 15q38 0 71.5 -24.5t47.5 -61.5q28 3 72 29q51 30 74 35q-2 -11 -4.5 -24t-2.5 -20q0 -17 7 -34q9 -15 23.5 -20.5t34.5 -5.5h14q10 2 14 2q29 5 54 37q19 27 39 54q-4 -28 12.5 -48t41.5 -20q8 0 16 3q12 2 19 12l-11 54zM475 162q1 -4 1 -11
q0 -31 -29 -60q-12 -12 -56 -43q-26 -17 -61 -17q-9 0 -16.5 1t-17 9.5t-14.5 18.5q-1 8 -1.5 17.5t-0.5 14.5q0 94 63 166q-8 12 -33 40q-38 43 -38 72q0 6 3 19.5t5 24t14 7.5l52 -35l-20 -21l53 -52q27 22 49 63q17 34 35 69q0 -35 -17 -82q-7 -20 -34 -78q38 -35 45 -44
q22 -27 22 -54q0 -13 -4 -25zM1425 619q0 19 -13 35q-19 0 -24 -4q1 -11 13 -18t24 -13zM974 129q-16 10 -32 21q-19 11 -38 9q-14 -5 -16 -13q19 -19 56 -19h15q10 2 15 2zM442 163q-8 22 -41 47q-23 17 -32 23q-4 -11 -35 -55q-23 -33 -23 -57q0 -7 1 -10q15 -5 26 -5
q21 0 42 11q8 4 62 46z" />
    <glyph glyph-name="T" unicode="T" horiz-adv-x="2511" 
d="M1495 496l-7 -8l-27 19q-24 -37 -61 -66t-77 -44l66 54q37 32 60 61q-3 6 -23.5 22t-20.5 27t15 22q17 16 20 18q13 10 22 10q12 0 20 -14q-1 -7 -1 -19q0 -16 9 -50q5 -19 5 -32zM2350 649q-3 -27 -11 -45.5t-27 -33.5q-23 3 -45 3q-56 0 -107 -14t-108 -42
q-53 -25 -118 -63q-44 -26 -115 -71l-180 -120q-95 -55 -192 -92q-53 -19 -104 -31.5t-106.5 -20t-108.5 -7.5q-52 0 -114 8q-30 -93 -48 -139q-32 -82 -92 -118q-44 -22 -94 -36t-96 -14q-35 0 -73 9q78 27 107 38q63 25 109 51q57 32 92 69q42 44 59 99l-10 17
q-5 -9 -15 -13t-21 -4q-13 0 -24 3q-15 2 -26.5 11t-13.5 22q0 43 12.5 78.5t42.5 55.5q3 1 10 1q26 0 43 -20q14 -14 25 -47.5t16 -43.5q77 0 153.5 14t152 39.5t142.5 57.5q59 28 135 71q50 28 132 80q65 41 131 82q78 48 132 78q72 40 139 67q45 19 85 29t83 10
q20 0 40 -3zM1807 87q-6 -26 -14 -41q-12 -21 -32 -29q-15 2 -37.5 -11.5t-31.5 -13.5q-12 0 -23 12q-36 -17 -85 -59l-48 -42q-39 -33 -67 -48q-38 -20 -80 -20q37 16 69 36t68 48.5t63.5 53.5t56.5 57q11 7 29 7q11 0 21.5 -1t21.5 -2q17 0 25 8t8 32q4 -6 1 -14t-5 -13
q5 -3 9 -3q5 0 11.5 3.5t14 7.5t12.5 17.5t13 14.5zM866 529q-18 -25 -54 -41q-54 -21 -107 -41q10 17 25 27.5t34.5 18t39 16t37.5 20.5h13h12zM447 515q-21 -44 -42 -87l-109 -13q0 22 15 56q7 16 15 32q24 6 70.5 9t50.5 3zM443 258q3 -21 3 -42q0 -48 -13 -92t-38 -85
q-16 -13 -32 -19.5t-34 -6.5q-8 0 -24 4q-10 1 -17 11t-11 21q10 87 27 135q24 70 74 112q20 3 38 -8.5t27 -29.5zM729 254q3 -12 3 -23q0 -19 -4.5 -37t-8.5 -36q-31 -7 -53 -37q-17 -23 -35 -70t-30 -72q-18 -38 -42 -67q-48 -59 -118 -87q-63 -25 -142 -25q-24 0 -52 3
t-55 8q121 22 217 78q108 63 172 163q13 19 43 87q44 98 105 115zM1461 553v9q0 13 -14 13q-6 0 -9 -5zM411 161q-10 13 -19 26q-14 15 -30 11q-14 -6 -27 -22q-15 -22 -22 -31q-3 -5 -3 -11q0 -16 12.5 -19t23.5 -3q29 0 51 19q3 4 10 11t7 11q0 3 -3 8z" />
    <glyph glyph-name="U" unicode="U" horiz-adv-x="1398" 
d="M1307 304q4 -50 4.5 -67.5t0.5 -37.5q0 -49 -6 -95t-21 -91q0 97 -8.5 195.5t-24.5 226.5q-26 207 -26 210q-5 8 -5 17q0 13 10 29t19 31l36 -68q20 -42 20 -73q0 -5 -2 -17l-25 31q0 -60 9.5 -138.5t18.5 -152.5zM910 794q-6 -35 -32 -63q-3 7 4 19.5t7 16.5q0 6 -7 10
l-264 -44q9 -17 9 -37t-11 -34q2 24 -10.5 44.5t-35.5 35.5q-8 1 -8 5q4 10 9 21q14 -4 32.5 -6t36.5 -2q43 0 99 12q132 28 164 28zM985 493q0 -27 -19 -44q-9 -2 -16 5t-9 16q0 20 5 37.5t16 37.5q1 -7 -4 -25.5t-5 -22.5q0 -16 17 -20q7 8 15 16zM1132 278
q0 -87 -23 -146q-28 -71 -93 -117q-31 -11 -66.5 -18t-67.5 -7q67 39 99 58q60 36 89 76q0 46 -24 88q-11 18 -25.5 34.5t-34.5 34.5l-72 64q-24 22 -35 33q-17 17 -32 36q-91 110 -182 221q0 27 3 43t14 26q23 -21 47 -42q28 -27 41 -44l-27 -4q65 -83 137 -158.5
t154 -146.5q30 -30 40 -79q7 -33 7 -91q16 14 22.5 34.5t6.5 45.5q0 13 -2 30t-4 29q-13 68 -28 142q-33 160 -44 240q1 9 10 33t5 33q20 -5 36 -41l16 -36q3 -12 13 -36t10 -37q0 -4 -2 -14l-27 33l-8 -14q21 -96 30 -147q17 -91 17 -156zM603 589q1 -6 -6 -25l-16 6
q-4 0 -7 -6q0 -20 -5 -42t-9 -42q-9 10 -19 28q-3 5 -16 30q-14 5 -23.5 8t-13.5 10q1 10 3.5 21t10.5 18q17 -4 27 -20q15 -27 31 -53q2 22 5 44q6 29 22 29q5 0 16 -6zM770 414l-6 -13q-45 -20 -125 -49q-168 -62 -211 -80q0 8 6.5 16.5t18.5 16.5q41 14 118 42
q131 47 199 67zM413 670q-6 -30 -6 -31q-5 -10 -15 -14q-24 3 -38 16q-33 -51 -82 -93t-105 -71q8 8 66 55q76 63 107 107q-11 3 -19.5 9t-8.5 15q0 5 2 8.5t16 34.5q9 20 23 27q20 -7 37.5 -24.5t22.5 -38.5zM470 480q-1 -2 -18 -34q-11 -21 -26 -24q-13 11 -27 19.5
t-32 14.5q-8 -4 -18.5 -26t-21.5 -22q-7 0 -16 6q-14 9 -21 12q-11 6 -23 9q3 15 13 31t25 31q35 -8 60 -25l52 48q2 -2 34 -25q14 -10 19 -15zM582 220q0 -21 -6 -31t-16 -12q-10 0 -15 8t-9 20q0 25 4.5 42.5t16.5 35.5q-5 -16 -8 -27.5t-3 -22.5t4.5 -19.5t14.5 -8.5
q7 0 11 4zM811 145q-5 -35 -8 -52q-6 -31 -19 -49q-42 -27 -94 -44.5t-101 -17.5q-23 0 -46.5 4t-45.5 13q-39 7 -75 44q-21 21 -55 71q-47 -24 -76 -111.5t-72 -109.5q-41 0 -70 41q-17 24 -36 77q-8 30 -12.5 59t-4.5 59q0 60 23 102q-19 17 -27 40.5t-8 53.5
q0 29 5.5 61.5t12 65.5t22.5 69q13 30 35 66q-2 -10 -20 -68q-23 -77 -23 -123q0 -19 4 -39.5t13 -38.5q8 -9 15 -13t15 0q6 5 12 20t13 18q1 -9 1 -13q0 -59 -43 -99l-23 1q-3 -32 -3 -63q0 -64 15.5 -113t56.5 -84q10 -5 22 -5q15 0 22 7q15 17 61 119q34 75 90 91
q27 -65 94 -99q60 -30 135 -30q43 0 84 14.5t81 39.5q0 14 -12 30q-28 37 -28 48q0 9 6 20q0 1 5 18.5t14 19.5q39 -47 45 -100zM764 -85q-8 -14 -20 -29q-4 -5 -22 -28q-12 9 -23 15q-20 11 -40 21q-7 -4 -18.5 -24t-21.5 -20q-6 0 -11.5 4t-26.5 11.5t-16 20.5l44 51
l65 -22l34 33zM397 654q-5 11 -7 14q-8 13 -21 21l-4 -21q10 -8 16 -11t16 -3zM353 672q0 14 -12 14q-7 0 -13 -8q3 -5 12 -8q8 -2 13 2z" />
    <glyph glyph-name="V" unicode="V" horiz-adv-x="1362" 
d="M946 664q-10 -27 -30 -52.5t-46 -43.5q-12 -6 -30 -6q-7 0 -29.5 3.5t-32.5 3.5q-16 0 -26 -6t-18 -23q0 20 21 43q17 19 42 32q10 -1 17.5 -1.5t13.5 -0.5q37 0 67.5 12t50.5 39zM1295 410q4 -31 4 -71q0 -100 -32 -187q-19 -53 -48 -91q-35 -47 -82 -66
q-67 -13 -101 -18q-105 -18 -171 -18h-40q-16 3 -23 4q-10 11 -20 19q-19 16 -33 16q-12 1 -25.5 -4.5t-31.5 -17.5q-26 -5 -48 -10q-57 -13 -84 -13q-21 0 -44 6q67 13 109 31q53 22 97 61q-10 39 -10 79q0 46 13 100q10 40 27 84q6 16 35 81q21 -30 31.5 -72t10.5 -88
q0 -45 -9.5 -86t-27.5 -81q18 -24 51 -24q24 3 44 17.5t35 35.5q10 14 18.5 30t24.5 56q4 19 4 41q0 37 -13 70.5t-37 66.5q-10 -24 -14 -95.5t-26 -99.5q0 95 6 171.5t25 143.5q44 -42 66.5 -105t22.5 -136q0 -74 -24 -137q-20 -47 -36 -73q-24 -39 -57 -61q130 16 239 93
q55 39 93.5 91.5t55.5 114.5q4 13 6 31.5t2 34.5q0 53 -19 104.5t-53 98.5q-3 -30 -4 -76t-1 -51v-69.5t1 -68.5q-13 40 -19 85t-6 96q0 91 20 188q41 -44 65 -102.5t33 -128.5zM655 496q-12 -20 -30.5 -31t-45.5 -19.5t-41 -13.5q-25 -9 -41 -20q13 16 31 28t42 22
q42 17 85 34zM370 588q-6 -23 -13 -41.5t-21 -36.5l-105 -12q0 16 9 39q2 6 17 38q38 6 56 8q35 5 57 5zM531 147q-3 -29 -14.5 -51t-34.5 -38q-11 -5 -25 -5q-18 0 -34.5 9t-32.5 25q-4 4 -20 36q-11 22 -32 16q-24 -15 -54 -100q-26 -75 -63 -75q-12 0 -26.5 5t-31.5 17
q-38 29 -56.5 69t-18.5 87v28q3 12 4 18q7 51 43 86q23 23 78 53q61 34 79 49q40 32 51 75q0 -29 -13.5 -52.5t-39.5 -46.5q-21 -18 -64 -47q-6 -4 -37.5 -26t-46.5 -38q-19 -21 -26 -43q-3 -11 -3 -21q0 -21 11 -44t37 -53q19 -14 26 -18q15 -8 29 -6q38 13 69 99
q28 77 83 77q13 -25 26 -49q17 -28 42 -36q9 -3 19 -3q26 0 39 22q16 13 20 44.5t14 40.5q5 -37 5 -71v-16q-2 -12 -2 -17zM441 -98l-24 -75l-108 -15q0 48 32 82q18 0 32 2q49 7 52 7q11 0 16 -1zM799 194q0 52 -22 99q-18 -49 -35 -97q-4 -16 -4 -34q0 -36 25 -62
q36 39 36 94z" />
    <glyph glyph-name="W" unicode="W" horiz-adv-x="1278" 
d="M1187 795q-17 -30 -55 -44q-31 -11 -77 -11q-13 0 -25 1t-23 2v-20q-2 -13 -11 -19q0 10 -15 27t-15 26q0 10 14 20q35 -13 76 -13q36 0 67 7.5t64 23.5zM1144 256q12 -79 12 -138q0 -43 -5.5 -81.5t-18.5 -77.5q0 106 -18 232q-7 50 -40 226q-27 144 -37 226q2 3 12 27
q7 18 19 23q18 -37 37 -73q21 -45 21 -82q-5 0 -13 10q-12 15 -13 16l-8 -12q5 -54 16 -110zM992 652q-4 -11 -10 -19t-15 -8l-198 -68q-112 -40 -194 -79q4 23 29 36q192 79 388 138zM600 597q0 -25 -18 -45q-5 0 -10 3q-9 6 -11.5 13.5t-2.5 18.5q0 12 4 24t12 28
q0 -5 -2 -16t-2 -17q0 -18 14 -28q6 2 9 10t7 9zM789 395q-2 -2 -3.5 -14.5t-11.5 -6.5q-6 3 -11 3t-10 -3q-9 -14 -18 -63q-5 -25 -12 -39q-5 5 -27 46q-10 18 -21 28q1 -12 -13 -12q-8 0 -16 4q-7 6 -7 13q0 4 3.5 12.5t3.5 12.5q10 13 25 10q16 -10 31 -39.5t24 -38.5
q4 27 6 40q7 43 31 57q19 5 26 -10zM833 205q-2 -17 -5 -29.5t-15 -16.5q-9 -5 -18 1.5t-11 16.5q-1 10 -1 15q0 20 4 38q1 6 19 61q-7 -37 -14 -73q0 -19 12 -34q12 -2 19.5 8t9.5 13zM458 616q-5 -24 -7 -28q-7 -14 -24 -14l-31 13q-31 -53 -112 -114q-40 -30 -79 -59
q88 86 177 173q-11 4 -15.5 6.5t-4.5 8.5q5 8 9 43.5t27 35.5q6 0 10 -1q19 -15 32 -30t18 -34zM506 460q-5 -14 -13 -30.5t-18 -32.5q-21 10 -31 15q-18 9 -29 19q-7 -5 -17 -32t-26 -25q-1 1 -32 12q-19 7 -19 19q5 6 13 25q12 31 31 27l50 -22l49 58q2 -1 20 -14t22 -19z
M577 201q-4 -18 -6 -30t-12 -20q-10 -3 -17 3q-8 9 -12 13q-1 6 -1 17q0 22 9 48q3 7 19 44q0 -9 -5 -23q-12 -35 -12 -46q0 -18 12 -30q12 -3 15.5 10t9.5 14zM980 44q-11 -33 -48 -50q-34 -12 -67 -25q-40 -12 -81.5 -19t-82.5 -7q-67 0 -124.5 19t-101.5 62q-7 5 -25 41
q-14 27 -35 22q-37 -26 -68 -130q-27 -90 -90 -106q-69 27 -94 101q-17 50 -17 141q-3 10 2 24t11 32q0 13 -15 20q-23 43 -23 103q0 33 7 74t28 103q9 21 18 36t22 27q-3 -16 -27 -94q-19 -62 -19 -100q0 -28 7.5 -49t27.5 -43q15 0 24 9.5t19 20.5q-8 -43 -13 -64
q-10 -38 -44 -41q-3 -29 -3 -59q0 -56 14 -92q18 -47 62 -72q8 -3 14 -3q9 0 14 3t26 20q20 26 44 92q39 108 101 123q27 -77 104 -115q66 -33 153 -33q70 0 132.5 17t128.5 50q-1 14 -9 31q-12 25 -23 50l15 63q23 -23 34 -53.5t11 -67.5q0 -31 -9 -61zM903 -123
q-10 -17 -19 -34q-13 -19 -29 -22l-63 19q-2 -2 -16 -24q-10 -16 -20 -16q-7 0 -13 5q-20 8 -29 12q-17 8 -14 21l36 48q11 -1 31.5 -12t32.5 -11l33 45zM440 605q-2 8 -10.5 15.5t-12.5 11.5q-1 -2 -4 -9t-1 -9q6 -4 13.5 -8.5t14.5 -0.5zM398 618v11q-1 5 -6 5
q-14 0 -14 -14z" />
    <glyph glyph-name="X" unicode="X" horiz-adv-x="1044" 
d="M933 800q-10 -23 -31.5 -47.5t-44.5 -32.5q-9 -6 -19.5 -8.5t-24.5 -2.5q-16 0 -29 2t-20.5 3t-22.5 1q-20 0 -34 -7t-24 -27q13 44 47 59q23 10 71 10h19q43 0 64 7q32 11 49 43zM630 515q-10 -17 -28 -30t-42 -24q-44 -18 -87 -36q11 20 28.5 32.5t45 22.5t41.5 15
q26 10 42 20zM871 425q3 -32 3 -65q0 -91 -25 -182q-20 -63 -53 -109q-38 -54 -92 -86q-75 -22 -150 -35t-141 -13q73 15 144 45q77 33 137 78q67 50 107 110q45 67 56 145q0 60 -20 115.5t-58 108.5q-6 -32 -8 -75t-2 -84v-45v-16q0 -63 -7 -112q-7 38 -9.5 82.5
t-2.5 103.5v64q4 48 9 99.5t17 88.5q40 -41 64 -98t31 -120zM323 527q-3 -19 -10 -40t-14 -41q-16 0 -47 -2t-44 -2q3 19 7.5 40.5t14.5 35.5q9 3 30 6t52 3h11zM536 150q-4 -35 -17 -61t-40 -42q-11 -6 -23 -6q-9 0 -21.5 3.5t-18.5 4.5q-19 6 -35 37t-39 31
q-18 -12 -28 -34q-4 -9 -21 -76q-6 -31 -17 -45q-14 -19 -43 -19q-6 0 -20 2q-36 6 -63.5 39.5t-35 68t-7.5 60.5q0 89 57 148q17 14 68 50q29 20 41 30q29 25 45 47q20 28 27 61q0 -33 -13 -60q-16 -33 -66 -76q-45 -34 -66 -52q-38 -32 -57 -61q-7 -10 -10 -22t-3 -25
q0 -22 10 -46t24.5 -41t32 -26.5t37.5 -9.5q8 0 13 1q23 21 43 88t58 88q17 0 56 -55q18 -26 40 -26q10 0 28 8q39 20 50 78q5 41 8 60q2 -15 5 -44.5t3 -46.5v-19q-2 -9 -2 -12zM472 -115q-1 -4 -7.5 -35.5t-17.5 -42.5l-86 -7q0 34 5.5 56t27.5 29q18 3 39 3q22 0 39 -3z
" />
    <glyph glyph-name="Y" unicode="Y" 
d="M621 546v-540h-474v132h168v264h108v-264h96v408h102z" />
    <glyph glyph-name="Z" unicode="Z" 
d="M621 546v-540h-474v132h168v264h108v-264h96v408h102z" />
    <glyph glyph-name="bracketleft" unicode="[" 
d="M621 546v-540h-474v132h168v264h108v-264h96v408h102z" />
    <glyph glyph-name="backslash" unicode="\" 
d="M621 546v-540h-474v132h168v264h108v-264h96v408h102z" />
    <glyph glyph-name="bracketright" unicode="]" 
d="M621 546v-540h-474v132h168v264h108v-264h96v408h102z" />
    <glyph glyph-name="asciicircum" unicode="^" 
d="M621 546v-540h-474v132h168v264h108v-264h96v408h102z" />
    <glyph glyph-name="underscore" unicode="_" 
d="M621 546v-540h-474v132h168v264h108v-264h96v408h102z" />
    <glyph glyph-name="grave" unicode="`" 
d="M621 546v-540h-474v132h168v264h108v-264h96v408h102z" />
    <glyph glyph-name="a" unicode="a" 
d="M621 546v-540h-474v132h168v264h108v-264h96v408h102z" />
    <glyph glyph-name="b" unicode="b" 
d="M621 546v-540h-474v132h168v264h108v-264h96v408h102z" />
    <glyph glyph-name="c" unicode="c" 
d="M621 546v-540h-474v132h168v264h108v-264h96v408h102z" />
    <glyph glyph-name="d" unicode="d" 
d="M621 546v-540h-474v132h168v264h108v-264h96v408h102z" />
    <glyph glyph-name="e" unicode="e" 
d="M621 546v-540h-474v132h168v264h108v-264h96v408h102z" />
    <glyph glyph-name="f" unicode="f" 
d="M621 546v-540h-474v132h168v264h108v-264h96v408h102z" />
    <glyph glyph-name="g" unicode="g" 
d="M621 546v-540h-474v132h168v264h108v-264h96v408h102z" />
    <glyph glyph-name="h" unicode="h" 
d="M621 546v-540h-474v132h168v264h108v-264h96v408h102z" />
    <glyph glyph-name="i" unicode="i" 
d="M621 546v-540h-474v132h168v264h108v-264h96v408h102z" />
    <glyph glyph-name="j" unicode="j" 
d="M621 546v-540h-474v132h168v264h108v-264h96v408h102z" />
    <glyph glyph-name="k" unicode="k" 
d="M621 546v-540h-474v132h168v264h108v-264h96v408h102z" />
    <glyph glyph-name="l" unicode="l" 
d="M621 546v-540h-474v132h168v264h108v-264h96v408h102z" />
    <glyph glyph-name="m" unicode="m" 
d="M621 546v-540h-474v132h168v264h108v-264h96v408h102z" />
    <glyph glyph-name="n" unicode="n" 
d="M621 546v-540h-474v132h168v264h108v-264h96v408h102z" />
    <glyph glyph-name="o" unicode="o" 
d="M621 546v-540h-474v132h168v264h108v-264h96v408h102z" />
    <glyph glyph-name="p" unicode="p" 
d="M621 546v-540h-474v132h168v264h108v-264h96v408h102z" />
    <glyph glyph-name="q" unicode="q" 
d="M621 546v-540h-474v132h168v264h108v-264h96v408h102z" />
    <glyph glyph-name="r" unicode="r" 
d="M621 546v-540h-474v132h168v264h108v-264h96v408h102z" />
    <glyph glyph-name="s" unicode="s" 
d="M621 546v-540h-474v132h168v264h108v-264h96v408h102z" />
    <glyph glyph-name="t" unicode="t" 
d="M621 546v-540h-474v132h168v264h108v-264h96v408h102z" />
    <glyph glyph-name="u" unicode="u" 
d="M621 546v-540h-474v132h168v264h108v-264h96v408h102z" />
    <glyph glyph-name="v" unicode="v" 
d="M621 546v-540h-474v132h168v264h108v-264h96v408h102z" />
    <glyph glyph-name="w" unicode="w" 
d="M621 546v-540h-474v132h168v264h108v-264h96v408h102z" />
    <glyph glyph-name="x" unicode="x" 
d="M621 546v-540h-474v132h168v264h108v-264h96v408h102z" />
    <glyph glyph-name="y" unicode="y" 
d="M621 546v-540h-474v132h168v264h108v-264h96v408h102z" />
    <glyph glyph-name="z" unicode="z" 
d="M621 546v-540h-474v132h168v264h108v-264h96v408h102z" />
    <glyph glyph-name="braceleft" unicode="{" 
d="M621 546v-540h-474v132h168v264h108v-264h96v408h102z" />
    <glyph glyph-name="bar" unicode="|" 
d="M621 546v-540h-474v132h168v264h108v-264h96v408h102z" />
    <glyph glyph-name="braceright" unicode="}" 
d="M621 546v-540h-474v132h168v264h108v-264h96v408h102z" />
    <glyph glyph-name="asciitilde" unicode="~" 
d="M621 546v-540h-474v132h168v264h108v-264h96v408h102z" />
  </font>
</defs>
</svg>
